<?xml version="1.0" encoding="utf-8"?>
<!-- Generator: Adobe Illustrator 23.0.1, SVG Export Plug-In . SVG Version: 6.00 Build 0)  -->
<svg version="1.1" id="Default" xmlns="http://www.w3.org/2000/svg" xmlns:xlink="http://www.w3.org/1999/xlink" x="0px" y="0px"
	 viewBox="0 0 700 500" style="enable-background:new 0 0 700 500;" xml:space="preserve">
<style type="text/css">
	.st0{fill:#EAE8ED;}
	.st1{fill:#7F542E;}
	.st2{fill:#A26D42;}
	.st3{fill:#6899F4;}
	.st4{fill:#A5B3BF;}
	.st5{fill:#DFE3E7;}
	.st6{fill:#C48B5E;}
	.st7{fill:#D2898A;}
	.st8{fill:#C95B68;}
	.st9{fill:#9ED2E9;}
	.st10{fill:#76B2CC;}
	.st11{fill:#B0A7C2;}
	.st12{fill:#C5BED1;}
	.st13{fill:#82C2E8;}
	.st14{fill:url(#SVGID_1_);}
	.st15{opacity:0.69;fill:#FCFCFC;}
	.st16{fill:#3F4F5D;}
	.st17{fill:#5D6571;}
	.st18{fill:#8140FF;}
	.st19{fill:#A68EFE;}
	.st20{fill:#9D8CF9;}
	.st21{fill:#9F3759;}
	.st22{fill:#BB426A;}
	.st23{fill:#C8D1DD;}
	.st24{fill:#CD7E8E;}
	.st25{fill:#DA926E;}
	.st26{fill:#E2AE4A;}
	.st27{fill:#648F66;}
	.st28{fill:#72A368;}
	.st29{fill:#5A84D9;}
	.st30{fill:#EBD863;}
	.st31{fill:#84BF80;}
	.st32{fill:#4B7CD6;}
	.st33{fill:#785CAD;}
	.st34{fill:#BFB5F4;}
	.st35{fill:#48413C;}
	.st36{fill:#D2448D;}
	.st37{fill:#AA226D;}
	.st38{fill:#E6A57A;}
	.st39{fill:#F6BA28;}
	.st40{fill:#F2A305;}
	.st41{fill:#E06C00;}
	.st42{fill:#B19069;}
	.st43{fill:#C0AD88;}
	.st44{fill:url(#XMLID_3_);}
	.st45{fill:#EDDFDF;}
	.st46{fill:#E8DDA5;}
	.st47{fill:#BAA286;}
	.st48{fill:#8F7A67;}
	.st49{fill:#EDE582;}
	.st50{fill:#E6AD23;}
	.st51{fill:#EDEAB9;}
	.st52{fill:#BCAA9B;}
	.st53{fill:#EEE6D9;}
	.st54{fill:#EED9D9;}
	.st55{fill:#E288B9;}
	.st56{fill:#EBEEC1;}
	.st57{fill:#D3D3AF;}
	.st58{fill:#BEBE9E;}
	.st59{fill:#F1F1CE;}
	.st60{fill:#E0BE95;}
	.st61{fill:#D8AA7D;}
	.st62{fill:#8BD0D0;}
	.st63{fill:#655FBF;}
	.st64{fill:#D1E2EE;}
	.st65{fill:#4C6E81;}
	.st66{fill:#BBEBEF;}
	.st67{fill:#71A7AB;}
	.st68{fill:#5A8694;}
	.st69{fill:#899DB9;}
	.st70{fill:#BECBDC;}
	.st71{fill:#B54689;}
	.st72{fill:#D6519A;}
	.st73{fill:#B7A68A;}
	.st74{fill:#F2E9DA;}
	.st75{fill:#D3C1A1;}
	.st76{fill:#D38C0F;}
	.st77{fill:#C6BAA7;}
	.st78{fill:#A55685;}
	.st79{fill:#CC7AA7;}
	.st80{fill:#D3C7B4;}
	.st81{fill:#EAD9B5;}
	.st82{fill:#E5D9C6;}
	.st83{fill:#E0ADCC;}
	.st84{fill:#7242F9;}
	.st85{fill:#E172B0;}
	.st86{opacity:0.5;fill:#9ED2E9;}
</style>
<path class="st0" d="M274.59,278.86c2.78,1.31,2.78,3.42,0,4.73c-2.78,1.31-7.29,1.31-10.07,0c-2.78-1.31-2.78-3.42,0-4.73
	C267.31,277.55,271.81,277.55,274.59,278.86z"/>
<g>
	<path class="st0" d="M463.67,284.25l2.9,0.46c0.24,0.04,0.5,0.02,0.7-0.05l2.45-0.86c0.51-0.18,1.23-0.01,1.22,0.29l-0.04,1.44
		c0,0.12,0.12,0.23,0.32,0.3l2.5,0.83c0.52,0.17,0.39,0.55-0.21,0.63l-2.92,0.43c-0.24,0.04-0.43,0.12-0.5,0.24l-0.91,1.37
		c-0.19,0.28-0.99,0.34-1.35,0.1l-1.77-1.17c-0.14-0.1-0.38-0.15-0.63-0.15l-3.06,0.02c-0.63,0-1-0.33-0.62-0.57l1.83-1.15
		c0.15-0.09,0.19-0.22,0.11-0.33l-0.98-1.36C462.5,284.43,463.07,284.16,463.67,284.25z"/>
	<path class="st0" d="M476.1,278.43l2.9,0.46c0.24,0.04,0.5,0.02,0.7-0.05l2.45-0.86c0.51-0.18,1.23-0.01,1.22,0.29l-0.04,1.44
		c0,0.12,0.12,0.23,0.32,0.3l2.5,0.83c0.52,0.17,0.39,0.55-0.21,0.63l-2.92,0.43c-0.24,0.03-0.43,0.12-0.5,0.24l-0.91,1.37
		c-0.19,0.28-0.99,0.34-1.35,0.1l-1.77-1.17c-0.14-0.1-0.38-0.15-0.63-0.15l-3.06,0.02c-0.63,0-1-0.33-0.62-0.57l1.83-1.15
		c0.15-0.09,0.19-0.22,0.11-0.33l-0.98-1.36C474.93,278.6,475.5,278.33,476.1,278.43z"/>
	<path class="st0" d="M488.52,272.6l2.9,0.46c0.24,0.04,0.5,0.02,0.7-0.05l2.45-0.86c0.51-0.18,1.23-0.01,1.22,0.29l-0.04,1.44
		c0,0.12,0.12,0.23,0.32,0.3l2.5,0.83c0.52,0.17,0.39,0.55-0.21,0.63l-2.92,0.43c-0.24,0.03-0.43,0.12-0.5,0.24l-0.91,1.37
		c-0.19,0.28-0.99,0.34-1.35,0.1l-1.77-1.17c-0.14-0.1-0.38-0.15-0.63-0.15l-3.06,0.02c-0.63,0-1-0.33-0.62-0.57l1.83-1.15
		c0.15-0.09,0.19-0.22,0.11-0.33l-0.98-1.36C487.35,272.77,487.92,272.5,488.52,272.6z"/>
	<path class="st0" d="M500.95,266.77l2.9,0.46c0.24,0.04,0.5,0.02,0.7-0.05l2.45-0.86c0.51-0.18,1.23-0.01,1.22,0.29l-0.04,1.44
		c0,0.12,0.12,0.23,0.32,0.3l2.5,0.83c0.52,0.17,0.39,0.55-0.21,0.63l-2.92,0.43c-0.24,0.03-0.43,0.12-0.5,0.24l-0.91,1.37
		c-0.19,0.28-0.99,0.34-1.35,0.1l-1.77-1.17c-0.14-0.1-0.38-0.15-0.63-0.15l-3.06,0.02c-0.63,0-1-0.33-0.62-0.57l1.83-1.15
		c0.15-0.09,0.19-0.22,0.11-0.33l-0.98-1.36C499.78,266.94,500.35,266.67,500.95,266.77z"/>
	<path class="st0" d="M513.37,260.94l2.9,0.46c0.24,0.04,0.5,0.02,0.7-0.05l2.45-0.86c0.51-0.18,1.23-0.01,1.22,0.29l-0.04,1.44
		c0,0.12,0.12,0.23,0.32,0.3l2.5,0.83c0.52,0.17,0.39,0.55-0.21,0.63l-2.92,0.43c-0.24,0.04-0.43,0.12-0.5,0.24l-0.91,1.37
		c-0.19,0.28-0.99,0.34-1.35,0.1l-1.77-1.17c-0.14-0.1-0.38-0.15-0.63-0.15l-3.06,0.02c-0.63,0-1-0.33-0.62-0.57l1.83-1.15
		c0.15-0.09,0.19-0.22,0.11-0.33l-0.98-1.36C512.2,261.11,512.77,260.84,513.37,260.94z"/>
</g>
<g>
	<path class="st0" d="M354.16,294.35l2.9,0.46c0.24,0.04,0.5,0.02,0.7-0.05l2.45-0.86c0.51-0.18,1.23-0.01,1.22,0.29l-0.04,1.44
		c0,0.12,0.12,0.23,0.32,0.3l2.5,0.83c0.52,0.17,0.39,0.55-0.21,0.63l-2.92,0.43c-0.24,0.04-0.43,0.12-0.5,0.24l-0.91,1.37
		c-0.19,0.28-0.99,0.34-1.35,0.1l-1.77-1.17c-0.14-0.1-0.38-0.15-0.63-0.15l-3.06,0.02c-0.63,0-1-0.33-0.62-0.57l1.83-1.15
		c0.15-0.09,0.19-0.22,0.11-0.33l-0.98-1.36C352.99,294.52,353.56,294.25,354.16,294.35z"/>
	<path class="st0" d="M366.59,288.52l2.9,0.46c0.24,0.04,0.5,0.02,0.7-0.05l2.45-0.86c0.51-0.18,1.23-0.01,1.22,0.29l-0.04,1.44
		c0,0.12,0.12,0.23,0.32,0.3l2.5,0.83c0.52,0.17,0.39,0.55-0.21,0.63l-2.92,0.43c-0.24,0.03-0.43,0.12-0.5,0.24l-0.91,1.37
		c-0.19,0.28-0.99,0.34-1.35,0.1l-1.77-1.17c-0.14-0.1-0.38-0.15-0.63-0.15l-3.06,0.02c-0.63,0-1-0.33-0.62-0.57l1.83-1.15
		c0.15-0.09,0.19-0.22,0.11-0.33l-0.98-1.36C365.42,288.69,365.99,288.42,366.59,288.52z"/>
	<path class="st0" d="M379.01,282.69l2.9,0.46c0.24,0.04,0.5,0.02,0.7-0.05l2.45-0.86c0.51-0.18,1.23-0.01,1.22,0.29l-0.04,1.44
		c0,0.12,0.12,0.23,0.32,0.3l2.5,0.83c0.52,0.17,0.39,0.55-0.21,0.63l-2.92,0.43c-0.24,0.03-0.43,0.12-0.5,0.24l-0.91,1.37
		c-0.19,0.28-0.99,0.34-1.35,0.1l-1.77-1.17c-0.14-0.1-0.38-0.15-0.63-0.15l-3.06,0.02c-0.63,0-1-0.33-0.62-0.57l1.83-1.15
		c0.15-0.09,0.19-0.22,0.11-0.33l-0.98-1.36C377.84,282.86,378.41,282.59,379.01,282.69z"/>
	<path class="st0" d="M391.44,276.86l2.9,0.46c0.24,0.04,0.5,0.02,0.7-0.05l2.45-0.86c0.51-0.18,1.23-0.01,1.22,0.29l-0.04,1.44
		c0,0.12,0.12,0.23,0.32,0.3l2.5,0.83c0.52,0.17,0.39,0.55-0.21,0.63l-2.92,0.43c-0.24,0.03-0.43,0.12-0.5,0.24l-0.91,1.37
		c-0.19,0.28-0.99,0.34-1.35,0.1l-1.77-1.17c-0.14-0.1-0.38-0.15-0.63-0.15l-3.06,0.02c-0.63,0-1-0.33-0.62-0.57l1.83-1.15
		c0.15-0.09,0.19-0.22,0.11-0.33l-0.98-1.36C390.27,277.03,390.84,276.77,391.44,276.86z"/>
	<path class="st0" d="M403.86,271.03l2.9,0.46c0.24,0.04,0.5,0.02,0.7-0.05l2.45-0.86c0.51-0.18,1.23-0.01,1.22,0.29l-0.04,1.44
		c0,0.12,0.12,0.23,0.32,0.3l2.5,0.83c0.52,0.17,0.39,0.55-0.21,0.63l-2.92,0.43c-0.24,0.04-0.43,0.12-0.5,0.24l-0.91,1.37
		c-0.19,0.28-0.99,0.34-1.35,0.1l-1.77-1.17c-0.14-0.1-0.38-0.15-0.63-0.15l-3.06,0.02c-0.63,0-1-0.33-0.62-0.57l1.83-1.15
		c0.15-0.09,0.19-0.22,0.11-0.33l-0.98-1.36C402.69,271.2,403.26,270.94,403.86,271.03z"/>
</g>
<g>
	<path class="st0" d="M476.6,342.34l2.9,0.46c0.24,0.04,0.5,0.02,0.7-0.05l2.45-0.86c0.51-0.18,1.23-0.01,1.22,0.29l-0.04,1.44
		c0,0.12,0.12,0.23,0.32,0.3l2.5,0.83c0.52,0.17,0.39,0.55-0.21,0.63l-2.92,0.43c-0.24,0.04-0.43,0.12-0.5,0.24l-0.91,1.37
		c-0.19,0.28-0.99,0.34-1.35,0.1l-1.77-1.17c-0.14-0.1-0.38-0.15-0.63-0.15l-3.06,0.02c-0.63,0-1-0.33-0.62-0.57l1.83-1.15
		c0.15-0.09,0.19-0.22,0.11-0.33l-0.98-1.36C475.43,342.52,476,342.25,476.6,342.34z"/>
	<path class="st0" d="M489.02,336.51l2.9,0.46c0.24,0.04,0.5,0.02,0.7-0.05l2.45-0.86c0.51-0.18,1.23-0.01,1.22,0.29l-0.04,1.44
		c0,0.12,0.12,0.23,0.32,0.3l2.5,0.83c0.52,0.17,0.39,0.55-0.21,0.63l-2.92,0.43c-0.24,0.03-0.43,0.12-0.5,0.24l-0.91,1.37
		c-0.19,0.28-0.99,0.34-1.35,0.1l-1.77-1.17c-0.14-0.1-0.38-0.15-0.63-0.15l-3.06,0.02c-0.63,0-1-0.33-0.62-0.57l1.83-1.15
		c0.15-0.09,0.19-0.22,0.11-0.33l-0.98-1.36C487.85,336.69,488.43,336.42,489.02,336.51z"/>
	<path class="st0" d="M501.45,330.69l2.9,0.46c0.24,0.04,0.5,0.02,0.7-0.05l2.45-0.86c0.51-0.18,1.23-0.01,1.22,0.29l-0.04,1.44
		c0,0.12,0.12,0.23,0.32,0.3l2.5,0.83c0.52,0.17,0.39,0.55-0.21,0.63l-2.92,0.43c-0.24,0.03-0.43,0.12-0.5,0.24l-0.91,1.37
		c-0.19,0.28-0.99,0.34-1.35,0.1l-1.77-1.17c-0.14-0.1-0.38-0.15-0.63-0.15l-3.06,0.02c-0.63,0-1-0.33-0.62-0.57l1.83-1.15
		c0.15-0.09,0.19-0.22,0.11-0.33l-0.98-1.36C500.28,330.86,500.85,330.59,501.45,330.69z"/>
	<path class="st0" d="M513.87,324.86l2.9,0.46c0.24,0.04,0.5,0.02,0.7-0.05l2.45-0.86c0.51-0.18,1.23-0.01,1.22,0.29l-0.04,1.44
		c0,0.12,0.12,0.23,0.32,0.3l2.5,0.83c0.52,0.17,0.39,0.55-0.21,0.63l-2.92,0.43c-0.24,0.03-0.43,0.12-0.5,0.24l-0.91,1.37
		c-0.19,0.28-0.99,0.34-1.35,0.1l-1.77-1.17c-0.14-0.1-0.38-0.15-0.63-0.15l-3.06,0.02c-0.63,0-1-0.33-0.62-0.57l1.83-1.15
		c0.15-0.09,0.19-0.22,0.11-0.33l-0.98-1.36C512.7,325.03,513.28,324.76,513.87,324.86z"/>
	<path class="st0" d="M526.3,319.03l2.9,0.46c0.24,0.04,0.5,0.02,0.7-0.05l2.45-0.86c0.51-0.18,1.23-0.01,1.22,0.29l-0.04,1.44
		c0,0.12,0.12,0.23,0.32,0.3l2.5,0.83c0.52,0.17,0.39,0.55-0.21,0.63l-2.92,0.43c-0.24,0.04-0.43,0.12-0.5,0.24l-0.91,1.37
		c-0.19,0.28-0.99,0.34-1.35,0.1l-1.77-1.17c-0.14-0.1-0.38-0.15-0.63-0.15l-3.06,0.02c-0.63,0-1-0.33-0.62-0.57l1.83-1.15
		c0.15-0.09,0.19-0.22,0.11-0.33l-0.98-1.36C525.13,319.2,525.7,318.93,526.3,319.03z"/>
</g>
<path class="st0" d="M653.33,363c4.77,2.24,4.77,5.87,0,8.11c-4.77,2.24-12.5,2.24-17.27,0c-4.77-2.24-4.77-5.87,0-8.11
	C640.83,360.76,648.56,360.76,653.33,363z"/>
<g>
	<g>
		<g>
			<path class="st0" d="M350.08,288.23l-65.62,30.8c-2.13,1-5.59,1-7.72,0l0,0c-2.13-1-2.13-2.62,0-3.62l65.62-30.8
				c2.13-1,5.59-1,7.72,0l0,0C352.21,285.6,352.21,287.22,350.08,288.23z"/>
			<path class="st0" d="M400.77,264.43l-34.68,16.28c-2.13,1-5.59,1-7.72,0l0,0c-2.13-1-2.13-2.62,0-3.62l34.68-16.28
				c2.13-1,5.59-1,7.72,0h0C402.9,261.81,402.9,263.43,400.77,264.43z"/>
		</g>
		<path class="st0" d="M369.53,262.93l-65.62,30.8c-2.13,1-5.59,1-7.72,0l0,0c-2.13-1-2.13-2.62,0-3.62l65.62-30.8
			c2.13-1,5.59-1,7.72,0l0,0C371.66,260.31,371.66,261.93,369.53,262.93z"/>
		<path class="st0" d="M453.44,223.54l-65.62,30.8c-2.13,1-5.59,1-7.72,0l0,0c-2.13-1-2.13-2.62,0-3.62l65.62-30.8
			c2.13-1,5.59-1,7.72,0l0,0C455.57,220.92,455.57,222.54,453.44,223.54z"/>
		<path class="st0" d="M491.12,238.18l-65.62,30.8c-2.13,1-5.59,1-7.72,0l0,0c-2.13-1-2.13-2.62,0-3.62l65.62-30.8
			c2.13-1,5.59-1,7.72,0l0,0C493.25,235.55,493.25,237.18,491.12,238.18z"/>
		<path class="st0" d="M367.29,296.31l-19.21,9.02c-2.13,1-5.59,1-7.72,0l0,0c-2.13-1-2.13-2.62,0-3.62l19.21-9.02
			c2.13-1,5.59-1,7.72,0l0,0C369.42,293.68,369.42,295.31,367.29,296.31z"/>
		<path class="st0" d="M531.97,219l-19.21,9.02c-2.13,1-5.59,1-7.72,0l0,0c-2.13-1-2.13-2.62,0-3.62l19.21-9.02
			c2.13-1,5.59-1,7.72,0l0,0C534.1,216.38,534.1,218,531.97,219z"/>
		<path class="st0" d="M382.58,240.64l-65.62,30.8c-2.13,1-5.59,1-7.72,0l0,0c-2.13-1-2.13-2.62,0-3.62l65.62-30.8
			c2.13-1,5.59-1,7.72,0l0,0C384.71,238.02,384.71,239.64,382.58,240.64z"/>
		<path class="st0" d="M423.43,221.47l-19.21,9.02c-2.13,1-5.59,1-7.72,0l0,0c-2.13-1-2.13-2.62,0-3.62l19.21-9.02
			c2.13-1,5.59-1,7.72,0l0,0C425.56,218.84,425.56,220.47,423.43,221.47z"/>
	</g>
	<g>
		<g>
			<path class="st0" d="M353.54,360.05l-65.62,30.8c-2.13,1-5.59,1-7.72,0l0,0c-2.13-1-2.13-2.62,0-3.62l65.62-30.8
				c2.13-1,5.59-1,7.72,0l0,0C355.67,357.42,355.67,359.05,353.54,360.05z"/>
			<path class="st0" d="M404.23,336.25l-34.68,16.28c-2.13,1-5.59,1-7.72,0l0,0c-2.13-1-2.13-2.62,0-3.62l34.68-16.28
				c2.13-1,5.59-1,7.72,0h0C406.36,333.63,406.36,335.25,404.23,336.25z"/>
		</g>
		<path class="st0" d="M372.99,334.75l-65.62,30.8c-2.13,1-5.59,1-7.72,0l0,0c-2.13-1-2.13-2.62,0-3.62l65.62-30.8
			c2.13-1,5.59-1,7.72,0l0,0C375.12,332.13,375.12,333.75,372.99,334.75z"/>
		<path class="st0" d="M456.9,295.36l-65.62,30.8c-2.13,1-5.59,1-7.72,0l0,0c-2.13-1-2.13-2.62,0-3.62l65.62-30.8
			c2.13-1,5.59-1,7.72,0l0,0C459.03,292.74,459.03,294.36,456.9,295.36z"/>
		<path class="st0" d="M494.59,310l-65.62,30.8c-2.13,1-5.59,1-7.72,0l0,0c-2.13-1-2.13-2.62,0-3.62l65.62-30.8
			c2.13-1,5.59-1,7.72,0l0,0C496.72,307.38,496.72,309,494.59,310z"/>
		<path class="st0" d="M370.76,368.13l-19.21,9.02c-2.13,1-5.59,1-7.72,0l0,0c-2.13-1-2.13-2.62,0-3.62l19.21-9.02
			c2.13-1,5.59-1,7.72,0l0,0C372.89,365.51,372.89,367.13,370.76,368.13z"/>
		<path class="st0" d="M535.43,290.82l-19.21,9.02c-2.13,1-5.59,1-7.72,0l0,0c-2.13-1-2.13-2.62,0-3.62l19.21-9.02
			c2.13-1,5.59-1,7.72,0l0,0C537.56,288.2,537.56,289.82,535.43,290.82z"/>
		<path class="st0" d="M386.05,312.46l-65.62,30.8c-2.13,1-5.59,1-7.72,0l0,0c-2.13-1-2.13-2.62,0-3.62l65.62-30.8
			c2.13-1,5.59-1,7.72,0l0,0C388.18,309.84,388.18,311.46,386.05,312.46z"/>
		<path class="st0" d="M426.89,293.29l-19.21,9.02c-2.13,1-5.59,1-7.72,0l0,0c-2.13-1-2.13-2.62,0-3.62l19.21-9.02
			c2.13-1,5.59-1,7.72,0l0,0C429.02,290.66,429.02,292.29,426.89,293.29z"/>
	</g>
	<g>
		<g>
			<path class="st0" d="M454.21,344.76l-65.62,30.8c-2.13,1-5.59,1-7.72,0l0,0c-2.13-1-2.13-2.62,0-3.62l65.62-30.8
				c2.13-1,5.59-1,7.72,0l0,0C456.34,342.14,456.34,343.76,454.21,344.76z"/>
			<path class="st0" d="M504.9,320.97l-34.68,16.28c-2.13,1-5.59,1-7.72,0l0,0c-2.13-1-2.13-2.62,0-3.62l34.68-16.28
				c2.13-1,5.59-1,7.72,0l0,0C507.04,318.35,507.04,319.97,504.9,320.97z"/>
		</g>
		<path class="st0" d="M473.67,319.47l-65.62,30.8c-2.13,1-5.59,1-7.72,0l0,0c-2.13-1-2.13-2.62,0-3.62l65.62-30.8
			c2.13-1,5.59-1,7.72,0l0,0C475.8,316.85,475.8,318.47,473.67,319.47z"/>
		<path class="st0" d="M557.57,280.08l-65.62,30.8c-2.13,1-5.59,1-7.72,0h0c-2.13-1-2.13-2.62,0-3.62l65.62-30.8
			c2.13-1,5.59-1,7.72,0l0,0C559.7,277.46,559.7,279.08,557.57,280.08z"/>
		<path class="st0" d="M595.26,294.72l-65.62,30.8c-2.13,1-5.59,1-7.72,0l0,0c-2.13-1-2.13-2.62,0-3.62l65.62-30.8
			c2.13-1,5.59-1,7.72,0l0,0C597.39,292.09,597.39,293.72,595.26,294.72z"/>
		<path class="st0" d="M471.43,352.85l-19.21,9.02c-2.13,1-5.59,1-7.72,0l0,0c-2.13-1-2.13-2.62,0-3.62l19.21-9.02
			c2.13-1,5.59-1,7.72,0l0,0C473.56,350.22,473.56,351.85,471.43,352.85z"/>
		<path class="st0" d="M636.11,275.54l-19.21,9.02c-2.13,1-5.59,1-7.72,0l0,0c-2.13-1-2.13-2.62,0-3.62l19.21-9.02
			c2.13-1,5.59-1,7.72,0l0,0C638.24,272.92,638.24,274.54,636.11,275.54z"/>
		<path class="st0" d="M486.72,297.18l-65.62,30.8c-2.13,1-5.59,1-7.72,0l0,0c-2.13-1-2.13-2.62,0-3.62l65.62-30.8
			c2.13-1,5.59-1,7.72,0l0,0C488.85,294.56,488.85,296.18,486.72,297.18z"/>
		<path class="st0" d="M527.57,278.01l-19.21,9.02c-2.13,1-5.59,1-7.72,0l0,0c-2.13-1-2.13-2.62,0-3.62l19.21-9.02
			c2.13-1,5.59-1,7.72,0l0,0C529.7,275.38,529.7,277,527.57,278.01z"/>
	</g>
	<g>
		<path class="st0" d="M591.96,227.28l-65.62,30.8c-2.13,1-5.59,1-7.72,0h0c-2.13-1-2.13-2.62,0-3.62l65.62-30.8
			c2.13-1,5.59-1,7.72,0l0,0C594.09,224.65,594.09,226.28,591.96,227.28z"/>
		<path class="st0" d="M629.65,241.91l-65.62,30.8c-2.13,1-5.59,1-7.72,0v0c-2.13-1-2.13-2.62,0-3.62l65.62-30.8
			c2.13-1,5.59-1,7.72,0l0,0C631.78,239.29,631.78,240.91,629.65,241.91z"/>
		<path class="st0" d="M670.49,222.74l-19.21,9.02c-2.13,1-5.59,1-7.72,0l0,0c-2.13-1-2.13-2.62,0-3.62l19.21-9.02
			c2.13-1,5.59-1,7.72,0l0,0C672.63,220.11,672.63,221.74,670.49,222.74z"/>
		<path class="st0" d="M521.11,244.37l-65.62,30.8c-2.13,1-5.59,1-7.72,0l0,0c-2.13-1-2.13-2.62,0-3.62l65.62-30.8
			c2.13-1,5.59-1,7.72,0l0,0C523.24,241.75,523.24,243.37,521.11,244.37z"/>
		<path class="st0" d="M561.95,225.2l-19.21,9.02c-2.13,1-5.59,1-7.72,0l0,0c-2.13-1-2.13-2.62,0-3.62l19.21-9.02
			c2.13-1,5.59-1,7.72,0l0,0C564.09,222.58,564.09,224.2,561.95,225.2z"/>
	</g>
</g>
<path class="st0" d="M323.53,245.81c2.96,1.39,2.96,3.65,0,5.04c-2.96,1.39-7.77,1.39-10.73,0c-2.96-1.39-2.96-3.65,0-5.04
	C315.76,244.42,320.56,244.42,323.53,245.81z"/>
<g>
	<polygon class="st1" points="486.13,219.98 486.13,222.87 386.33,254.44 386.33,251.56 	"/>
	<path class="st1" d="M486.13,204.36v2.89c-13.42,4.24,27.69-8.76-66.41,21.02l18.93-8.88L486.13,204.36z"/>
	<polygon class="st2" points="486.13,204.36 438.64,219.39 479.89,200.03 	"/>
	<path class="st3" d="M400.36,237.35v-2.89l85.11-39.93v2.89C466.97,206.09,438.55,219.44,400.36,237.35z"/>
	<path class="st4" d="M481.45,219.93l-93.45,29.57v-11.19l8.6-2.72v-0.01l3.77,1.77l19.35-9.08l61.73-19.53
		C481.45,211.33,481.45,217.32,481.45,219.93z"/>
	<path class="st4" d="M480.85,194.9l-79.71,37.4v-10.93l79.71-37.4C480.85,188.08,480.85,190.85,480.85,194.9z"/>
	<path class="st3" d="M400.36,221.74v-2.89l85.11-39.93v2.89C479.04,184.82,401.63,221.14,400.36,221.74z"/>
	<path class="st1" d="M396.59,235.58L396.59,235.58c-10.06,3.19-8.06,2.56-10.26,3.25v-2.89l6.58-2.08L396.59,235.58z"/>
	<polygon class="st2" points="392.92,233.86 386.33,235.94 363.5,220.06 	"/>
	<path class="st2" d="M387.99,249.5l93.45-29.57v-3.2l4.68,3.25l-99.79,31.58l-19.02-13.24c0.32-0.76,0.86-1.46,1.61-2.08
		L387.99,249.5z"/>
	<path class="st5" d="M387.99,238.31v11.19l-19.07-13.26c0.85-0.72,1.96-1.35,3.31-1.89c0-0.13,0-0.26,0-0.38
		c-3.01-2.09-6.02-4.19-9.03-6.28c-1.48,0.59-2.7,1.28-3.6,2.07c-0.19-0.16,0.12,0.09-17.04-11.85c-1.49-1.04-2.6-3.25-2.6-4.89v-4
		l10.8,5.06l35.58,24.76L387.99,238.31z"/>
	<path class="st6" d="M386.33,251.56v2.89l-19.39-13.49c-0.11-0.96,0.01-1.84,0.38-2.64L386.33,251.56z"/>
	<path class="st6" d="M386.33,235.94v2.89l-35.58-24.76l12.73,5.98C363.56,220.08,362.88,219.62,386.33,235.94z"/>
	<path class="st7" d="M372.24,233.96c-4.96,1.98-6.95,5.09-5.16,9.46l-9.03-6.28c-1.76-4.32,0.16-7.48,5.16-9.46
		C366.21,229.77,369.22,231.87,372.24,233.96z"/>
	<path class="st8" d="M367.08,243.42c-1.79-4.37,0.2-7.49,5.16-9.46c0,0.13,0,0.26,0,0.38c-4.84,1.94-6.35,4.91-4.68,8.86
		L367.08,243.42z"/>
	<path class="st5" d="M340.46,193.67c0.43,0.14-3.66-1.76,59.9,28.06l0.79-0.37v10.93l-57.46-26.95c-1.82-0.86-3.28-2.92-3.28-4.62
		C340.41,193.68,340.39,193.99,340.46,193.67z"/>
	<path class="st9" d="M340.46,193.67c-0.07,0.34-0.05,0-0.05,7.05c0,1.7,1.46,3.76,3.28,4.62l57.46,26.95l79.71-37.4v-2.53
		l4.61,2.16l-85.11,39.93L341,206.61c-1.82-0.85-3.29-2.9-3.29-4.62v-6.56c0-0.53,0.18-1.19,0.65-1.55
		C338.8,193.55,339.56,193.39,340.46,193.67z"/>
	<path class="st2" d="M339.96,209.01v4c0,1.65,1.1,3.85,2.6,4.89c19.75,13.73,16.78,11.64,17.04,11.85
		c-0.74,0.62-1.29,1.31-1.65,2.05c-0.08,0,0.01,0.01-18.56-12.9c-1.46-1.02-2.6-3.2-2.6-4.89c0-7.28-0.03-6.53,0.07-6.61
		C337.55,207.94,337.98,208.08,339.96,209.01z"/>
	<path class="st9" d="M335.59,189.37c91.36-42.87,85.18-40.03,85.68-40.09c0.53-0.05,1.05,0.01,1.75,0.34l62.44,29.3l-85.11,39.93
		c-66.56-31.23-62.76-29.55-63.58-29.64C336.38,189.17,335.94,189.21,335.59,189.37z"/>
	<path class="st10" d="M417.37,166.41l27.08,12.71c1.11,0.52,2.91,0.52,4.02,0l1.33-0.63c1.11-0.52,1.11-1.36,0-1.89l-27.08-12.71
		c-1.11-0.52-2.91-0.52-4.02,0l-1.33,0.63C416.26,165.04,416.26,165.89,417.37,166.41z"/>
	<path class="st6" d="M334.63,203.43c0,1.36,0.92,2.95,2.23,3.97c-0.1,0.08-0.07-0.46-0.07,6.61c0,1.69,1.13,3.87,2.6,4.89
		c18.87,13.12,18.48,12.9,18.56,12.9c-0.38,0.77-0.57,1.6-0.55,2.51c-0.08,0,0.27,0.2-20.44-14.21c-1.46-1.02-2.6-3.2-2.6-4.89
		v-12.34c0-0.39,0.06-0.82,0.27-1.18V203.43z"/>
	<path class="st11" d="M408.98,252.4c-1.99,0.63-3.86,1.21-5.73,1.81c-1.77,0.57-3.4,0.56-4.78-0.7c-1.36-1.24-2.93-1.33-4.73-0.64
		c-1.34,0.52-2.73,0.96-4.15,1.31c-0.95,0.24-3.26,0.27-3.26,0.27v-2.89c0,0,4.03-1.27,5.42-2.02c-1.19-0.08-3.76-0.03-3.76-0.03
		v-6.08c0,0-0.54-1.7-1.37-2.26c-7.59-5.23-15.17-10.48-22.69-15.78c-1.08-0.76-2.29-0.96-3.57-1.14c-2.75-0.39-5.49-0.87-8.25-1.13
		c-2.22-0.21-3.19-1.28-3.67-2.85c-0.38-1.24-0.8-2.48-1.06-3.73c-0.39-1.91-2.02-4.66-4.11-5.96c5.95,2.35,13.02,6.11,19.25,9.03
		c-1.46,0-2.4,0-3.83,0c9.28,6.52,27.64,19.23,27.64,19.23l0-2.89l6.58-2.09l1.21,0.61c0,0,3.9,1.81,6.07,2.81
		c0.11-1.09,0.19-1.92,0.27-2.77c1.16-0.62,2.61-1.26,4.09-2.05c-1.19-0.11-3.41-0.16-3.41-0.16s-0.05-3.46,0.08-4.99
		c0.11-1.34-0.59-1.82-1.93-2.44c-12.57-5.87-25.13-11.77-37.69-17.66c-4.84-2.27-9.68-4.54-14.54-6.79
		c-3.05-1.41-4.11-0.93-4.17,1.86c-0.02,0.77,0,1.53,0,2.46c-2.01,0.03-3.7-0.5-4.92-1.4c0,0-0.69-1.2-0.27-2.25
		c0,0-0.76-6.2-0.34-7c0.68-1.31,2.66-0.54,2.66-0.54c0.88,0.31,1.71,0.7,2.54,1.09c18.08,8.48,36.16,16.96,54.24,25.44
		c1.04,0.49,3.54,1.65,3.54,1.65v-2.89l85.11-39.93v2.89l-4.61,2.17v8.4l4.61,2.16v2.89l-3.5,1.66
		c11.79,5.72,23.87,10.98,35.73,16.75c-1.19,0.62-2.04,1.1-2.94,1.52c-24.67,11.56-49.34,23.11-74.02,34.66
		c-2.27,1.06-4.55,2.11-6.79,3.22c-1.76,0.87-3.48,0.77-5.21,0.04c-0.78-0.32-1.55-0.66-2.27-1.07c-1.32-0.75-2.62-0.64-3.93-0.03
		c-0.68,0.32-1.37,0.62-2.03,0.97c-1.9,1-3.79,0.88-5.68,0C412.86,254.23,410.91,253.31,408.98,252.4z"/>
	<path class="st12" d="M369.91,243.15c-1.05,0-1.98,0.28-2.83,0.28c-1.79-4.59,0.42-7.72,5.16-9.46c1.05,1.42,0.35,3.48,1.01,5.19
		c-1.13,0.35-2.15,0.67-3.33,1.05C369.91,241.09,369.91,242.04,369.91,243.15z"/>
	<path class="st12" d="M343.28,210.57c-2.75,1.47-1.76,3.82-1.33,6.82c-1.31-0.44-3.82-2.52-5.13-2.97c0-2.49,0.04-4.7,0.04-7.03
		C338.63,207.57,341.06,209.08,343.28,210.57z"/>
	<path class="st13" d="M335.28,189.54c0.4-0.29,0.98-0.39,1.49-0.34c0.82,0.09-2.96-1.58,63.58,29.64v2.89
		c-63.4-29.74-59.72-28.11-60.5-28.2c-0.52-0.06-1.1,0.04-1.49,0.34c-0.47,0.36-0.65,1.02-0.65,1.55v6.56
		c0,1.72,1.47,3.78,3.29,4.62l59.36,27.85v2.89c-1.71-0.8-56.33-26.43-62.44-29.3c-1.79-0.83-3.29-2.88-3.29-4.62
		c0-3.16,0-9.17,0-12.34C334.63,190.56,334.81,189.9,335.28,189.54z"/>
</g>
<path class="st0" d="M640.21,312.58c2.96,1.39,2.96,3.65,0,5.04c-2.96,1.39-7.77,1.39-10.73,0c-2.96-1.39-2.96-3.65,0-5.04
	C632.44,311.19,637.24,311.19,640.21,312.58z"/>
<g>
	<g>
		<linearGradient id="SVGID_1_" gradientUnits="userSpaceOnUse" x1="473.5157" y1="198.5575" x2="571.8051" y2="198.5575">
			<stop  offset="0" style="stop-color:#C4B8E9"/>
			<stop  offset="0.4166" style="stop-color:#B2CFDE"/>
			<stop  offset="1" style="stop-color:#FFCADE"/>
		</linearGradient>
		<path class="st14" d="M473.53,252.36c0.3,2.52,0.9,4.4,2.32,6.71c1.15,1.87,3.2,4.2,5.15,5.58c2.18,1.55,4.82,2.6,7.38,3.73
			c3.85,1.7,7.42,3.51,11.13,5.31c0.95,0.46,61.97,29.1,62.99,29.44c5.05,1.73,8.81-0.76,8.81-5.43
			c0.4-136.8,0.18-111.11,0.32-119.26c0.05-5.96,0.23-11.95,0.14-17.9c-0.05-3.96-0.19-7.88-0.09-11.87
			c0.05-1.66,0.14-3.35-0.09-4.98c-0.87-4.94-4.41-9.38-8.26-11.84c-1.58-1.02-3.39-1.81-5.2-2.6c-2.88-1.32-5.66-2.68-8.44-4
			c-9.58-4.56-19.12-8.79-31.82-14.85c-23.19-11.21-21.52-9.7-27.55-12.85c-4.17-2.19-9.74-5.73-13.82-3.32
			c-2.9,1.68-2.64,5.24-2.55,7.84c0.15,3.79-0.24,3.01-0.05,16.89C473.94,125.42,473.41,250.32,473.53,252.36z M532.82,122.32
			c0,0.08,0,0.19-0.05,0.26c-0.05,0.11-0.05,0.19-0.14,0.23c-0.05,0.08-0.09,0.11-0.19,0.15c-0.61,0.25,0.45,0.59-18.32-8.22
			c-0.14-0.08-0.23-0.15-0.32-0.23c-0.23-0.12-0.49-0.39-0.56-0.57c-0.48-0.58-0.37-0.94-0.37-2.11c0-0.31,0.06-0.55,0.37-0.68
			c0.13-0.11,0.38-0.09,0.56-0.04c0.09,0,0.23,0.04,0.32,0.11c2.74,1.33,17.41,8.08,17.77,8.37c0.3,0.25,0.51,0.34,0.74,0.9
			C532.9,120.83,532.82,121.46,532.82,122.32z"/>
		<g>
			<g>
				<path class="st15" d="M499.43,133.5l-13.73-6.44c-1.68-0.79-3.05-2.54-3.05-3.91l0,0c0-1.37,1.36-1.84,3.05-1.05l13.73,6.44
					c1.68,0.79,3.05,2.54,3.05,3.91l0,0C502.48,133.82,501.11,134.29,499.43,133.5z"/>
				<path class="st15" d="M499.43,140.45l-13.73-6.44c-1.68-0.79-3.05-2.54-3.05-3.91l0,0c0-1.37,1.36-1.84,3.05-1.05l13.73,6.44
					c1.68,0.79,3.05,2.54,3.05,3.91l0,0C502.48,140.78,501.11,141.24,499.43,140.45z"/>
			</g>
			<path class="st15" d="M555.39,148.5l-66.63-31.26c-3.47-1.63-6.27-5.23-6.27-8.04l0,0c0-2.82,2.81-3.78,6.27-2.15l66.63,31.26
				c3.47,1.63,6.27,5.23,6.27,8.04l0,0C561.66,149.17,558.85,150.13,555.39,148.5z"/>
		</g>
		<path class="st16" d="M514.35,111.35c18.62,8.73,17.85,8.12,18.28,9.16c0.09,0.11,0.14,0.23,0.14,0.34
			c0.05,0.11,0.05,0.23,0.05,0.34v0.9c-18.98-8.92-17.26-8.07-17.67-8.41c-0.43-0.35-0.79-0.91-0.79-1.47V111.35z"/>
		<path class="st17" d="M513.8,111.13c0.09,0,0.23,0.04,0.32,0.11l0.23,0.11c0,1.05-0.02,1.03,0.09,1.39
			c0.25,0.6,0.73,1.05,1.21,1.28l17.16,8.07v0.23c0,0.08,0,0.19-0.05,0.26c-0.05,0.11-0.05,0.19-0.14,0.23
			c-0.05,0.08-0.09,0.11-0.19,0.15c-0.23,0.09-0.15,0.08-0.56,0.08c-0.09-0.04-0.23-0.08-0.32-0.11
			c-17.82-8.36-18.05-8.3-18.32-8.97c-0.49-0.6-0.37-1.05-0.37-2.11c0-0.19,0.01-0.33,0.14-0.53
			C513.26,111.11,513.44,111.03,513.8,111.13z"/>
		<path class="st18" d="M484.25,92.32c-3.51-1.67-6.65-1.7-8.91-0.75c13.72-6.29,13.46-6.53,15.31-6.71
			c2.74-0.25,4.51,0.34,6.77,1.32l77.19,36.22c6.46,2.94,12.66,10.87,12.66,17.87c-0.45,162.96-0.34,152.8-0.56,154.35
			c-0.33,1.78-1.65,3.85-3.57,4.75c-16.57,7.67-12.74,6.1-11.97,5.47c1.81-1.43,2.5-3.96,2.55-5.99l0.37-152.43
			c0-6.4-5.34-14.38-12.66-17.87L484.25,92.32z"/>
		<path class="st19" d="M561.44,128.54l-77.19-36.22c-3.51-1.67-6.65-1.7-8.91-0.75c0,0.04-0.05,0.04-0.05,0.04
			c-2.68,0.97-3.76,4.18-3.76,6.67l-0.36,143.5l-0.01,0v8.93c0,6.34,5.15,14.23,12.62,17.87l77.23,36.22
			c6.54,3.11,12.55,1.01,12.71-5.96l0.37-152.43C574.1,140.04,568.8,132.04,561.44,128.54z M571.64,178.45
			c-0.14,7.75,0.07-16.92-0.32,119.26c0,4.66-3.76,7.16-8.81,5.43c-0.99-0.33-62.08-29-62.99-29.44c-3.71-1.81-7.28-3.62-11.13-5.31
			c-2.55-1.13-5.2-2.19-7.38-3.73c-1.94-1.37-4-3.71-5.15-5.58c-1.42-2.31-2.02-4.19-2.32-6.71c-0.11-1.89,0.02-1.08,0.04-7.79l0,0
			c0-88.93,0.36-119.12,0.32-125.6c-0.19-13.88,0.2-13.1,0.05-16.89c-0.07-2.12-0.26-4.42,0.97-6.33c0.88-1.26,2.07-1.93,3.25-2.15
			c3.66-0.99,8.93,2.26,12.15,3.96c3.39,1.77,7.05,3.28,10.62,4.86c8.47,3.72,14.28,6.91,33.86,15.91
			c20.71,9.59,18.18,8.57,23.33,10.93c3.61,1.58,5.99,2.7,8.63,5.43c1.74,1.86,2.77,3.43,3.62,5.16c1.55,3.46,1.4,5.26,1.3,8.82
			c-0.09,4,0.05,7.92,0.09,11.87C571.87,166.5,571.69,172.49,571.64,178.45z"/>
		<g>
			<path class="st15" d="M561.66,247.16c0,2.24-2.23,3.01-4.99,1.71l-68.9-32.33c-2.76-1.29-4.99-4.16-4.99-6.4v-31.3
				c0-2.24,2.23-3.01,4.99-1.71l68.9,32.33c2.76,1.29,4.99,4.16,4.99,6.4V247.16z"/>
			
				<ellipse transform="matrix(0.6609 -0.7505 0.7505 0.6609 17.2266 464.1388)" class="st20" cx="522.22" cy="213.01" rx="7.57" ry="13.17"/>
			<path class="st15" d="M527.84,214.93c0.4,0.38,0.65,0.84,0.65,1.21s-0.25,0.61-0.65,0.61h-7.4c-0.4,0-0.89-0.23-1.29-0.61
				c-0.4-0.38-0.65-0.84-0.65-1.21v-6.94c0-0.38,0.25-0.61,0.65-0.61c0.4,0,0.89,0.23,1.29,0.61L527.84,214.93z"/>
		</g>
		<g>
			<path class="st15" d="M561.66,289.97c0,2.24-2.23,3.01-4.99,1.71l-68.9-32.33c-2.76-1.29-4.99-4.16-4.99-6.4v-31.3
				c0-2.24,2.23-3.01,4.99-1.71l68.9,32.33c2.76,1.29,4.99,4.16,4.99,6.4V289.97z"/>
			<path class="st20" d="M533.3,261.01c0,4.97-4.96,6.68-11.08,3.81c-6.12-2.87-11.08-9.23-11.08-14.2s4.96-6.68,11.08-3.81
				C528.34,249.68,533.3,256.04,533.3,261.01z"/>
			<path class="st15" d="M527.84,257.74c0.4,0.38,0.65,0.84,0.65,1.21c0,0.38-0.25,0.61-0.65,0.61h-7.4c-0.4,0-0.89-0.23-1.29-0.61
				c-0.4-0.38-0.65-0.84-0.65-1.21v-6.94c0-0.38,0.25-0.61,0.65-0.61c0.4,0,0.89,0.23,1.29,0.61L527.84,257.74z"/>
		</g>
		<g>
			<path class="st15" d="M561.66,204.47c0,2.24-2.23,3.01-4.99,1.71l-68.9-32.33c-2.76-1.29-4.99-4.16-4.99-6.4V140.7
				c0-2.24,2.23-3.01,4.99-1.71l68.9,32.33c2.76,1.29,4.99,4.16,4.99,6.4V204.47z"/>
		</g>
		<path class="st20" d="M533.3,177.78c0,4.97-4.96,6.68-11.08,3.81c-6.12-2.87-11.08-9.23-11.08-14.2c0-4.97,4.96-6.68,11.08-3.81
			C528.34,166.45,533.3,172.81,533.3,177.78z"/>
		<path class="st15" d="M527.84,174.51c0.4,0.38,0.65,0.84,0.65,1.21c0,0.38-0.25,0.61-0.65,0.61h-7.4c-0.4,0-0.89-0.23-1.29-0.61
			c-0.4-0.38-0.65-0.84-0.65-1.21v-6.94c0-0.38,0.25-0.61,0.65-0.61c0.4,0,0.89,0.23,1.29,0.61L527.84,174.51z"/>
	</g>
	<path class="st11" d="M573.85,247.75l0.25-101.35c0,0,9.55,1.29,11.87-12.06c1.82,2.15,1.31,15.96,1.31,15.96l-0.28,97.86
		c0,0,17.36,0.29,26.5,0.17c8.3-0.11,15.74,1.61,22.79,4.95c0.09,0.04,29.23,13.5,54.26,25.45c3.31,1.58,7.21,2.7,9.46,6.11
		c-5.37,3.77-10.69,6.32-18.11,6.23c-22.44-0.27-44.9,0.04-67.34-0.19c-5.51-0.06-10.17,1.1-14.75,3.3
		c-8.46,4.06-17.05,7.95-25.5,12.03c-3.48,1.68-6.83,1.38-10.48-0.39c12.56,3.16,9.94-13.25,9.94-13.25L573.85,247.75z"/>
</g>
<g>
	<g>
		<path class="st21" d="M611.5,322.54v-8.5c0-1.18-1.01-2.6-2.26-3.19l58.68-27.53c1.25,0.59,2.26,2.01,2.26,3.19v8.5
			c0,0.65-0.31,1.03-0.66,1.19c-19.55,9.17-39.11,18.35-58.66,27.52C611.35,323.46,611.5,323.01,611.5,322.54z"/>
		<path class="st22" d="M667.92,283.32l-58.68,27.53l-4.86-2.28c-1.42-11.28-2.84-22.56-4.26-33.83l24.74-11.61L667.92,283.32z"/>
		<path class="st22" d="M610.61,323.82c-0.43,0.1-0.98-0.03-1.37-0.22l-3.16-1.48c-0.09-0.7-0.18-1.41-0.27-2.12
			c1.33,0.63,1.6,0.79,2.08,0.85c0.41,0.05,0.79-0.08,0.85-0.13c0.37-0.17,0.53-0.5,0.6-0.84c0.05-0.23,0.04,0.13,0.04-4.86
			c0-1.17-1-2.6-2.26-3.19l-2.48-1.16c-0.09-0.7-0.18-1.41-0.27-2.12l4.86,2.28c1.25,0.59,2.26,2.01,2.26,3.19v8.5
			c0,0.47-0.16,0.92-0.64,1.19C610.85,323.73,610.72,323.79,610.61,323.82z"/>
		<path class="st23" d="M609.35,319.89c-0.23-0.07-0.12-0.03-3.76-1.74c-0.32-2.49-0.63-4.98-0.94-7.47l2.48,1.16
			c1.26,0.59,2.26,2.02,2.26,3.19C609.38,319.92,609.4,319.66,609.35,319.89z"/>
		<path class="st24" d="M608.72,320.75c-0.53,0.22-1.08,0.11-1.6-0.13l-1.3-0.61h-0.01c-0.07-0.62-0.15-1.23-0.23-1.86
			c3.62,1.7,3.54,1.67,3.76,1.74c-0.07,0.34-0.23,0.67-0.6,0.84C608.74,320.74,608.73,320.74,608.72,320.75z"/>
		<path class="st25" d="M606.09,322.12c0.12,0.95,0.24,1.9,0.36,2.85c0.05,0.4-0.19,0.91-0.92,1.33l-9,5.17
			c-1.27,0.73-3.29,0.8-4.52,0.23l-5.91-47c0-1.26,0-2.53,0-3.79c0.03-0.35-0.27-0.65-0.61-0.87l0.02-0.02
			c1.23,0.58,3.25,0.5,4.52-0.23l9-5.17c0.7-0.4,0.98-0.88,0.92-1.33C599.99,273.3,602.43,293.65,606.09,322.12z"/>
		<path class="st26" d="M595.39,274.37c-0.12-0.09-0.27-0.18-0.41-0.25h-0.01l-0.2-1.64C595.7,272.92,596.02,273.69,595.39,274.37z"
			/>
		<path class="st23" d="M595.39,274.37c-0.31,0.36-0.34,0.32-5.39,3.22c-1.26,0.72-3.28,0.81-4.52,0.23l-37.92-17.79
			c7.72-4.43,6.28-3.61,7.81-4.48C598,275.54,595.19,274.21,595.39,274.37z"/>
		<polygon class="st26" points="594.98,274.13 555.37,255.55 554.22,256.21 553.85,253.29 594.78,272.49 		"/>
		<path class="st25" d="M586.09,284.7l5.91,47l-5.91-2.77C586.09,314.18,586.09,299.44,586.09,284.7z"/>
		<path class="st27" d="M586.09,335.97c0,0.33-0.24,0.74-0.94,1.07l-9.06,4.25c-0.89,0.41-2.31,0.58-3.6,0.3
			c0-18.09,0-36.18,0-54.27c0-0.24-0.12-0.48-0.29-0.66c-0.18-0.18-0.4-0.32-0.64-0.43c1.25,0.59,3.27,0.59,4.53,0
			c9.83-4.62,9.38-4.35,9.71-4.68c0.17-0.18,0.28-0.41,0.29-0.63C586.09,297.08,586.09,307.59,586.09,335.97z"/>
		<path class="st28" d="M581.82,280.7c0.09,0.3-0.06,0.74-0.57,1.08c-0.2-0.14,2.53,1.16-39.95-18.77l-1.31,0.62v-2.98l40.93,19.2
			C581.29,280.03,581.71,280.35,581.82,280.7z"/>
		<path class="st23" d="M576.09,284.24c-1.26,0.59-3.28,0.59-4.53,0l-37.74-17.71c7.03-3.3,5.75-2.7,7.48-3.51
			c42.47,19.92,39.75,18.63,39.95,18.77C581.02,281.93,581.14,281.86,576.09,284.24z"/>
		<path class="st29" d="M572.49,287.32c0,16.07,0,35.1,0,55.03c0,0.32-0.24,0.74-0.93,1.06l-9.06,4.25c-1.25,0.58-3.27,0.6-4.53,0
			v-55.06c1.26,0.6,3.28,0.58,4.53,0l9.06-4.25C572.02,288.13,572.49,287.76,572.49,287.32z"/>
		<path class="st3" d="M568.23,287.08c0.09,0.31-0.08,0.78-0.57,1.08c-0.2-0.14,2.53,1.16-39.95-18.77l-1.31,0.62v-2.98l40.93,19.2
			C567.7,286.41,568.12,286.73,568.23,287.08z"/>
		<path class="st23" d="M567.65,288.16c-0.21,0.15-0.05,0.05-5.16,2.45c-1.25,0.58-3.27,0.59-4.53,0l-37.75-17.71
			c7.03-3.3,5.75-2.7,7.48-3.51C570.16,289.31,567.45,288.02,567.65,288.16z"/>
		<polygon class="st3" points="557.96,292.61 557.96,347.66 514.91,327.47 514.91,272.41 		"/>
		<path class="st11" d="M559.73,348.22c0-18.47,0-36.75,0-55.13c2.8-0.23,4.92-1.7,7.28-2.75c1.96-0.88,2.6-3.22,4.55-4.11
			c0.6-0.28,1.77,0.18,2.85,0.29c0.62,0.06,1.35-0.32,1.98-0.57c0.7-0.28,1.35-0.63,2.02-0.95c0.62-0.29,1.25-0.56,1.86-0.86
			c1.83-0.9,3.64-1.82,5.47-2.7c0.28-0.14-0.61-1.33-0.26-1.39c0.04-0.25,1.36,0.69,1.4,0.43c0.12-0.06,0.23-0.15,0.34-0.15
			c1.66,0,2.94-0.71,4.21-1.46c2.73-1.59,5.51-3.6,8.5-5.33c0.21,1.47,0.39,3.22,0.56,4.54c0.77,6.01,1.54,12.02,2.3,18.04
			c0.1,0.79,0.21,1.8,0.28,2.59c0.08,1,0.5,1.48,1.68,2c3.7,1.64,7.35,3.36,10.97,5.1c1.66,0.8,3.22,1.73,5.08,2.74
			c16.26-7.55,32.35-15.18,49.23-23.02c0,1.83,0.32,3.33,0.19,4.78c-0.11,1.26,0.48,1.82,1.9,2.41c2.36,0.98,4.62,2.13,6.92,3.22
			c0.43,0.2,0.81,0.47,1.49,0.86c-16.7,7.84-33.17,15.57-49.84,23.4c0.49,0.32,0.79,0.56,1.15,0.73c5.05,2.38,10.1,4.75,15.15,7.13
			c0.76,0.36,1.82,0.6,1.74,1.51c-0.07,0.79-1.01,1.03-1.75,1.35c-2.64,1.13-5.32,2.19-7.91,3.4c-1.59,0.74-3.2,1.11-5.05,0.83
			c-0.11,0.53-0.06,1.08-0.35,1.45c-0.34,0.41-0.96,0.69-1.51,0.96c-2.18,1.05-4.38,2.05-6.56,3.09c-1.53,0.73-3.05,1.43-5.15,1.06
			c0.07,1.2-0.79,1.73-1.84,2.21c-2.66,1.21-5.29,2.46-7.91,3.73c-1.12,0.54-2.32,0.59-3.57,0.58c-15.06-0.01-30.12,0-45.18,0
			C561.24,348.22,560.55,348.22,559.73,348.22z"/>
		<path class="st30" d="M594.78,272.49l-40.93-19.2l2.11-1.21l43.05,20.2c1.16,0.54,1.35,1.59,0.02,2.35l-9,5.17
			c-1.27,0.73-3.29,0.81-4.52,0.23l-0.02,0.02c-0.23-0.16,2.77,1.27-43.02-20.22l2.1-1.2c4.36,2.04-1.88-0.88,40.93,19.2
			c1.24,0.58,3.26,0.49,4.52-0.23l4.79-2.75C596.1,274.09,595.95,273.04,594.78,272.49z"/>
		<path class="st13" d="M568.25,287.29c0.03-0.44-0.47-0.84-0.93-1.07l-40.93-19.2l2.12-0.99c46,21.58,43.35,20.27,43.69,20.63
			c0.61,0.66,0.21,1.29-0.64,1.7l-9.06,4.25c-1.25,0.58-3.27,0.6-4.53,0l-43.05-20.2l2.12-0.99c3.79,1.78-4.47-2.1,40.93,19.2
			c1.26,0.59,3.28,0.58,4.53,0c5.08-2.39,5.12-2.35,5.46-2.69C568.12,287.74,568.24,287.52,568.25,287.29z"/>
		<path class="st31" d="M585.48,280.04c0.33,0.22,0.63,0.53,0.61,0.87c-0.02,0.48-0.43,0.83-0.94,1.06l-9.06,4.25
			c-1.26,0.59-3.28,0.59-4.53,0l-43.05-20.19l2.12-1c26.24,12.34,40.84,19.16,40.93,19.2c1.25,0.59,3.27,0.59,4.53,0
			c4.76-2.23,4.93-2.3,5.16-2.45c0.35-0.23,0.58-0.53,0.59-0.88c0.03-0.44-0.47-0.84-0.93-1.06l-40.93-19.2l2.12-1
			C542.15,259.68,585.22,279.86,585.48,280.04z"/>
	</g>
	<path class="st21" d="M618.42,274.38l27.08,12.71c1.11,0.52,2.91,0.52,4.02,0l1.33-0.63c1.11-0.52,1.11-1.36,0-1.89l-27.08-12.71
		c-1.11-0.52-2.91-0.52-4.02,0l-1.33,0.63C617.31,273.01,617.31,273.86,618.42,274.38z"/>
	<path class="st32" d="M549.97,301.23l-27.08-12.7c-1.11-0.52-2.01-0.21-2.01,0.69v1.08c0,0.9,0.9,2.05,2.01,2.58l27.08,12.71
		c1.11,0.52,2.01,0.21,2.01-0.69v-1.08C551.97,302.9,551.08,301.75,549.97,301.23z"/>
	<path class="st32" d="M549.97,308.92l-27.08-12.71c-1.11-0.52-2.01-0.21-2.01,0.69v1.08c0,0.9,0.9,2.05,2.01,2.58l27.08,12.71
		c1.11,0.52,2.01,0.21,2.01-0.69v-1.08C551.97,310.59,551.08,309.44,549.97,308.92z"/>
</g>
<g>
	<g>
		<path class="st33" d="M461.4,155.18v4.98c-29.84,14-18.26,8.57-52.76,24.75v-4.99L461.4,155.18z"/>
		<path class="st34" d="M461.4,155.18l-52.76,24.75l-25.2-11.82c0.39-0.47,0.98-1.01,1.58-1.28c0.06-0.02,22.76-10.68,22.79-10.69
			c0.37-0.17,0.74-0.52,0.89-0.96c0.27-0.8-0.22-1.65-1.17-1.97c-0.67-0.23-1.42-0.12-1.83,0.1
			c-24.19,11.35-22.62,10.65-22.71,10.65c-1.28,0.62-2.31,1.5-3.08,2.5c-0.09-0.08,1.79,0.84-24.01-11.27l52.76-24.75L461.4,155.18z
			"/>
		<path class="st18" d="M436.98,186.14c0.05,1.25-0.28,2.5-0.88,3.59c0,0.01-0.01,0.01-0.01,0.01c-0.62,1.19-1.92,2.7-3.92,4.09
			c-11.17,7.91-36.59,7.85-47.54-0.37c0.02-0.36-0.03-0.49-0.03-0.56c-0.64-3.37-1.3-6.36-1.3-6.51c-0.1-0.48-0.39-0.92-0.88-1.24
			c0-4.18,0-8.37,0-12.55l26.24,12.31l28.33-13.29c0,4.93,0,9.86,0,14.78C436.98,186.32,436.98,186.23,436.98,186.14z"/>
		<path class="st19" d="M408.65,179.93v4.99l-26.24-12.31c0-2.19-0.05-2.3,0.14-2.88c0.18-0.58,0.5-1.13,0.9-1.61L408.65,179.93z"/>
		<path class="st35" d="M378.33,185.53c0-24.79,0,9.4,0-15.02c-0.03-2.3,1.84-5.21,4.67-6.57c0.09,0-1.36,0.64,22.71-10.65
			c-0.15,0.08,0.4-0.26,1.13-0.23c1.95,0.07,2.67,2.12,1.08,3.01c-0.52,0.3-22.77,10.62-23.34,11c-1.27,0.84-2.17,2.36-2.17,3.43
			c0,5.38,0,9.28,0,15.04c0,0.28-0.27,0.52-0.6,0.68C380.58,186.8,378.33,186.44,378.33,185.53z"/>
		<path class="st36" d="M378.33,185.56c0.02,0.31,0.3,0.53,0.64,0.68c1.4,0.61,3.44,0.09,3.44-0.69c0-0.09,0-0.3,0-0.4
			c0.26,0.17,0.46,0.37,0.61,0.59c0.16,0.25,0.27,0.57,0.27,0.66c0.31,1.29-3.21,2.04-5.12,1.04c-0.65-0.34-0.8-0.78-0.73-1.04
			c0-0.15,0.2-0.8,0.88-1.25C378.33,185.33,378.33,185.2,378.33,185.56z"/>
		<path class="st19" d="M378.33,170.69l-22.43-10.53v-4.98c25.74,12.08,23.92,11.19,24.01,11.27c-0.34,0.43-0.69,0.98-0.96,1.53
			C378.45,169.04,378.33,169.84,378.33,170.69z"/>
		<path class="st37" d="M377.68,187.09c1.28,1.34,5.58,0.93,5.62-0.55c0-0.12-0.24-1.29,1.27,6.3c0.01,0.02,0.01,0.04,0.01,0.06v0
			c0.38,1.63-1.42,3.3-4.63,3.13c-2.7-0.15-4.13-1.57-3.82-3.13c0-0.08,1.28-6.42,1.3-6.49
			C377.4,186.57,377.45,186.83,377.68,187.09z"/>
	</g>
	<path class="st11" d="M408.65,184.91c0,0,6.11,14.91,15.2,12.65l6.31,0.47l2.8-0.53l9-5.17c1.39-0.84,1.1-1.81-0.02-2.35l-3.79-1.8
		c-0.77-0.37-1.23-1.05-1.18-1.78l0,0v-14.78L408.65,184.91z"/>
</g>
<g>
	<path class="st38" d="M518.45,230.71c0,0.02,0,0.04,0,0.06c0,1.59-3.39,1.85-3.39,3.11c0,0.72,2.16,2.1,2.16,3.59
		c0,3.38-4.66,4.1-8.82,4.1c-0.68,0-1.35-0.02-1.99-0.03h0c-0.22-1.45-0.9-3.01-2.13-3.94c3.42-1.47,5.19-6.96,13.65-6.96
		C518.12,230.63,518.3,230.65,518.45,230.71z"/>
	<path class="st39" d="M441.37,234.16c1.3-0.84,2.84-1.48,4.51-1.94c0.13,0.8,0.4,1.55,0.79,2.14c0.91,0.21,1.85,0.3,2.8,0.3
		c2.41,0,4.87-0.57,7.11-1.23c0.16-0.52,0.28-1.04,0.36-1.57c2.94,0.71,5.22,1.7,6.92,2.65c2.78,1.55,6.09,2.4,9.46,2.38
		c8.66-0.06,18.09,2.81,24.07,1.58c1.87-0.39,3.64-1.06,5.48-1.55c0.53,0.15,1,0.38,1.4,0.69c1.24,0.93,1.91,2.49,2.13,3.94
		c0.05,0.3,0.07,0.59,0.08,0.86c-11.49,5.87-23.91,3.94-34.27,6.52c-2.44,0.61-3.96,2.59-3.62,4.65c1.58,9.53,4.94,20.42,0.82,23.63
		c-0.01,0.01-0.03,0.02-0.04,0.02c-3.64,2.34-8.84,3.7-16.19,3.7c-6.85,0-11.55-4.15-13.55-9.33v0c-0.2-0.53-0.38-1.08-0.53-1.63
		c0.47-1.47,1.17-4.18,1.54-7.15c0.16-1.25,0.25-2.55,0.25-3.81c0-8.06-2.55-14.35-2.55-18.69c0-1.48,0.24-2.99,0.94-4.2
		C439.76,235.3,440.43,234.63,441.37,234.16z"/>
	<path class="st19" d="M475.7,330.64c2.56,0,4.76,1.67,4.76,3.67c0,4.45-12.5,9.44-17.76,9.44c-3.73,0-4.52-2.64-4.52-5.68
		c0-0.89,0.08-1.78,0.14-2.67c-0.14-2.24,2.21-2.54,2.31-3.04c0.76,0.41-0.43,2.09,0.4,2.09c2.54,0,4.37-1.73,6.02-3.59
		c1.14,1.2,1.34,2.33,1.23,3.77C470.38,332.75,473.48,330.64,475.7,330.64z"/>
	<path class="st36" d="M444.12,320.5c-0.3,1-0.58,1.91-0.82,2.7c-0.22,0.71-0.66,1.35-1.3,1.87c-0.56,0.46-1.19,0.98-1.31,0.98
		c-2.17,0-4.06,1.75-4.05-4.25h0c0.57-3.25,1.55-47.45,3.01-50.21c2,5.19,6.7,9.33,13.55,9.33c7.35,0,12.55-1.36,16.19-3.7l0,0
		c0.46,2.24,0.63,4.45,0.63,6.68c0,0.13-2.21,40.69-2.71,47.89c-0.47,1.56-1.42,2.59-4.09,3.35c-1.25,0.35-2.02,0.26-2.59,0.02
		c-0.83-0.35-1.43-1.05-1.39-1.8c0.38-7.33-3.46-38.84-7.23-44.12C449.5,295.74,446.75,311.86,444.12,320.5z"/>
	<path class="st18" d="M457.07,230.82c-0.03,0.35-0.06,0.69-0.12,1.03c-0.08,0.53-0.2,1.05-0.36,1.57c-2.24,0.66-4.7,1.23-7.11,1.23
		c-0.95,0-1.89-0.09-2.8-0.3c-0.39-0.59-0.66-1.34-0.79-2.14c-0.06-0.36-0.09-0.74-0.09-1.11c0-1.36,0.42-2.7,1.35-3.46
		c0.27,0.46,0.61,0.86,1.01,1.21v0c1.75,1.53,4.58,2.01,7.26,2.01c0.09,0,0.18,0,0.28,0C456.15,230.87,456.61,230.85,457.07,230.82z
		"/>
	<path class="st38" d="M455.99,229.59c-0.13,0.42-0.23,0.85-0.31,1.28c-0.09,0-0.18,0-0.28,0c-2.68,0-5.51-0.48-7.26-2.01v0
		c0.03-0.63,0.04-1.26,0.05-1.89c1.18,0.24,2.36,0.13,3.61,0.46c0.81,0.54,1.84,0.92,2.92,1.1
		C455.15,228.89,455.57,229.24,455.99,229.59z"/>
	<path class="st19" d="M443.55,322.38c0.18-0.58,0.37-1.2,0.57-1.87c1.66-1.02,3.59-1.74,5.43-1.74c2.26,0,4.15,1.04,4.15,3.01
		c0,6.52-12.33,11.58-15.84,11.58c-0.03,0-0.06,0-0.09,0c-1.43-0.27-2.54-1.18-2.54-2.6c0-3,0.73-5.11,1.4-8.95h0
		C437.1,325.82,443.15,323.68,443.55,322.38z"/>
	<path class="st40" d="M440.9,259c0,1.27-0.1,2.56-0.25,3.81h0c-3.33-4-5.44-9.93-5.44-15.52c0-4.26,1.23-8.33,4.09-11.19
		c-0.7,1.22-0.94,2.72-0.94,4.2C438.35,244.65,440.9,250.94,440.9,259z"/>
	<path class="st41" d="M465.84,208.71c0.53,1.4,0.38,2.8-1.68,3.31c-0.01,0-0.02,0-0.02,0.01c-0.04,0.01-0.09,0.02-0.13,0.03
		c-2.05,0.46-2.49,2.44-3.79,2.77c-6.62,1.64,3.01,11.4-5.8,13.59c-0.46,0.11-0.95,0.19-1.43,0.23c-1.1,0.08-2.23-0.04-3.19-0.36
		c-1.31-0.02-2.4,0.37-3.61,0.42c-0.47,0.02-0.97-0.01-1.5-0.14c-4.27-1.04-6.94-3.85-8.21-7.23c-1.41-3.75-1.5-8.85,1.48-12.97
		c1.21-1.68,2.93-3.21,5.27-4.42c1.4-0.72,3.02-1.33,4.88-1.79C455.14,200.39,463.81,203.3,465.84,208.71z"/>
	<path class="st38" d="M464.01,212.05c0.22,0.44,0.41,0.88,0.58,1.34c1.64,4.38,1.66,14.55-4.42,16.06c-1.49,0.37-3.33,0.31-5.6-0.2
		c0,0.03,0,0.07,0.01,0.1c-0.53-0.24-1.06-0.48-1.59-0.71c0.49-0.04,0.97-0.11,1.43-0.23c8.81-2.19-0.82-11.95,5.8-13.59
		C461.52,214.49,461.96,212.51,464.01,212.05z"/>
</g>
<g>
	<path class="st12" d="M629.27,280.95c4.66,2.19,4.66,5.73,0,7.92c-4.66,2.19-12.21,2.19-16.87,0c-4.66-2.19-4.66-5.73,0-7.92
		S624.61,278.76,629.27,280.95z"/>
	<g>
		<g>
			<path d="M631.31,196.77C631.31,196.77,631.31,196.77,631.31,196.77c-0.19-0.09-0.39-0.18-0.6-0.27c-0.01,0-0.01-0.01-0.01-0.01
				c0-0.01,0.01-0.01,0.02,0l0,0c0.08,0.04,0.15,0.06,0.59,0.27c0,0,0,0,0,0c0.01,0,0.01,0.01,0,0.01
				C631.32,196.77,631.32,196.77,631.31,196.77z"/>
		</g>
		<path class="st42" d="M612.45,241.11c-1.03-0.67-1.84-1.59-1.84-2.67c0-1.22,0-2.43,0-3.65c0,0.63,0.28,1.24,0.76,1.78
			c2.7,3.01,11.02,3.73,15.87,1.46c1.51-0.71,2.85-1.82,2.85-3.23h0c0,1.22,0,2.43,0,3.65c0,1.41-1.36,2.53-2.85,3.23
			C622.92,243.7,615.89,243.35,612.45,241.11z"/>
		<path class="st43" d="M611.53,235.78L611.53,235.78c0.2,0.37,0.49,0.7,0.82,1c2.89,2.52,10.18,3.03,14.51,1
			c0.97-0.46,1.91-1.11,2.37-1.94c0.05-0.09,0.29-0.59,0.83-1.38l0,0c0.24,1.54-1.17,2.79-2.83,3.57
			c-4.84,2.27-13.18,1.55-15.87-1.46c-0.59-0.66-0.89-1.42-0.71-2.23l0,0C611,234.81,611.29,235.29,611.53,235.78z"/>
		<path class="st43" d="M626.04,248.57c-4.22,2.49-11.27,2.07-13.29,0.02c-0.82-0.84-0.62-1.75,0.35-2.47
			c2.42,1.8,8.98,2.01,12.94-0.33c0.83-0.49,1.55-1.11,1.97-1.84C629.04,245.72,627.99,247.42,626.04,248.57z"/>
		<path class="st43" d="M612.69,250.81c0.13-0.18,0.32-0.37,0.36-0.41c2.41,1.86,9.05,2.04,12.99-0.29
			c0.84-0.49,1.55-1.12,1.97-1.84c1.03,1.77-0.05,3.48-1.97,4.61c-2.65,1.56-6.76,2.07-9.92,1.48c-1.67-0.31-3.78-1.12-3.88-2.45
			c0,0,0,0,0,0C612.21,251.53,612.37,251.15,612.69,250.81z"/>
		<g>
			<path d="M628.12,253.09C628.12,253.09,628.11,253.09,628.12,253.09c-0.01,0-0.01-0.01-0.01-0.01l0,0
				c0.22-0.35,0.29-0.69,0.29-1.07c0-0.01,0.01-0.01,0.01-0.01c0,0,0,0,0,0c0.01,0,0.01,0,0.01,0.01c0.01,0.38-0.1,0.75-0.3,1.08
				c0,0,0,0,0,0l0,0C628.13,253.09,628.12,253.09,628.12,253.09z"/>
		</g>
		<g>
			<path d="M628.41,252.07C628.41,252.07,628.41,252.07,628.41,252.07c-0.01,0-0.01,0-0.01-0.01h0c0-0.05,0-0.07,0-0.11
				c0-0.01,0-0.01,0.01-0.01c0.02,0,0.01,0.01,0.01,0.01c0,0.05,0,0.07,0,0.12l0,0C628.42,252.06,628.42,252.07,628.41,252.07
				C628.42,252.07,628.42,252.07,628.41,252.07z"/>
		</g>
		<path class="st42" d="M612.24,249.05L612.24,249.05c0-0.51,0-1.03,0-1.54c0,2.68,8.61,4.12,13.81,1.06
			c1.39-0.82,2.31-1.92,2.37-3.11c0,0.48,0,0.95,0,1.43h0c0,1.32-1.04,2.44-2.37,3.23c-3.96,2.33-10.59,2.14-12.99,0.29
			C612.58,250.03,612.24,249.58,612.24,249.05z"/>
		<path class="st42" d="M612.24,244.73c0-0.51,0-1.03,0-1.55c0,0.61,0.47,1.21,1.34,1.69c2.8,1.56,8.83,1.51,12.46-0.63
			c1.33-0.79,2.37-1.9,2.37-3.22h0c0,0.51,0,1.03,0,1.54c0,1.33-1.04,2.44-2.37,3.23c-3.93,2.32-10.5,2.14-12.94,0.33
			C612.61,245.75,612.24,245.28,612.24,244.73z"/>
		<path class="st43" d="M626.04,244.25c-3.63,2.14-9.66,2.19-12.46,0.63c-1.53-0.85-1.84-2.07-0.48-3.08
			c1.92,1.43,5.71,1.61,8.45,1.18c2.38-0.14,5.06-0.73,6.85-1.96l0.01,0.01C628.41,242.36,627.36,243.47,626.04,244.25z"/>
		<g>
			<path d="M627.93,253.36C627.93,253.36,627.92,253.36,627.93,253.36c-0.01,0-0.01-0.01-0.01-0.02c0,0,0,0,0,0
				c0.04-0.05,0.08-0.11,0.12-0.17c0,0,0,0,0,0c0-0.01,0.01-0.01,0.02,0c0,0,0.01,0.01,0.01,0.01c0,0,0,0,0,0
				c-0.02,0.03-0.1,0.14-0.13,0.18C627.94,253.36,627.93,253.36,627.93,253.36z"/>
		</g>
		<g>
			<path d="M627.35,253.95C627.35,253.95,627.34,253.95,627.35,253.95c-0.01-0.01-0.01-0.01-0.01-0.02
				c0.03-0.03,0.06-0.05,0.09-0.07c0,0,0.01,0,0.02,0c0.01,0,0.01,0.01,0,0.01l0,0c0,0,0,0,0,0
				C627.42,253.89,627.41,253.91,627.35,253.95C627.36,253.95,627.36,253.95,627.35,253.95L627.35,253.95
				C627.35,253.95,627.35,253.95,627.35,253.95z"/>
		</g>
		<g>
			<path d="M627.25,254.03C627.25,254.03,627.25,254.02,627.25,254.03c-0.01-0.01-0.01-0.01-0.01-0.02
				c0.03-0.02,0.06-0.05,0.09-0.07h0c0,0,0,0,0,0c0,0,0,0,0,0c0,0,0,0,0,0c0.01,0,0.01,0,0.02,0c0,0,0,0,0,0.01c0,0,0,0.01,0,0.01
				C627.23,254.05,627.27,254.01,627.25,254.03L627.25,254.03C627.26,254.02,627.26,254.02,627.25,254.03
				C627.26,254.02,627.26,254.03,627.25,254.03z"/>
		</g>
		<g>
			<path d="M626.84,254.32c0,0-0.01,0-0.01,0c0,0,0,0,0-0.01c0,0,0-0.01,0.01-0.01c0.11-0.07,0.21-0.14,0.31-0.21
				c0.01,0,0.01,0,0.02,0c0,0,0,0,0,0.01c0,0,0,0.01,0,0.01C627.06,254.17,626.96,254.24,626.84,254.32
				C626.85,254.31,626.84,254.32,626.84,254.32z"/>
		</g>
		<g>
			<path d="M626.04,254.75c0,0-0.01,0-0.01-0.01c0,0,0,0,0-0.01c0,0,0-0.01,0.01-0.01c0.03-0.01,0.13-0.06,0.23-0.11
				c0.01,0,0.01,0,0.02,0c0,0,0,0.01,0,0.01C626.21,254.67,626.14,254.71,626.04,254.75C626.05,254.75,626.05,254.75,626.04,254.75z
				"/>
		</g>
		<linearGradient id="XMLID_3_" gradientUnits="userSpaceOnUse" x1="620.0702" y1="207.7658" x2="620.4286" y2="241.1857">
			<stop  offset="0" style="stop-color:#EDE582"/>
			<stop  offset="1" style="stop-color:#ECC057"/>
		</linearGradient>
		<path id="XMLID_1_" class="st44" d="M643.68,212.71c-0.38-11.98-17.46-23.25-33.87-16.15c-6.77,2.93-12.02,8.41-13.06,14.42
			c-0.64,3.72,0.41,7.25,2.56,10.62c3.85,6.03,10.09,9.91,12.21,14.19l0,0c0.2,0.37,0.48,0.7,0.82,1c2.89,2.52,10.18,3.03,14.51,1
			c0.97-0.46,1.91-1.11,2.37-1.94c0.05-0.09,0.29-0.59,0.83-1.38C633.7,229.17,643.99,222.43,643.68,212.71z"/>
		<path class="st43" d="M621.56,242.98c-2.41,0.38-5.38,0.28-7.46-0.62c-0.66-0.29-1.31-0.7-1.65-1.24
			C614.79,242.64,618.49,243.15,621.56,242.98z"/>
		<path class="st43" d="M627.03,254.17c0.08-0.05,0.16-0.11,0.23-0.17c-0.4,0.35-2.08,1.76-2.8,2.35c-1.81,1.52-6.48,1.52-8.29,0
			c-0.12-0.1-0.23-0.19-0.35-0.29c-0.78-0.66-1.57-1.32-2.36-1.98c-0.04-0.03-0.07-0.06-0.11-0.09c0.4,0.32,0.87,0.59,1.42,0.83
			c0.35,0.16,0.72,0.29,1.11,0.41c0.1,0.03,0.2,0.06,0.3,0.09c0.06,0.02,0.12,0.04,0.19,0.06c0.02,0.01,0.04,0.01,0.07,0.01
			c0.01,0.01,0.04,0.01,0.05,0.01c0.13,0.04,0.25,0.06,0.38,0.09c0.08,0.02,0.16,0.04,0.24,0.05c0.08,0.02,0.16,0.04,0.24,0.05
			c0.28,0.05,0.57,0.09,0.87,0.13c0.1,0.02,0.21,0.03,0.32,0.04c0.19,0.02,0.38,0.04,0.57,0.05c0.14,0.01,0.28,0.02,0.43,0.03
			c0.06,0,0.11,0.01,0.17,0.01h0.04c0.21,0.01,0.41,0.01,0.62,0.01c0.84,0,1.68-0.06,2.49-0.18c0.17-0.02,0.33-0.05,0.48-0.08
			c0.03,0,0.05-0.01,0.07-0.01c0.3-0.05,0.59-0.12,0.86-0.19c0.91-0.24,1.74-0.57,2.44-0.99
			C626.82,254.32,626.93,254.25,627.03,254.17z"/>
		<path class="st42" d="M628.41,249.74v2.32c0,0.69-0.39,1.3-0.98,1.81l-0.09,0.07c-0.02,0.02-0.05,0.05-0.08,0.06
			c-0.07,0.06-0.15,0.11-0.23,0.17c-0.11,0.08-0.22,0.15-0.33,0.22c-0.69,0.43-1.52,0.76-2.44,0.99c-0.27,0.08-0.56,0.14-0.86,0.19
			c-0.02,0.01-0.04,0.01-0.07,0.01c-0.16,0.03-0.32,0.06-0.48,0.08c-0.81,0.12-1.65,0.18-2.49,0.18c-0.21,0-0.42-0.01-0.62-0.01
			h-0.04c-0.09-0.01-0.17-0.01-0.25-0.02c-0.12,0-0.23-0.01-0.34-0.02c-0.19-0.01-0.38-0.03-0.57-0.05
			c-0.11-0.01-0.22-0.02-0.32-0.04c-0.3-0.04-0.59-0.08-0.87-0.13c-0.16-0.03-0.32-0.06-0.48-0.1c-0.12-0.02-0.25-0.05-0.38-0.09
			c-0.01,0-0.04-0.01-0.05-0.01c-0.02,0-0.04-0.01-0.07-0.01c-0.57-0.15-1.11-0.32-1.59-0.54c-0.5-0.22-0.95-0.47-1.32-0.75
			c-0.04-0.03-0.07-0.06-0.11-0.09c0,0,0.01,0.01,0.01,0.01c-0.34-0.28-0.63-0.58-0.84-0.91c-0.24-0.41-0.32-0.78-0.3-1.16
			c0.01,0.05,0.01,0.1,0.02,0.15c0.01,0.05,0.02,0.09,0.04,0.14c0.01,0.05,0.03,0.1,0.05,0.14c0.02,0.05,0.04,0.09,0.07,0.14
			c0.02,0.05,0.05,0.09,0.08,0.14c0.03,0.04,0.07,0.09,0.1,0.13c0.04,0.04,0.07,0.09,0.12,0.13c0.08,0.08,0.17,0.16,0.27,0.24
			c0.05,0.04,0.1,0.08,0.16,0.12c0.11,0.08,0.22,0.15,0.35,0.22c0.18,0.11,0.39,0.21,0.61,0.3c0.07,0.03,0.15,0.06,0.22,0.09
			c0.08,0.04,0.16,0.06,0.24,0.09c0.96,0.33,2.15,0.56,3.43,0.63c0.09,0.01,0.18,0.01,0.27,0.02c0.35,0.01,0.7,0.02,1.06,0.01
			c0.12,0,0.25-0.01,0.38-0.01c0.49-0.02,0.98-0.06,1.48-0.13c0.06,0,0.11-0.01,0.16-0.02c0.12-0.02,0.25-0.04,0.36-0.06
			c0.01,0,0.01,0,0.01,0c1.09-0.18,2.17-0.48,3.16-0.91c0.26-0.11,0.52-0.23,0.77-0.36c0.13-0.07,0.26-0.14,0.39-0.22
			c0.62-0.37,1.15-0.79,1.55-1.26c0.09-0.11,0.19-0.23,0.27-0.35c0.07-0.09,0.12-0.18,0.17-0.28c0.04-0.07,0.08-0.14,0.11-0.21
			c0.04-0.07,0.07-0.15,0.09-0.22c0.03-0.08,0.06-0.15,0.08-0.23c0.02-0.07,0.04-0.14,0.05-0.21c0.01-0.03,0.01-0.05,0.01-0.08
			C628.4,249.95,628.41,249.84,628.41,249.74z"/>
		<path class="st45" d="M625.79,217.93c-0.14,0.28-0.72,0.27-1.02,0.03c-0.17-0.14-0.2-0.28-0.15-0.37
			c0.12-0.29,0.72-0.28,1.03-0.04C625.81,217.68,625.85,217.82,625.79,217.93z"/>
		<path class="st46" d="M622.02,226.81c-0.13,0.27-0.92,0.3-1.19,0.04c-0.06-0.06-0.08-0.13-0.05-0.19
			c0.01-0.02,3.83-9.03,3.84-9.05c-0.1,0.3,0.43,0.6,0.87,0.52c0.15-0.03,0.26-0.1,0.3-0.19
			C624.91,219.95,622.04,226.81,622.02,226.81z"/>
		<path class="st47" d="M622.02,226.81c0.21-0.48,0.41-0.97,0.62-1.45c0.98,0.56,0.86,1.37-0.19,1.86c-1.33,0.62-3.52,0.51-4.54-0.2
			c-0.9-0.63-0.54-1.41,0.54-1.84c0.18,0.6,0.16,0.64,0.33,0.73c0.41,0.22,1.17,0.09,1.11-0.2c-0.08-0.27-0.16-0.54-0.25-0.82
			c0.63-0.07,1.27-0.05,1.85,0.07c-0.01,0.03-0.7,1.67-0.72,1.7c-0.12,0.29,0.64,0.49,1.07,0.3
			C621.92,226.92,621.99,226.87,622.02,226.81L622.02,226.81z"/>
		<path class="st48" d="M623,226.86c0.18-0.17,0.31-0.38,0.31-0.61h0c0,0.5,0,3.59,0,4.21c0,0.42-0.4,0.76-0.87,0.98
			c-1.86,0.87-5.05,0.25-5.05-0.98c0-0.48,0-3.68,0-4.21h0c0,0.31,0.21,0.57,0.5,0.77C619.16,227.9,622.01,227.8,623,226.86z"/>
		<path class="st49" d="M623.31,226.91c0,1.18,0,2.37,0,3.55c0,0.42-0.4,0.76-0.87,0.98c-1.81,0.85-5.05,0.28-5.05-0.98
			c0-1.19,0-2.37,0-3.56c-5.45,0.99-6.94,4.29-2.8,6.23c3.14,1.47,8.27,1.49,11.46,0C630.2,231.19,628.69,227.91,623.31,226.91z"/>
		<path class="st45" d="M616.04,213.1c-0.01,0.03-0.04,0.05-0.07,0.07c-0.34,0.23-1.21,0.3-1.12,0.07c0.01-0.03,0.04-0.05,0.07-0.07
			C615.26,212.93,616.13,212.87,616.04,213.1z"/>
		<path class="st46" d="M616.04,213.05L616.04,213.05c1.19,3.9,3.62,11.93,3.84,12.66c0.06,0.29-0.7,0.42-1.11,0.2
			c-0.08-0.04-0.14-0.1-0.16-0.17c-0.01-0.02-3.8-12.45-3.78-12.45c0.05,0.17,0.81,0.1,1.13-0.12
			C616.01,213.14,616.06,213.1,616.04,213.05z"/>
		<path class="st50" d="M628.43,230.45c0,4,0,3.55,0,3.63c-0.05,0.94-0.84,1.88-2.38,2.6c-3.17,1.49-8.31,1.48-11.48,0
			c-1.58-0.74-2.38-1.72-2.38-2.69v-3.54c0,0.97,0.79,1.95,2.38,2.69c3.16,1.48,8.31,1.49,11.48,0
			C627.64,232.4,628.43,231.42,628.43,230.45z"/>
		<path class="st51" d="M615.15,209.12c-0.66,0.99-2,2.97-3.09,3.63c-1.43,0.86-2.14-0.66-2.32-2.11c-0.53-4.35,2.98-9.16,6.84-10.8
			c0.85-0.36,2-0.63,2.42,0.07C619.95,201.55,616.17,207.57,615.15,209.12z"/>
		<g>
			<path class="st52" d="M625.14,218.11C625.14,218.1,625.13,218.1,625.14,218.11L625.14,218.11z"/>
			<path class="st52" d="M619.37,227.09c0.01-0.01-0.08-0.16-0.19-0.33c-0.47-0.75-0.79-1.55-0.82-1.55c-0.01,0-0.06,0.05-0.13,0.12
				c-0.52,0.53-0.28,1.08,0.39,1.47C618.79,226.89,619.34,227.11,619.37,227.09z"/>
			<path class="st52" d="M630,235.43c0,0.63-0.01,1.67-0.01,3.42c-0.3,0.96-0.53,1.26-1.26,1.91c0,0.01-0.01,0.01-0.01,0.01
				c-0.09,0.09-0.2,0.18-0.3,0.28c-0.01,0.01-0.01,0.01-0.02,0.02c0,0.1,0,0.19-0.01,0.28c-0.01,1.2-0.01,1.62-0.08,1.94
				c-0.02,0.08-0.04,0.14-0.07,0.22c-0.01,0.03-0.02,0.06-0.04,0.1c-0.03,0.07-0.07,0.15-0.12,0.24c-0.01,0.04-0.03,0.08-0.05,0.12
				c0,0.01-0.01,0.01-0.01,0.02c0.31,0.67,0.35,0.66,0.36,1.79v0.22c0.02,1.53-0.03,1.53-0.36,2.28v0.01
				c0.3,0.66,0.36,0.73,0.37,1.73c0.01,0.01,0.01,0.02,0,0.04c0.01,0.35,0.01,0.8,0.01,1.43h0.02v0.58c0,0.69-0.39,1.3-0.98,1.81
				l-0.09,0.07c-0.02,0.02-0.05,0.05-0.08,0.06c-0.4,0.35-2.08,1.76-2.8,2.35c-1.81,1.52-6.48,1.52-8.29,0
				c-0.12-0.1-0.23-0.19-0.35-0.29c-0.03-0.08-0.04-0.15-0.04-0.19c-0.01-0.17-0.04-0.18-0.59-0.67c-0.17-0.15-0.31-0.28-0.4-0.36
				c-0.01-0.01-0.01-0.01-0.01-0.02c-0.07-0.06-0.1-0.09-0.1-0.09c0.41,0.21,0.81,0.37,1.21,0.51c0.1,0.03,0.2,0.06,0.3,0.09
				c0.09,0.03,0.17,0.05,0.25,0.07c0.01,0.01,0.04,0.01,0.05,0.01c0.13,0.04,0.25,0.06,0.38,0.09c0.08,0.02,0.16,0.04,0.24,0.05
				c0.74,0.15,1.51,0.22,2.33,0.29c0.03,0.01,0.06,0.01,0.09,0.01c0.05,0,0.11,0.01,0.17,0.01v-0.01c0-0.42,0.01-0.83,0.01-1.25
				v-0.01c0.02,0,0.48-0.03,0.95-0.06c0.06-0.01,0.12-0.01,0.2-0.02c0.12-0.01,0.23-0.02,0.34-0.04c0.06,0,0.11-0.01,0.16-0.02
				c0.17-0.02,0.3-0.04,0.36-0.06c0.01,0,0.01,0,0.01,0c0.01-0.01,0.01-0.01,0.01-0.01c0.01-0.01,0.01-0.01,0-0.01c0,0,0,0-0.01,0
				c-0.03-0.01-0.1-0.01-0.2-0.02c-0.98,0-2.31-0.2-3.24-0.48c-1.73-0.53-3.13-1.22-3.51-2.07c-0.08-0.18-0.13-0.49-0.09-0.57
				c0-0.01,0-0.01,0.01-0.02c0.01-0.01,0.12,0.02,0.24,0.07c0.12,0.05,0.25,0.1,0.4,0.14c0.4,0.12,0.87,0.21,1.36,0.26
				c0.08,0.01,0.16,0.02,0.24,0.03c0.76,0.08,1.55,0.11,2.23,0.11c0.06,0,0.13,0.01,0.19,0c0.12,0.01,0.25,0.01,0.36,0.01v-1.55
				c1.53-0.07,1.82-0.16,1.99-0.16c0.01,0,0.03-0.01,0.03-0.02c0-0.01-0.02-0.01-0.06-0.01c-0.01-0.01-0.04-0.01-0.06-0.01
				c-0.1-0.01-0.27-0.02-0.46-0.03c-1.3-0.05-2.64-0.33-3.79-0.8c-1.51-0.62-2.61-1.32-2.77-2.11c-0.03-0.15-0.03-0.23,0.02-0.25
				c0,0,0,0,0.01,0c0.06-0.02,0.17,0.02,0.36,0.1c0.06,0.02,0.12,0.05,0.19,0.07c0.01,0,0.01,0,0.01,0
				c1.32,0.45,3.18,0.48,4.52,0.48v-0.04c0-0.15-0.01-0.18-0.31-0.48c-0.32-0.32-1.06-0.99-1.16-1.06c-0.03-0.02-0.2-0.08-0.37-0.15
				c-1.26-0.48-2.38-1.37-2.83-2.28c-0.16-0.32-0.33-0.58-0.3-0.74c0.01-0.08,0.01-0.14-0.01-0.14c-0.03,0-0.16-0.06-0.31-0.15
				c-0.22-0.12-0.48-0.29-0.61-0.4c-0.2-0.16-0.46-0.42-0.51-0.51c-0.01-0.03,0-0.04,0.05-0.01c0.09,0.05,0.2,0.11,0.3,0.16
				c0.14,0.06,0.3,0.14,0.46,0.2c0.14,0.06,0.28,0.11,0.43,0.16c0.42,0.15,0.87,0.28,1.35,0.39c0,0,0,0,0.01,0
				c0.69,0.16,1.39,0.28,2.08,0.37c0.12,0.02,0.25,0.03,0.37,0.04c0.01,0.01,0.03,0.01,0.04,0.01c0.4,0.05,0.79,0.08,1.15,0.11V243
				c0-0.66,0.01-2.71,0.01-3.66v-0.31c2.49,0.03,3.61,0.06,6.29-0.82c0.21-0.06,0.64-0.21,0.47-0.18c-0.01,0.01-0.04,0.01-0.09,0.02
				c-0.02,0.01-0.04,0.02-0.07,0.02c-0.14,0.04-0.35,0.09-0.55,0.11c-0.86,0.08-5.8-0.37-5.84-0.39c-0.05-0.03-0.04-2.4-0.04-3.55
				c0.25,0,0.5,0.01,0.74,0.01c2.89-0.01,5.56-0.82,6.95-1.94c0.25-0.2,0.56-0.54,0.56-0.58c-0.01-0.01-0.07,0.01-0.22,0.04
				c-0.15,0.03-0.43,0.07-0.62,0.09c-0.27,0.02-6.45,0.06-6.76-0.01c0-2.5-0.03-3.52-0.03-6.01c-0.13-0.02-0.61,0.17-0.66,0.14
				c-0.04-0.04-3.82-12.44-3.82-12.63c0.09-0.05,0.25-0.17,0.26-0.14c0.01,0.02,3.53,11.66,3.53,11.66c0,0,1.45-0.06,1.83,0.1
				c0.04,0,0.11-0.27,0.13-0.3c0,0.05,0.18,0.41,0.33,0.68c0.38,0.64-0.05-1.53,0.16-1.01c-0.01,0.04,0.14,0.29,0.18,0.42
				c0.05,0.15,0.1,0.22,0.14,0.18c0.04-0.04,2.71-6.8,2.71-6.82c0.01,0.01,0.04,0.02,0.11,0.02c0.35,0.04,0.51-0.15,0.54-0.19
				c-0.14,0.35-3.13,7.43-3.13,7.43s0.62,0.3,0.63,0.67c0.01,0.95,0.03,1.93,0.03,3.06c0.39,0,0.93,0.08,1.32,0.08
				c0.07-0.02,2.41-0.81,2.44-0.83c0.04,0,0.59,0.44,0.59,0.48c0,0.04-0.81,0.29-0.81,0.32c0,0.02,0.05,0.03,0.12,0.03
				c0.18,0,0.79,0.09,0.93,0.14c0.09,0.04,0.24,0.08,0.32,0.25c0.22,0.46,0.19,0.43,0.22,2.78c0.08,0.06,0.11,0.12,0.19,0.18
				c0.65,0.52,1.05,1.06,1.27,1.71c0.05,0.14,0.07,0.14,0.09,0.33C630,234.72,630,234.96,630,235.43z"/>
		</g>
		<g>
			<path class="st53" d="M624.14,218.35c-0.62-0.09-0.86-0.63-0.84-1.14c0.47-0.29,0.99-0.81,1.01-1.24
				c0.02-0.44-0.66-0.67-1.21,0.23c-0.15,0.25-0.24,0.52-0.28,0.78c-1.05,0.54-2,0.14-1.95-0.92c0.47-0.29,0.98-0.81,1-1.24
				c0.03-0.47-0.67-0.65-1.21,0.23c-0.15,0.25-0.24,0.51-0.28,0.78c-1.02,0.53-2,0.17-1.96-0.92c0.46-0.29,0.98-0.81,1-1.24
				c0.02-0.45-0.66-0.67-1.21,0.23c-0.15,0.25-0.24,0.51-0.28,0.78c-0.33,0.17-0.7,0.27-1.06,0.23c-0.96-0.1-1.08-1.17-0.69-1.9l0,0
				c0.24,0.14,0.58,0.06,0.69-0.16c0.39-0.75-0.5-1.1-1.11-0.09c-0.61,1.01-0.33,2.42,1.03,2.56c0.38,0.04,0.77-0.03,1.12-0.16
				c0.11,1.12,1.24,1.62,2.44,1.15c0.11,1.15,1.26,1.6,2.44,1.15c0.06,0.63,0.48,1.19,1.27,1.3c0.15,0.02,0.29-0.08,0.29-0.2
				C624.35,218.47,624.29,218.37,624.14,218.35z M623.74,216.13c-0.05,0.1-0.13,0.21-0.23,0.32
				C623.56,216.35,623.65,216.22,623.74,216.13z M621.29,214.99c-0.05,0.1-0.13,0.21-0.23,0.32
				C621.12,215.21,621.2,215.09,621.29,214.99z M618.85,213.84c-0.05,0.1-0.13,0.21-0.23,0.32
				C618.67,214.07,618.77,213.92,618.85,213.84z M616.41,212.7c-0.05,0.1-0.13,0.21-0.23,0.32
				C616.23,212.92,616.32,212.79,616.41,212.7z"/>
			<path class="st54" d="M623.74,216.13c-0.05,0.1-0.13,0.21-0.23,0.32C623.56,216.35,623.65,216.22,623.74,216.13z"/>
			<path class="st54" d="M621.29,214.99c-0.05,0.1-0.13,0.21-0.23,0.32C621.12,215.21,621.2,215.09,621.29,214.99z"/>
			<path class="st54" d="M618.85,213.84c-0.05,0.1-0.13,0.21-0.23,0.32C618.67,214.07,618.77,213.92,618.85,213.84z"/>
		</g>
	</g>
</g>
<g>
	<g>
		<path class="st37" d="M448.74,396.92c0,1.53-0.9,3.06-2.69,4.59v-6.49c1.79-1.53,2.69-3.06,2.69-4.59
			C448.74,392.59,448.74,394.76,448.74,396.92z"/>
		<polygon class="st36" points="446.05,395.02 446.05,401.51 440.48,399.89 440.48,393.4 		"/>
		<path class="st37" d="M442.49,389.18c0.07,0.23,0.1,0.46,0.1,0.69c0,1.06-0.68,2.21-2.05,3.47c-0.58-0.4-1.27-0.8-2.09-1.18
			c-2.66-1.25-5.52-1.99-8.58-2.23c-3.06-0.24-6.03-0.03-8.9,0.64c-2.87,0.67-5.45,1.54-7.73,2.61c-2.57,1.21-4.54,2.44-5.88,3.68
			c-0.64-0.55-1.12-1.14-1.46-1.77c-0.25-0.48-0.38-0.96-0.38-1.44c0-0.9,0.43-1.81,1.3-2.74c1.34-1.43,3.48-2.84,6.42-4.22
			c2.28-1.07,4.86-1.94,7.73-2.61c2.87-0.67,5.84-0.88,8.9-0.64c3.06,0.24,5.92,0.98,8.58,2.23
			C440.76,386.76,442.11,387.93,442.49,389.18z"/>
		<path class="st18" d="M433.62,351.12c0-1.08-0.38-1.98-1.13-2.7c-0.4-0.39-0.9-0.69-1.48-0.9c-0.51-0.19-1.09-0.31-1.74-0.37
			c-1.4-0.13-3.79,0.02-7.19,0.45c-3.15,0.4-6.3,0.79-9.45,1.19v5.06v4.75c3.41-0.43,6.81-0.86,10.22-1.28
			c2.77-0.35,4.76-0.72,5.97-1.13C431.68,355.22,433.62,353.61,433.62,351.12z M435.59,365.11c0-1.21-0.45-2.21-1.35-2.99
			c-0.35-0.31-0.76-0.56-1.22-0.77v0c-0.72-0.33-1.56-0.54-2.53-0.63c-1.6-0.16-3.91-0.05-6.92,0.33
			c-3.64,0.46-7.29,0.92-10.93,1.37v6.41v4.75c11.99-1.51,14.4-1.76,16.02-2.17c1.44-0.36,2.64-0.81,3.61-1.34
			c0.97-0.53,1.76-1.23,2.39-2.1C435.28,367.09,435.59,366.14,435.59,365.11z M442.07,364.29c0,1.52-0.47,2.99-1.4,4.42
			c-0.94,1.42-2.09,2.58-3.47,3.46c-3.47,2.22-8.44,3.21-12.8,3.76c-6.01,0.76-12.02,1.51-18.02,2.27v-32.47
			c5.91-0.74,11.82-1.49,17.73-2.23c3.61-0.45,6.51-0.49,8.69-0.11c2.18,0.38,3.89,1.18,5.13,2.39c0.48,0.47,0.86,0.95,1.14,1.45
			c1.25,2.15,0.81,4.56-0.93,6.73c-0.32,0.39-0.68,0.77-1.09,1.14c-1.01,0.9-2.3,1.72-3.88,2.46c2.86,0.22,5.06,0.92,6.59,2.12
			c0.67,0.52,1.2,1.11,1.58,1.77c0,0.01,0.01,0.01,0.01,0.02C441.83,362.29,442.07,363.24,442.07,364.29z"/>
		<path class="st18" d="M438.86,357.1c0.82,1.45,1.65,2.89,2.48,4.34c-0.38-0.66-0.9-1.25-1.58-1.77c-1.54-1.19-3.73-1.9-6.59-2.12
			c1.58-0.73,2.87-1.55,3.88-2.46c0.75,0.54,1.35,1.19,1.77,1.92C438.84,357.05,438.85,357.07,438.86,357.1z"/>
		<path class="st55" d="M405.52,393.65c0,0.49,0.13,0.97,0.38,1.44c0.34,0.63,0.82,1.22,1.46,1.77v0c0.73,0.64,1.66,1.22,2.79,1.75
			c2.56,1.2,5.48,1.87,8.73,2.01c3.26,0.14,6.66-0.32,10.2-1.39l3.42,2.69c-4.72,1.31-9.32,1.85-13.78,1.61
			c-4.47-0.24-8.5-1.21-12.11-2.9c-3.73-1.75-6-3.53-6.82-5.34c-0.27-0.6-0.41-1.2-0.41-1.81c0-1.24,0.56-2.5,1.67-3.79
			c1.66-1.92,4.14-3.66,7.45-5.21c7.3-3.43,15.71-4.63,23.48-3.56c3.93,0.54,7.43,1.52,10.48,2.96c3.46,1.62,5.49,3.4,6.09,5.34
			c0.12,0.4,0.19,0.81,0.19,1.21v0c0,1.53-0.9,3.06-2.69,4.59l-5.57-1.62c0.02-0.02,0.04-0.04,0.06-0.05
			c1.37-1.26,2.05-2.41,2.05-3.47c0-0.24-0.03-0.47-0.1-0.69c-0.38-1.26-1.72-2.42-4.04-3.51c-2.66-1.25-5.52-1.99-8.58-2.23
			c-3.06-0.24-6.03-0.03-8.9,0.64c-2.87,0.67-5.45,1.54-7.73,2.61c-2.94,1.38-5.08,2.79-6.42,4.22
			C405.95,391.84,405.52,392.75,405.52,393.65z"/>
		<path class="st19" d="M436.56,342.83c0.84,1.47,1.68,2.94,2.52,4.4l0,0c-0.29-0.5-0.67-0.98-1.14-1.45
			c-1.24-1.21-2.94-2.01-5.13-2.39c-2.18-0.38-5.08-0.35-8.69,0.11c-5.91,0.74-11.82,1.49-17.73,2.23l-2.53-4.43
			c5.91-0.74,11.82-1.49,17.73-2.23c3.61-0.45,6.51-0.49,8.69-0.11c2.18,0.38,3.89,1.18,5.13,2.39
			C435.88,341.82,436.27,342.31,436.56,342.83z"/>
		<path class="st19" d="M435.59,365.11c0,1.03-0.31,1.98-0.93,2.85c-0.62,0.87-1.42,1.57-2.39,2.1c-0.97,0.53-2.17,0.98-3.61,1.34
			c-1.62,0.41-4.04,0.66-16.02,2.17v-4.75c9.37-1.18,11.91-1.45,13.49-1.85c1.44-0.36,2.64-0.81,3.61-1.34
			c0.97-0.53,1.76-1.23,2.39-2.1c0.49-0.68,0.78-1.4,0.89-2.18c0.46,0.21,0.87,0.47,1.22,0.77
			C435.14,362.9,435.59,363.9,435.59,365.11z"/>
		<path class="st19" d="M432.5,348.41c0.75,0.73,1.13,1.63,1.13,2.7c0,2.49-1.95,4.1-4.8,5.05c-1.2,0.4-3.19,0.78-5.97,1.13
			c-3.41,0.43-6.81,0.86-10.22,1.28v-4.75c2.56-0.32,5.12-0.64,7.69-0.97c2.77-0.35,4.76-0.72,5.97-1.13
			c2.42-0.81,4.33-2.14,4.73-4.23C431.6,347.72,432.09,348.02,432.5,348.41z"/>
		<path class="st36" d="M399.38,399.98L399.38,399.98c0-2.16,0-4.33,0-6.49c0,0.61,0.14,1.21,0.41,1.81
			c0.82,1.81,3.09,3.59,6.82,5.34c3.6,1.69,7.64,2.66,12.11,2.9c4.47,0.24,9.06-0.29,13.78-1.61v6.49
			c-4.72,1.31-9.32,1.85-13.78,1.61c-4.47-0.24-8.5-1.21-12.11-2.9c-3.73-1.75-6-3.53-6.82-5.34
			C399.52,401.19,399.38,400.59,399.38,399.98z"/>
		<polygon class="st34" points="403.85,349.62 403.85,341.29 406.38,345.73 406.38,378.19 403.85,373.76 403.85,366.39 		"/>
		<polygon class="st37" points="403.85,349.62 403.85,366.39 402.12,367.2 387.95,328.09 394.87,324.84 		"/>
		<path class="st36" d="M388.83,341.14c-0.4-1.18-0.76-2.25-1.09-3.24c-1.07-3.22-1.8-5.53-2.36-7.61
			c-0.44,1.88-1.06,3.65-1.86,5.33c-1.24,2.6-2.51,5.18-3.8,7.74l11.73,5.5C390.43,345.85,389.57,343.32,388.83,341.14z
			 M387.95,328.09l14.16,39.11l-5.22-2.45l-4.03-11.73l-10.06-4.72l-4.41-2.07l-3.8,8.05l-4.86-2.28l13.29-26.23L387.95,328.09z"/>
		<polygon class="st55" points="394.87,324.84 387.95,328.09 383.02,325.77 389.94,322.53 		"/>
		<path class="st55" d="M391.45,348.86l-11.73-5.5l6.92-3.25l2.2,1.03C389.57,343.32,390.43,345.85,391.45,348.86z"/>
		<path class="st37" d="M385.38,330.29c0.56,2.08,1.29,4.39,2.36,7.61c-0.37,0.74-0.74,1.48-1.11,2.21l-6.92,3.25
			c1.29-2.56,2.55-5.14,3.8-7.74C384.32,333.94,384.94,332.17,385.38,330.29z"/>
		<polygon class="st37" points="382.81,348.31 381.52,351.04 374.59,354.29 378.39,346.24 		"/>
	</g>
	<g>
		<path class="st11" d="M437.05,355.1c1.53,0.98,2.12,2.51,2.86,3.8c0.45,0.79,0.76,1.4,1.23,2.18c1.32,2.2,1.12,4.36,0.21,6.43
			c-0.67,1.2-1.33,2.11-1.33,2.11c0.66-0.05,1.17-0.11,1.69-0.13c2.1-0.08,4.19-0.16,6.29-0.21c0.73-0.02,1.47-0.07,1.98,0.56
			c0.13,0.16,0.68,0.12,1.03,0.11c2.59-0.11,5.17-0.21,7.76-0.36c0.94-0.05,1.43,0.26,1.78,0.94c0.64,1.23,1.35,2.43,2.1,3.76
			c-0.5,0.15-0.89,0.31-1.31,0.38c-2.7,0.42-5.41,0.85-8.12,1.21c-4.5,0.59-9.01,1.12-13.52,1.7c-3.01,0.39-6,0.71-9.07,0.69
			c-7.58-0.07-24.24-0.07-24.24-0.07v-32.47l6.74-0.85c0,0,7.82-1.06,13.07-1.66c2.87-0.09,5.19-0.34,7.68,0.42
			c0.99,0.3,1.98,0.56,2.83,1.19c2.01,1.31,2.89,2.76,3.08,4.62c0.09,1.42-0.2,2.5-1.63,4.5
			C437.83,354.31,437.43,354.67,437.05,355.1z M412.63,368.82c0,0,5.95,0.55,8.89,0.11c2.26-0.34,4.56-0.54,6.69-1.31
			c2.8-1.01,4.54-2.71,4.96-5.22c0.15-0.91,0.07-1.03-0.96-1.35c-1.62-0.5-4.13-0.48-5.8-0.31c-4.15,0.42-13.78,1.67-13.78,1.67
			V368.82z M412.63,353.83c0,0,7.51,0.27,11.03-0.43c1.77-0.35,3.5-0.73,4.99-1.65c1.37-0.86,2.21-1.96,2.5-3.34
			c0.15-0.73-0.02-0.96-0.9-1.17c-0.35-0.08-0.73-0.12-1.09-0.13c-1.11-0.01-2.24-0.08-3.33,0.04c-3.75,0.39-13.18,1.63-13.18,1.63
			V353.83z"/>
		<path class="st11" d="M387.95,328.09c2.33-1.09,4.56-2.14,6.92-3.25c0.56,1.5,8.97,24.78,8.97,24.78s0.1,10.9,0.1,15.85
			c0,1.27,0,1.27-1.75,1.8C397.46,354.2,392.71,341.21,387.95,328.09z"/>
		<path class="st11" d="M411.22,399.06c-2.23-0.88-4.07-1.92-5.22-3.81c-0.83-1.28-0.53-2.32,0.21-3.61
			c0.76-1.1,1.83-1.97,3.01-2.73c4.52-2.96,9.68-4.79,15.43-5.45c1.43-0.16,3.04-0.12,4.6-0.12c0.01,1.04,0.04,2.29-0.07,3.37
			c-0.12,1.14,0.93,2.21,1.09,3.25c-1.57,0.32-3.2,0.45-4.64,0.79c-3.69,0.87-7.06,2.26-10.12,4.14
			C413.76,395.96,412.09,397.23,411.22,399.06z"/>
		<path class="st11" d="M378.39,346.24c1.5,0.7,2.99,1.4,4.41,2.07c-0.12,0.4-0.41,0.82-0.56,1.32c0.34,0.08,0.67,0.2,1.01,0.23
			c2.6,0.21,4.87,1.07,7.15,2.08c1.82,0.81,2.56,1.84,3.27,3.45c0,0,0.48,1.41,0.88,2.61c0.09,0.28,0.65,1.76,0.77,2.23
			c-1.12-0.52-2.24-1.14-3.16-1.57c-1.33-0.62-2.68-1.2-3.96-1.87c-0.94-0.49-1.95-0.68-3.01-0.83c-3.42-0.48-6.83-0.98-10.24-1.48
			c-0.08-0.01-0.15-0.06-0.38-0.15C375.77,351.68,377.05,348.92,378.39,346.24z"/>
		<path class="st11" d="M418.58,403.51c4.81,0.22,9.34-0.28,13.93-1.56c0,1.34,0,2.49,0,3.66c0.41,0.05,0.69,0.13,0.96,0.11
			c0.94-0.09,1.64,0.19,2.25,0.77c0.69,0.64,1.45,1.23,2.24,1.89c-6.28,2.01-12.76,1.72-19.34,1.64
			C418.48,407.86,418.54,405.79,418.58,403.51z"/>
		<path class="st11" d="M446.05,401.51v-6.49c0,0,2.52-1.76,2.69-4.59c0.29,0.1,0.41,0.53,0.62,0.64c1.23,0.67,2.38,1.4,3.3,2.36
			c1.71,1.8,2.18,4.03,0.53,6.22c-0.17,0.23-0.36,0.44-0.54,0.67c-0.63,0.8-1.41,1.27-2.71,1.15
			C448.69,401.36,446.05,401.51,446.05,401.51z"/>
		<path class="st11" d="M386.63,340.11c0.59,0.3,1.75,0.76,2.2,1.04c0,0,0.03,0.19,0.14,0.48c0.39,1.02,0.69,2.06,1.07,3.26
			c-3.51-0.44-6.85-0.96-10.3-1.51c1.78-4.25,4.74-8.61,5.63-13.08c0.19,0.59,0.48,1.76,0.67,2.35c0.43,1.37,1.19,3.91,1.69,5.25
			c0,0-0.09,0.27-0.53,0.98C387,339.23,386.86,339.62,386.63,340.11z"/>
	</g>
</g>
<g>
	<g>
		<path class="st56" d="M384.19,291.56l-52.76,24.75l-38.66-18.14c12.59-5.91,45.55-21.37,52.76-24.75
			C351.32,276.14,361.54,280.93,384.19,291.56z"/>
		<polygon class="st57" points="360.36,303.4 343.51,317.09 335.68,314.97 		"/>
		<polygon class="st58" points="343.51,317.09 360.36,303.4 362.25,302.51 343.51,317.74 		"/>
		<polygon class="st58" points="343.51,317.09 343.51,317.74 334.81,315.38 335.68,314.97 		"/>
		<polygon class="st57" points="340.41,275.83 318.51,286.1 333.46,273.95 		"/>
		<path class="st58" d="M331.44,316.31l52.76-24.75v0.65c-5.85,2.75-52.58,24.67-52.76,24.75V316.31z"/>
		<polygon class="st57" points="315.6,309.53 296.16,304.26 299.16,301.82 		"/>
		<polygon class="st58" points="296.16,304.26 315.6,309.53 318.87,311.07 296.16,304.92 		"/>
		<path class="st59" d="M292.78,298.17l38.66,18.14v0.65c-3.66-1.72-36.79-17.26-38.66-18.14V298.17z"/>
		<g>
			<path class="st60" d="M391.68,287.8l-8.59,4.03l-41.45-19.45l8.59-4.03C350.29,268.38,387.9,286.02,391.68,287.8z"/>
			<polygon class="st6" points="391.68,288.74 383.09,292.77 383.09,291.83 391.68,287.8 			"/>
			<polygon class="st61" points="383.09,292.77 341.64,273.32 341.64,272.38 383.09,291.83 			"/>
			<g>
				<path class="st1" d="M353.63,269.95c-6.11,2.87-5.72,2.71-5.85,2.71c-0.33,0-0.43-0.35-0.16-0.48l5.38-2.52L353.63,269.95z"/>
			</g>
			<g>
				<path class="st1" d="M357.52,271.77c-6.06,2.85-5.73,2.71-5.86,2.71c-0.32,0-0.44-0.35-0.16-0.48l5.37-2.52L357.52,271.77z"/>
			</g>
			<g>
				<path class="st1" d="M361.4,273.6c-6.11,2.87-5.73,2.71-5.85,2.71c-0.31,0-0.45-0.35-0.16-0.48l5.38-2.52L361.4,273.6z"/>
			</g>
			<g>
				<path class="st1" d="M365.28,275.42c-6.12,2.87-5.73,2.7-5.85,2.7c-0.33,0-0.44-0.35-0.16-0.48l5.38-2.52L365.28,275.42z"/>
			</g>
			<g>
				<path class="st1" d="M369.17,277.24c-6.11,2.87-5.73,2.7-5.86,2.7c-0.34,0-0.43-0.36-0.16-0.48l5.38-2.53L369.17,277.24z"/>
			</g>
			<g>
				<path class="st1" d="M373.05,279.06c-6.12,2.87-5.73,2.71-5.86,2.71c-0.31,0-0.45-0.34-0.16-0.48c5.45-2.55,5.34-2.52,5.38-2.52
					L373.05,279.06z"/>
			</g>
			<g>
				<path class="st1" d="M376.93,280.88c-6.12,2.87-5.73,2.71-5.85,2.71c-0.33,0-0.44-0.35-0.16-0.48l5.38-2.52L376.93,280.88z"/>
			</g>
			<g>
				<path class="st1" d="M380.81,282.7c-6.13,2.87-5.73,2.71-5.85,2.71c-0.33,0-0.44-0.35-0.16-0.48l5.38-2.52L380.81,282.7z"/>
			</g>
			<g>
				<path class="st1" d="M384.7,284.52c-6.06,2.85-5.73,2.71-5.86,2.71c-0.33,0-0.44-0.36-0.16-0.48l5.38-2.53L384.7,284.52z"/>
			</g>
			<g>
				<path class="st1" d="M388.58,286.34c-6.12,2.87-5.73,2.71-5.86,2.71c-0.31,0-0.45-0.34-0.16-0.48l5.38-2.52L388.58,286.34z"/>
			</g>
		</g>
	</g>
	<g>
		<path class="st62" d="M340,281.12c-1.13,1.14-1.13,1.19-1.16,1.21c-0.03,0.03,0,0.11,0.29,0.44c-0.52,0.73-0.94,1.76-0.76,2.55
			l-0.02,0c-0.47-0.22-0.63-0.69-0.63-1.13c0-1.19,1.09-2.61,2.26-3.08L340,281.12z"/>
		<path class="st63" d="M383.98,302.89c0.52,0.5,1.04,1.01,1.56,1.52c0.13,0.13,0,0.32-0.21,0.29c-0.81-0.12-1.62-0.23-2.44-0.35
			c-0.19-0.03-0.31-0.17-0.33-0.37c-0.05-0.45,0.42-1.06,0.91-1.19C383.71,302.72,383.89,302.78,383.98,302.89z"/>
		<path class="st62" d="M348.31,284.27c36.4,17.08,31.65,14.78,31.28,14.78c-0.21-0.02-0.44,0.01-0.69,0.09c0,0,0,0,0,0
			c-0.57,0.17-1.13,0.58-1.46,0.94c0,0-0.01,0-0.01,0.01c-0.55,0.55-0.92,1.27-1.01,1.78c-0.08,0.34-0.05,0.69-0.01,0.83
			c0.03,0.18,0.18,0.43,0.2,0.44c0.06,0.1,0.24,0.24,0.34,0.29c-33.57-15.75-32.84-15.38-32.82-15.4c-0.17-0.1-0.29-0.23-0.38-0.39
			c-0.26-0.46-0.18-1.06-0.01-1.54c0.14-0.38,0.36-0.77,0.66-1.13c2.75,1.29,5.51,2.58,8.26,3.88l1.2-1.21l-0.09-0.1
			c-2.62-1.23-5.25-2.46-7.87-3.69c0.44-0.18,0.98-0.25,1.39-0.04C347.63,283.95,347.97,284.11,348.31,284.27z"/>
		<path class="st64" d="M380.42,299.45C380.42,299.45,380.42,299.45,380.42,299.45C380.41,299.45,380.42,299.45,380.42,299.45
			C380.48,299.53,380.47,299.52,380.42,299.45z M377.56,303.57c-0.04,0-0.07,0-0.11,0C377.49,303.57,377.53,303.57,377.56,303.57z
			 M382.9,304.35c-1.83-0.26-3.67-0.53-5.5-0.79v0c0.03,0,0.04,0.01-0.01,0c-0.09-0.01-0.14-0.02-0.25-0.05
			c-0.01-0.01-0.03-0.01-0.04-0.01c-0.16-0.06-0.29-0.14-0.39-0.24c-0.05-0.04-0.05-0.06-0.1-0.11c0,0,0,0,0-0.01
			c-0.06-0.08-0.11-0.17-0.15-0.27c-0.01-0.01-0.06-0.18-0.06-0.21c-0.09-0.55,0.06-1.09,0.32-1.6c0,0,0-0.01,0-0.01
			c0.11-0.22,0.29-0.49,0.54-0.78c0.03-0.04,0.17-0.19,0.18-0.19c0.38-0.38,0.95-0.8,1.52-0.95c0.28-0.08,0.58-0.09,0.7-0.07
			c0.01,0,0.09,0.01,0.09,0.01c0.08,0.01,0.18,0.04,0.21,0.06c0.2,0.08,0.24,0.12,0.37,0.23c0.03,0.03-0.28-0.27,3.61,3.5
			c-0.11-0.09-0.28-0.11-0.46-0.06c-0.49,0.13-0.96,0.74-0.91,1.19C382.59,304.18,382.71,304.32,382.9,304.35z"/>
		<polygon class="st65" points="352.57,288.74 353.77,287.52 353.86,287.63 352.66,288.84 		"/>
		<path class="st66" d="M342.8,281.07c5.02,2.36,4.8,2.23,4.78,2.25c-0.67-0.32-1.49-0.07-2.13,0.29c-1.59-0.75-3.19-1.5-4.79-2.25
			c0.15-0.09,0.32-0.17,0.49-0.24C341.63,280.93,342.33,280.85,342.8,281.07z"/>
		<path class="st67" d="M345.45,283.62c0.64-0.36,1.46-0.61,2.13-0.29c0.43,0.2,0.64,0.54,0.73,0.94c-0.02-0.01-1.07-0.5-1.09-0.51
			c-0.39-0.16-0.88-0.1-1.31,0.07C345.75,283.76,345.6,283.69,345.45,283.62z"/>
		<path class="st67" d="M343.12,287.23c-0.03-0.82,0.39-1.73,0.95-2.42v0c0.11,0.05,0.22,0.1,0.33,0.15
			c-0.3,0.36-0.52,0.75-0.66,1.13c-0.17,0.48-0.25,1.08,0.01,1.54c0.09,0.16,0.21,0.29,0.38,0.39l0,0c0.38,0.18,0.76,0.35,1.13,0.53
			c-0.5,0.15-0.97,0.16-1.43-0.07C343.31,288.23,343.14,287.73,343.12,287.23z"/>
		<path class="st62" d="M340.01,281.1c0.45-0.18,0.97-0.27,1.4-0.07l0,0.01c-0.25,0.07-0.54,0.21-0.75,0.33
			c-0.4-0.19-0.57-0.28-0.65-0.26L340.01,281.1z"/>
		<path class="st66" d="M339.1,286.28c-0.36-0.17-0.59-0.5-0.69-0.84c-0.27-0.92,0.26-2.11,0.88-2.88c1.6,0.75,3.19,1.5,4.79,2.25
			c0,0.02-1,1.15-0.95,2.42c0.02,0.5,0.18,1,0.71,1.26C343.82,288.51,343.97,288.55,339.1,286.28z"/>
		<path class="st65" d="M339.28,282.57c-0.04,0.04-0.07,0.09-0.11,0.14c-0.09-0.11-0.18-0.21-0.27-0.31
			C339.03,282.45,339.16,282.51,339.28,282.57z"/>
		<path class="st68" d="M338.84,282.43c-0.12-0.15,0.01-0.13,0.2-0.04c4.51,2.12,9.02,4.23,13.53,6.35l0.09,0.1
			c-6.6-3.09-12.85-6.03-13.75-6.45c0.09,0.11,0.18,0.21,0.27,0.31c-0.01,0.02-0.03,0.04-0.05,0.07
			C339.03,282.66,338.93,282.54,338.84,282.43z"/>
		<g>
			<path class="st11" d="M387.74,307.06c-0.34-0.08-0.69-0.16-1.03-0.25c-2.52-0.63-5.04-1.27-7.57-1.88
				c-1.19-0.29-2.21-0.83-3.27-1.33c-9.77-4.58-19.53-9.16-29.29-13.75c-0.44-0.21-0.87-0.4-1.43-0.38
				c-0.28,0.01-0.6-0.12-0.87-0.24c-1.31-0.6-2.61-1.22-3.91-1.83c-0.3-0.14-0.67-0.21-0.62-0.64c0.02-0.17-0.39-0.36-0.65-0.49
				c-0.19-0.09-0.54-0.38-0.59-0.61c1.62,0.71,3.15,1.46,4.71,2.1c-0.23-0.96,0.06-1.85,0.71-2.75c-1.65-0.79-3.17-1.47-4.79-2.24
				c0,0-0.19-0.22-0.29-0.35c-0.06-0.07-0.06-0.11,0.01-0.1c1.52,0.63,3.22,1.49,4.7,2.18c1.48,0.69,2.85,1.35,4.33,2.04
				c1.5,0.7,3.15,1.48,4.69,2.2c0.29-0.26,0.52-0.55,0.84-0.84c0.35,0.16,0.74,0.33,1.12,0.5c-0.39,0.4-0.74,0.78-1.15,1.21
				c-2.98-1.39-5.97-2.79-9.01-4.22c-0.5,0.68-0.63,1.34-0.31,2.01c0.12,0.24,0.47,0.45,0.77,0.59c2.2,1.05,4.42,2.08,6.64,3.12
				c8.02,3.76,16.04,7.51,24.05,11.29c0.54,0.25,1.09,0.32,1.66,0.44c1.24,0.25,2.47,0.54,3.7,0.81c1.34,0.3,2.68,0.59,4.03,0.89
				c0.16,0.04,0.37,0.06,0.47,0.15c0.83,0.75,1.65,1.51,2.47,2.26C387.8,306.99,387.77,307.03,387.74,307.06z"/>
			<path class="st12" d="M345.67,283.65c1.23-0.76,2.12-0.59,2.47,0.37c-0.19-0.06-0.35-0.09-0.48-0.14
				c-0.39-0.16-0.77-0.23-1.22-0.13C346.21,283.8,345.92,283.69,345.67,283.65z"/>
		</g>
		<path class="st67" d="M338.8,282.33c0.4-0.4,0.8-0.81,1.2-1.21l-0.01-0.01c0,0,0.01-0.01,0.02-0.01l0.01,0.01
			c0.09-0.02-0.49-0.27,13.76,6.41l-1.2,1.21C338.4,282.09,338.86,282.28,338.8,282.33z"/>
	</g>
</g>
<g>
	<path class="st69" d="M634.65,131.77l-24.46-11.48c-0.94-0.44-1.79-0.54-2.43-0.35l-0.01,0l-0.02,0.01
		c-0.15,0.05-0.28,0.11-0.41,0.19l-3.61,1.69l2.92,5.09V155c0,1.6,1.59,3.64,3.56,4.56l20.68,9.7l2.28,3.98l3.23-1.64l0.23-0.12
		c0.84-0.48,1.61-0.85,1.61-1.66v-33.48C638.21,134.74,636.62,132.7,634.65,131.77z"/>
	<g>
		<path class="st70" d="M630.52,172.96l-24.46-11.48c-1.96-0.92-3.56-2.96-3.56-4.56v-33.48c0-1.6,1.59-2.14,3.56-1.22l24.46,11.48
			c1.96,0.92,3.56,2.96,3.56,4.56v33.48C634.08,173.33,632.48,173.88,630.52,172.96z"/>
		<path class="st69" d="M628.65,145.43l-20.73-9.73c-1.02-0.48-1.85-1.54-1.85-2.38v-5.95c0-0.83,0.83-1.12,1.85-0.64l20.73,9.72
			c1.02,0.48,1.85,1.54,1.85,2.38v5.95C630.51,145.63,629.68,145.92,628.65,145.43z"/>
		<polygon class="st71" points="612.93,145.08 606.07,141.86 606.07,138.39 612.93,141.61 		"/>
		<polygon class="st71" points="621.72,149.2 614.86,145.98 614.86,142.51 621.72,145.73 		"/>
		<polygon class="st71" points="630.51,153.32 623.64,150.1 623.64,146.64 630.51,149.86 		"/>
		<polygon class="st69" points="612.93,149.95 606.07,146.73 606.07,143.26 612.93,146.49 		"/>
		<polygon class="st69" points="621.72,154.07 614.86,150.85 614.86,147.39 621.72,150.61 		"/>
		<polygon class="st69" points="630.51,158.19 623.64,154.97 623.64,151.51 630.51,154.73 		"/>
		<polygon class="st69" points="612.93,154.82 606.07,151.6 606.07,148.14 612.93,151.36 		"/>
		<polygon class="st69" points="621.72,158.95 614.86,155.73 614.86,152.26 621.72,155.48 		"/>
		<polygon class="st69" points="630.51,163.07 623.64,159.85 623.64,156.38 630.51,159.6 		"/>
		<polygon class="st69" points="612.93,159.7 606.07,156.48 606.07,153.01 612.93,156.23 		"/>
		<polygon class="st69" points="621.72,163.82 614.86,160.6 614.86,157.14 621.72,160.36 		"/>
		<polygon class="st69" points="630.51,167.94 623.64,164.72 623.64,161.26 630.51,164.48 		"/>
	</g>
</g>
<path class="st72" d="M662.81,107.8l0.96,2.03c0.08,0.17,0.23,0.33,0.41,0.43l2.14,1.26c0.44,0.26,0.62,0.78,0.3,0.89l-1.55,0.5
	c-0.13,0.04-0.18,0.16-0.16,0.32l0.37,1.9c0.08,0.39-0.39,0.45-0.78,0.09l-1.92-1.72c-0.16-0.14-0.34-0.23-0.5-0.24l-1.92-0.08
	c-0.4-0.02-0.86-0.51-0.78-0.83l0.37-1.56c0.03-0.13-0.03-0.3-0.16-0.46l-1.55-1.95c-0.32-0.4-0.14-0.76,0.3-0.61l2.14,0.75
	c0.18,0.06,0.33,0.04,0.41-0.05l0.96-1.13C662.04,107.11,662.61,107.38,662.81,107.8z"/>
<g>
	<polygon class="st73" points="671.46,255.4 671.46,263.11 669.58,268.69 669.58,260.98 	"/>
	<polygon class="st74" points="669.23,255.93 669.23,254.87 671.46,255.4 669.58,260.98 657.68,261.87 652.21,256.83 654.68,255.67 
		654.68,257.02 658.81,260.82 667.81,260.15 	"/>
	<polygon class="st75" points="669.58,260.98 669.58,268.69 669.07,268.73 667.81,268.82 658.81,269.49 657.68,269.57 
		657.68,261.87 	"/>
	<polygon class="st76" points="669.23,255.93 667.81,260.15 667.81,152.22 669.23,148 669.23,254.87 	"/>
	<path class="st77" d="M664.92,135.2l4.31,12.8l-1.42,4.22l-3.42-15.44C664.56,136.26,664.74,135.73,664.92,135.2z"/>
	<polygon class="st78" points="669.07,268.73 667.81,272.47 667.81,268.82 667.81,268.82 	"/>
	<polygon class="st79" points="667.81,268.82 667.81,272.47 658.81,273.13 658.81,269.49 667.81,268.82 	"/>
	<polygon class="st40" points="667.81,152.22 667.81,260.15 658.81,260.82 658.81,152.89 	"/>
	<path class="st80" d="M664.38,136.78l3.42,15.44l-8.99,0.67l2.2-15.86C662.13,136.95,663.26,136.87,664.38,136.78L664.38,136.78z"
		/>
	<path class="st16" d="M664.92,135.2c-0.18,0.53-0.35,1.05-0.53,1.58h0l-2.05-9.26L664.92,135.2z"/>
	<path class="st16" d="M662.33,127.52l2.05,9.26c-1.12,0.08-2.25,0.17-3.37,0.25L662.33,127.52z"/>
	<path class="st17" d="M659.46,135.61l2.87-8.09l-1.32,9.51C660.49,136.56,659.98,136.08,659.46,135.61z"/>
	<polygon class="st39" points="654.68,257.02 654.68,255.67 654.68,149.09 658.81,152.89 658.81,260.82 	"/>
	<polygon class="st81" points="657.68,261.87 657.68,269.57 654.68,266.81 652.21,264.54 652.21,256.83 	"/>
	<path class="st82" d="M654.68,149.09l4.78-13.48c0.52,0.48,1.03,0.95,1.55,1.43l-2.2,15.86L654.68,149.09z"/>
	<polygon class="st83" points="654.68,269.33 654.68,266.81 654.68,266.81 657.68,269.57 658.81,269.49 658.81,273.13 	"/>
</g>
<g>
	<path class="st84" d="M409.42,103.75l0.96,1.13c0.08,0.09,0.23,0.11,0.41,0.05l2.14-0.75c0.44-0.16,0.62,0.2,0.3,0.61l-1.55,1.95
		c-0.13,0.16-0.18,0.33-0.16,0.46l0.37,1.56c0.08,0.32-0.39,0.81-0.78,0.83l-1.92,0.08c-0.16,0.01-0.34,0.09-0.5,0.24l-1.92,1.72
		c-0.4,0.35-0.86,0.3-0.78-0.09l0.37-1.9c0.03-0.16-0.03-0.27-0.15-0.32l-1.55-0.5c-0.32-0.1-0.14-0.63,0.3-0.89l2.14-1.26
		c0.18-0.1,0.33-0.26,0.41-0.43l0.96-2.03C408.65,103.79,409.23,103.52,409.42,103.75z"/>
	<g>
		<path class="st36" d="M428.82,137.24l-1.68,0.79l-2.16,1.01c0.31-0.15,0.58-0.42,0.69-0.88c0.2-0.81-0.18-1.77-0.69-2.5
			l-11.21-15.77l4.27-2l11.21,15.77c0.52,0.73,0.89,1.69,0.69,2.5c-0.11,0.45-0.38,0.73-0.69,0.88l-0.4,0.19L428.82,137.24z"/>
		<path class="st85" d="M424.97,135.66l-11.2-15.78c1.21-1.28,1.72-2.97,1.8-4.59c0.15-2.52-0.64-5.17-1.81-7.5
			c-1.3-2.56-3.19-5.03-5.51-7.07c-2.1-1.85-4.82-3.57-7.75-4.29c-2.25-0.55-4.26-0.43-5.85,0.32c-1.57,0.73-2.72,2.08-3.26,3.96
			c-0.7,2.42-0.21,5.2,0.7,7.59c1.01,2.65,2.7,5.22,4.78,7.41c1.91,2,4.34,3.87,7.09,5.03c1.78,0.75,3.83,1.24,5.81,1.03l11.2,15.78
			c0.38,0.52,0.88,1.03,1.49,1.38c0.63,0.37,1.46,0.62,2.12,0.31l0.4-0.19c0.32-0.15,0.58-0.43,0.7-0.88
			C425.87,137.35,425.5,136.39,424.97,135.66z M411.07,115.84c-0.1,0.18-0.23,0.35-0.37,0.51c-0.76,0.89-1.84,1.4-3.17,1.49
			c-1.84,0.13-3.76-0.61-5.26-1.49c-3.86-2.26-6.89-6.53-7.37-10.37c-0.19-1.49-0.01-3.22,1.05-4.45c0.76-0.89,1.84-1.4,3.17-1.49
			c0.24-0.01,0.48-0.01,0.73-0.01c1.61,0.08,3.23,0.73,4.53,1.49c3.86,2.25,6.89,6.53,7.37,10.37
			C411.92,113.21,411.8,114.68,411.07,115.84z"/>
		<path class="st36" d="M398.88,94.76c0.02-0.01,0.03-0.01,0.05-0.02c1.41-0.66,3.32-0.91,5.67-0.36c2.96,0.69,5.71,2.4,7.84,4.25
			c2.35,2.05,4.26,4.52,5.57,7.08c1.19,2.35,1.99,5.01,1.85,7.54c-0.09,1.64-0.59,3.34-1.81,4.62l-4.27,2
			c1.22-1.28,1.72-2.97,1.81-4.6c0.14-2.51-0.64-5.17-1.82-7.5c-1.29-2.56-3.19-5.02-5.5-7.06c-2.1-1.85-4.82-3.57-7.75-4.29
			c-2.25-0.56-4.26-0.43-5.85,0.32v0C396.07,96.08,397.47,95.42,398.88,94.76z"/>
		<path class="st36" d="M411.07,115.84c-0.1,0.18-0.23,0.35-0.37,0.51c-0.76,0.89-1.84,1.4-3.17,1.49
			c-1.84,0.13-3.76-0.61-5.26-1.49c-3.86-2.26-6.89-6.53-7.37-10.37c-0.19-1.49-0.01-3.22,1.05-4.45c0.76-0.89,1.84-1.4,3.17-1.49
			c0.24-0.01,0.48-0.01,0.73-0.01c-0.51,0.82-0.75,1.82-0.75,2.9c0,3.26,2.15,7.34,5.65,10.17c0.99,0.8,2.09,1.49,3.33,2.01
			C409.02,115.52,410.04,115.8,411.07,115.84z"/>
		<path class="st86" d="M411.07,115.84c-1.03-0.05-2.05-0.33-2.98-0.71c-1.25-0.52-2.35-1.21-3.33-2.01
			c-3.5-2.83-5.65-6.91-5.65-10.17c0-1.09,0.24-2.08,0.75-2.9c1.61,0.08,3.23,0.73,4.53,1.49c3.86,2.25,6.89,6.53,7.37,10.37
			C411.92,113.21,411.8,114.68,411.07,115.84z"/>
	</g>
</g>
</svg>
