<?xml version="1.0" encoding="utf-8"?>
<!-- Generator: Adobe Illustrator 23.0.1, SVG Export Plug-In . SVG Version: 6.00 Build 0)  -->
<svg version="1.1" id="Default" xmlns="http://www.w3.org/2000/svg" xmlns:xlink="http://www.w3.org/1999/xlink" x="0px" y="0px"
	 viewBox="0 0 700 500" style="enable-background:new 0 0 700 500;" xml:space="preserve">
<style type="text/css">
	.st0{fill:#FBFAFC;}
	.st1{fill:#EAE8ED;}
	.st2{fill:#7F542E;}
	.st3{fill:#A26D42;}
	.st4{fill:#6899F4;}
	.st5{fill:#A5B3BF;}
	.st6{fill:#DFE3E7;}
	.st7{fill:#C48B5E;}
	.st8{fill:#D2898A;}
	.st9{fill:#C95B68;}
	.st10{fill:#9ED2E9;}
	.st11{fill:#76B2CC;}
	.st12{fill:#B0A7C2;}
	.st13{fill:#C5BED1;}
	.st14{fill:#82C2E8;}
	.st15{fill:url(#SVGID_1_);}
	.st16{opacity:0.69;fill:#FCFCFC;}
	.st17{fill:#3F4F5D;}
	.st18{fill:#5D6571;}
	.st19{fill:#8140FF;}
	.st20{fill:#A68EFE;}
	.st21{fill:#9D8CF9;}
	.st22{fill:#9F3759;}
	.st23{fill:#BB426A;}
	.st24{fill:#C8D1DD;}
	.st25{fill:#CD7E8E;}
	.st26{fill:#DA926E;}
	.st27{fill:#E2AE4A;}
	.st28{fill:#648F66;}
	.st29{fill:#72A368;}
	.st30{fill:#5A84D9;}
	.st31{fill:#EBD863;}
	.st32{fill:#84BF80;}
	.st33{fill:#4B7CD6;}
	.st34{fill:#785CAD;}
	.st35{fill:#BFB5F4;}
	.st36{fill:#48413C;}
	.st37{fill:#D2448D;}
	.st38{fill:#AA226D;}
	.st39{fill:#E6A57A;}
	.st40{fill:#F6BA28;}
	.st41{fill:#F2A305;}
	.st42{fill:#E06C00;}
	.st43{fill:#B19069;}
	.st44{fill:#C0AD88;}
	.st45{fill:url(#XMLID_3_);}
	.st46{fill:#EDDFDF;}
	.st47{fill:#E8DDA5;}
	.st48{fill:#BAA286;}
	.st49{fill:#8F7A67;}
	.st50{fill:#EDE582;}
	.st51{fill:#E6AD23;}
	.st52{fill:#EDEAB9;}
	.st53{fill:#BCAA9B;}
	.st54{fill:#EEE6D9;}
	.st55{fill:#EED9D9;}
	.st56{fill:#E288B9;}
	.st57{fill:#EBEEC1;}
	.st58{fill:#D3D3AF;}
	.st59{fill:#BEBE9E;}
	.st60{fill:#F1F1CE;}
	.st61{fill:#E0BE95;}
	.st62{fill:#D8AA7D;}
	.st63{fill:#8BD0D0;}
	.st64{fill:#655FBF;}
	.st65{fill:#D1E2EE;}
	.st66{fill:#4C6E81;}
	.st67{fill:#BBEBEF;}
	.st68{fill:#71A7AB;}
	.st69{fill:#5A8694;}
	.st70{fill:#899DB9;}
	.st71{fill:#BECBDC;}
	.st72{fill:#B54689;}
	.st73{fill:#D6519A;}
	.st74{fill:#B7A68A;}
	.st75{fill:#F2E9DA;}
	.st76{fill:#D3C1A1;}
	.st77{fill:#D38C0F;}
	.st78{fill:#C6BAA7;}
	.st79{fill:#A55685;}
	.st80{fill:#CC7AA7;}
	.st81{fill:#D3C7B4;}
	.st82{fill:#EAD9B5;}
	.st83{fill:#E5D9C6;}
	.st84{fill:#E0ADCC;}
	.st85{fill:#7242F9;}
	.st86{fill:#E172B0;}
	.st87{opacity:0.5;fill:#9ED2E9;}
</style>
<rect x="0.4" class="st0" width="699.6" height="500"/>
<path class="st1" d="M234.69,298.85c2.99,1.73,2.99,4.52,0,6.25c-2.99,1.73-7.83,1.73-10.82,0c-2.99-1.73-2.99-4.52,0-6.25
	C226.85,297.12,231.7,297.12,234.69,298.85z"/>
<g>
	<path class="st1" d="M437.89,305.99l3.11,0.61c0.26,0.05,0.54,0.02,0.75-0.07l2.64-1.14c0.54-0.23,1.32-0.01,1.31,0.39l-0.04,1.9
		c0,0.16,0.13,0.3,0.35,0.39l2.68,1.1c0.55,0.23,0.42,0.72-0.23,0.84l-3.14,0.56c-0.26,0.05-0.46,0.16-0.54,0.31l-0.98,1.81
		c-0.2,0.37-1.06,0.45-1.45,0.13l-1.9-1.55c-0.16-0.13-0.41-0.2-0.68-0.2l-3.29,0.02c-0.68,0-1.07-0.44-0.67-0.76l1.97-1.52
		c0.16-0.12,0.21-0.29,0.12-0.43l-1.06-1.8C436.63,306.22,437.25,305.86,437.89,305.99z"/>
	<path class="st1" d="M451.24,298.28l3.11,0.61c0.26,0.05,0.54,0.02,0.75-0.07l2.64-1.14c0.54-0.23,1.32-0.01,1.31,0.39l-0.04,1.9
		c0,0.16,0.13,0.3,0.35,0.39l2.68,1.1c0.55,0.23,0.42,0.72-0.23,0.84l-3.14,0.56c-0.26,0.05-0.46,0.16-0.54,0.31l-0.98,1.81
		c-0.2,0.37-1.06,0.45-1.45,0.13l-1.9-1.55c-0.16-0.13-0.41-0.2-0.68-0.2l-3.29,0.02c-0.68,0-1.07-0.44-0.67-0.76l1.97-1.52
		c0.16-0.12,0.21-0.29,0.12-0.43l-1.06-1.8C449.99,298.51,450.6,298.15,451.24,298.28z"/>
	<path class="st1" d="M464.6,290.57l3.11,0.61c0.26,0.05,0.54,0.02,0.75-0.07l2.64-1.14c0.54-0.23,1.32-0.01,1.31,0.39l-0.04,1.9
		c0,0.16,0.13,0.3,0.35,0.39l2.68,1.1c0.55,0.23,0.42,0.72-0.23,0.84l-3.14,0.56c-0.26,0.05-0.46,0.16-0.54,0.31l-0.98,1.81
		c-0.2,0.37-1.06,0.45-1.45,0.13l-1.9-1.55c-0.16-0.13-0.41-0.2-0.68-0.2l-3.29,0.02c-0.68,0-1.07-0.44-0.67-0.76l1.97-1.52
		c0.16-0.12,0.21-0.29,0.12-0.43l-1.06-1.8C463.34,290.8,463.95,290.44,464.6,290.57z"/>
	<path class="st1" d="M477.95,282.86l3.11,0.61c0.26,0.05,0.54,0.02,0.75-0.07l2.64-1.14c0.54-0.23,1.32-0.01,1.31,0.39l-0.04,1.9
		c0,0.16,0.13,0.3,0.35,0.39l2.68,1.1c0.55,0.23,0.42,0.72-0.23,0.84l-3.14,0.56c-0.26,0.05-0.46,0.16-0.54,0.31l-0.98,1.81
		c-0.2,0.37-1.06,0.45-1.45,0.13l-1.9-1.55c-0.16-0.13-0.41-0.2-0.68-0.2l-3.29,0.02c-0.68,0-1.07-0.44-0.67-0.76l1.97-1.52
		c0.16-0.12,0.21-0.29,0.12-0.43l-1.06-1.8C476.69,283.09,477.31,282.73,477.95,282.86z"/>
	<path class="st1" d="M491.3,275.15l3.11,0.61c0.26,0.05,0.54,0.02,0.75-0.07l2.64-1.14c0.54-0.23,1.32-0.01,1.31,0.39l-0.04,1.9
		c0,0.16,0.13,0.3,0.35,0.39l2.68,1.1c0.55,0.23,0.42,0.72-0.23,0.84l-3.14,0.56c-0.26,0.05-0.46,0.16-0.54,0.31l-0.98,1.81
		c-0.2,0.37-1.06,0.45-1.45,0.13l-1.9-1.55c-0.16-0.13-0.41-0.2-0.68-0.2l-3.29,0.02c-0.68,0-1.07-0.44-0.67-0.76l1.97-1.52
		c0.16-0.12,0.21-0.29,0.12-0.43l-1.06-1.8C490.05,275.38,490.66,275.02,491.3,275.15z"/>
</g>
<g>
	<path class="st1" d="M320.2,319.34l3.11,0.61c0.26,0.05,0.54,0.02,0.75-0.07l2.64-1.14c0.54-0.23,1.32-0.01,1.31,0.39l-0.04,1.9
		c0,0.16,0.13,0.3,0.35,0.39l2.68,1.1c0.55,0.23,0.42,0.72-0.23,0.84l-3.14,0.56c-0.26,0.05-0.46,0.16-0.54,0.31l-0.98,1.81
		c-0.2,0.37-1.06,0.45-1.45,0.13l-1.9-1.55c-0.16-0.13-0.41-0.2-0.68-0.2l-3.29,0.02c-0.68,0-1.07-0.44-0.67-0.76l1.97-1.52
		c0.16-0.12,0.21-0.29,0.12-0.43l-1.06-1.8C318.94,319.57,319.56,319.21,320.2,319.34z"/>
	<path class="st1" d="M333.55,311.63l3.11,0.61c0.26,0.05,0.54,0.02,0.75-0.07l2.64-1.14c0.54-0.23,1.32-0.01,1.31,0.39l-0.04,1.9
		c0,0.16,0.13,0.3,0.35,0.39l2.68,1.1c0.55,0.23,0.42,0.72-0.23,0.84l-3.14,0.56c-0.26,0.05-0.46,0.16-0.54,0.31l-0.98,1.81
		c-0.2,0.37-1.06,0.45-1.45,0.13l-1.9-1.55c-0.16-0.13-0.41-0.2-0.68-0.2l-3.29,0.02c-0.68,0-1.07-0.44-0.67-0.76l1.97-1.52
		c0.16-0.12,0.21-0.29,0.12-0.43l-1.06-1.8C332.29,311.86,332.91,311.5,333.55,311.63z"/>
	<path class="st1" d="M346.9,303.92l3.11,0.61c0.26,0.05,0.54,0.02,0.75-0.07l2.64-1.14c0.54-0.23,1.32-0.01,1.31,0.39l-0.04,1.9
		c0,0.16,0.13,0.3,0.35,0.39l2.68,1.1c0.55,0.23,0.42,0.72-0.23,0.84l-3.14,0.56c-0.26,0.05-0.46,0.16-0.54,0.31l-0.98,1.81
		c-0.2,0.37-1.06,0.45-1.45,0.13l-1.9-1.55c-0.16-0.13-0.41-0.2-0.68-0.2l-3.29,0.02c-0.68,0-1.07-0.44-0.67-0.76l1.97-1.52
		c0.16-0.12,0.21-0.29,0.12-0.43l-1.06-1.8C345.65,304.15,346.26,303.79,346.9,303.92z"/>
	<path class="st1" d="M360.26,296.21l3.11,0.61c0.26,0.05,0.54,0.02,0.75-0.07l2.64-1.14c0.54-0.23,1.32-0.01,1.31,0.39l-0.04,1.9
		c0,0.16,0.13,0.3,0.35,0.39l2.68,1.1c0.55,0.23,0.42,0.72-0.23,0.84l-3.14,0.56c-0.26,0.05-0.46,0.16-0.54,0.31l-0.98,1.81
		c-0.2,0.37-1.06,0.45-1.45,0.13l-1.9-1.55c-0.16-0.13-0.41-0.2-0.68-0.2l-3.29,0.02c-0.68,0-1.07-0.44-0.67-0.76l1.97-1.52
		c0.16-0.12,0.21-0.29,0.12-0.43l-1.06-1.8C359,296.44,359.61,296.08,360.26,296.21z"/>
	<path class="st1" d="M373.61,288.5l3.11,0.61c0.26,0.05,0.54,0.02,0.75-0.07l2.64-1.14c0.54-0.23,1.32-0.01,1.31,0.39l-0.04,1.9
		c0,0.16,0.13,0.3,0.35,0.39l2.68,1.1c0.55,0.23,0.42,0.72-0.23,0.84l-3.14,0.56c-0.26,0.05-0.46,0.16-0.54,0.31l-0.98,1.81
		c-0.2,0.37-1.06,0.45-1.45,0.13l-1.9-1.55c-0.16-0.13-0.41-0.2-0.68-0.2l-3.29,0.02c-0.68,0-1.07-0.44-0.67-0.76l1.97-1.52
		c0.16-0.12,0.21-0.29,0.12-0.43l-1.06-1.8C372.35,288.73,372.97,288.37,373.61,288.5z"/>
</g>
<g>
	<path class="st1" d="M451.79,382.82l3.11,0.61c0.26,0.05,0.54,0.02,0.75-0.07l2.64-1.14c0.54-0.23,1.32-0.01,1.31,0.39l-0.04,1.9
		c0,0.16,0.13,0.3,0.35,0.39l2.68,1.1c0.55,0.23,0.42,0.72-0.23,0.84l-3.14,0.56c-0.26,0.05-0.46,0.16-0.54,0.31l-0.98,1.81
		c-0.2,0.37-1.06,0.45-1.45,0.13l-1.9-1.55c-0.16-0.13-0.41-0.2-0.68-0.2l-3.29,0.02c-0.68,0-1.07-0.44-0.67-0.76l1.97-1.52
		c0.16-0.12,0.21-0.29,0.12-0.43l-1.06-1.8C450.53,383.04,451.14,382.69,451.79,382.82z"/>
	<path class="st1" d="M465.14,375.11l3.11,0.61c0.26,0.05,0.54,0.02,0.75-0.07l2.64-1.14c0.54-0.23,1.32-0.01,1.31,0.39l-0.04,1.9
		c0,0.16,0.13,0.3,0.35,0.39l2.68,1.1c0.55,0.23,0.42,0.72-0.23,0.84l-3.14,0.56c-0.26,0.05-0.46,0.16-0.54,0.31l-0.98,1.81
		c-0.2,0.37-1.06,0.45-1.45,0.13l-1.9-1.55c-0.16-0.13-0.41-0.2-0.68-0.2l-3.29,0.02c-0.68,0-1.07-0.44-0.67-0.76l1.97-1.52
		c0.16-0.12,0.21-0.29,0.12-0.43l-1.06-1.8C463.88,375.33,464.5,374.98,465.14,375.11z"/>
	<path class="st1" d="M478.49,367.4l3.11,0.61c0.26,0.05,0.54,0.02,0.75-0.07l2.64-1.14c0.54-0.23,1.32-0.01,1.31,0.39l-0.04,1.9
		c0,0.16,0.13,0.3,0.35,0.39l2.68,1.1c0.55,0.23,0.42,0.72-0.23,0.84l-3.14,0.56c-0.26,0.05-0.46,0.16-0.54,0.31l-0.98,1.81
		c-0.2,0.37-1.06,0.45-1.45,0.13l-1.9-1.55c-0.16-0.13-0.41-0.2-0.68-0.2l-3.29,0.02c-0.68,0-1.07-0.44-0.67-0.76l1.97-1.52
		c0.16-0.12,0.21-0.29,0.12-0.43l-1.06-1.8C477.24,367.62,477.85,367.27,478.49,367.4z"/>
	<path class="st1" d="M491.85,359.69l3.11,0.61c0.26,0.05,0.54,0.02,0.75-0.07l2.64-1.14c0.54-0.23,1.32-0.01,1.31,0.39l-0.04,1.9
		c0,0.16,0.13,0.3,0.35,0.39l2.68,1.1c0.55,0.23,0.42,0.72-0.23,0.84l-3.14,0.56c-0.26,0.05-0.46,0.16-0.54,0.31l-0.98,1.81
		c-0.2,0.37-1.06,0.45-1.45,0.13l-1.9-1.55c-0.16-0.13-0.41-0.2-0.68-0.2l-3.29,0.02c-0.68,0-1.07-0.44-0.67-0.76l1.97-1.52
		c0.16-0.12,0.21-0.29,0.12-0.43l-1.06-1.8C490.59,359.92,491.2,359.56,491.85,359.69z"/>
	<path class="st1" d="M505.2,351.98l3.11,0.61c0.26,0.05,0.54,0.02,0.75-0.07l2.64-1.14c0.54-0.23,1.32-0.01,1.31,0.39l-0.04,1.9
		c0,0.16,0.13,0.3,0.35,0.39l2.68,1.1c0.55,0.23,0.42,0.72-0.23,0.84l-3.14,0.56c-0.26,0.05-0.46,0.16-0.54,0.31l-0.98,1.81
		c-0.2,0.37-1.06,0.45-1.45,0.13l-1.9-1.55c-0.16-0.13-0.41-0.2-0.68-0.2l-3.29,0.02c-0.68,0-1.07-0.44-0.67-0.76l1.97-1.52
		c0.16-0.12,0.21-0.29,0.12-0.43l-1.06-1.8C503.94,352.21,504.56,351.85,505.2,351.98z"/>
</g>
<path class="st1" d="M641.73,410.13c5.13,2.96,5.13,7.76,0,10.72c-5.13,2.96-13.44,2.96-18.57,0c-5.13-2.96-5.13-7.76,0-10.72
	C628.29,407.17,636.6,407.17,641.73,410.13z"/>
<g>
	<g>
		<g>
			<path class="st1" d="M315.81,311.24l-70.52,40.74c-2.29,1.32-6,1.32-8.3,0l0,0c-2.29-1.32-2.29-3.47,0-4.79l70.52-40.74
				c2.29-1.32,6-1.32,8.3,0l0,0C318.1,307.77,318.1,309.92,315.81,311.24z"/>
			<path class="st1" d="M370.29,279.77l-37.27,21.53c-2.29,1.32-6,1.32-8.3,0l0,0c-2.29-1.32-2.29-3.47,0-4.79l37.27-21.53
				c2.29-1.32,6-1.32,8.3,0h0C372.58,276.3,372.58,278.44,370.29,279.77z"/>
		</g>
		<path class="st1" d="M336.72,277.79l-70.52,40.74c-2.29,1.32-6,1.32-8.3,0l0,0c-2.29-1.32-2.29-3.47,0-4.79l70.52-40.74
			c2.29-1.32,6-1.32,8.3,0l0,0C339.01,274.32,339.01,276.46,336.72,277.79z"/>
		<path class="st1" d="M426.89,225.69l-70.52,40.74c-2.29,1.32-6,1.32-8.3,0l0,0c-2.29-1.32-2.29-3.47,0-4.79l70.52-40.74
			c2.29-1.32,6-1.32,8.3,0l0,0C429.18,222.22,429.18,224.37,426.89,225.69z"/>
		<path class="st1" d="M467.39,245.05l-70.52,40.74c-2.29,1.32-6,1.32-8.3,0l0,0c-2.29-1.32-2.29-3.47,0-4.79l70.52-40.74
			c2.29-1.32,6-1.32,8.3,0l0,0C469.69,241.58,469.69,243.72,467.39,245.05z"/>
		<path class="st1" d="M334.31,321.93l-20.64,11.92c-2.29,1.32-6,1.32-8.3,0l0,0c-2.29-1.32-2.29-3.47,0-4.79l20.64-11.92
			c2.29-1.32,6-1.32,8.3,0l0,0C336.6,318.46,336.6,320.6,334.31,321.93z"/>
		<path class="st1" d="M511.29,219.69l-20.64,11.92c-2.29,1.32-6,1.32-8.3,0l0,0c-2.29-1.32-2.29-3.47,0-4.79L503,214.9
			c2.29-1.32,6-1.32,8.3,0l0,0C513.58,216.22,513.58,218.36,511.29,219.69z"/>
		<path class="st1" d="M350.74,248.3l-70.52,40.74c-2.29,1.32-6,1.32-8.3,0l0,0c-2.29-1.32-2.29-3.47,0-4.79l70.52-40.74
			c2.29-1.32,6-1.32,8.3,0l0,0C353.03,244.84,353.03,246.98,350.74,248.3z"/>
		<path class="st1" d="M394.64,222.95L374,234.87c-2.29,1.32-6,1.32-8.3,0l0,0c-2.29-1.32-2.29-3.47,0-4.79l20.64-11.92
			c2.29-1.32,6-1.32,8.3,0l0,0C396.93,219.48,396.93,221.62,394.64,222.95z"/>
	</g>
	<g>
		<g>
			<path class="st1" d="M319.53,406.23l-70.52,40.74c-2.29,1.32-6,1.32-8.3,0l0,0c-2.29-1.32-2.29-3.47,0-4.79l70.52-40.74
				c2.29-1.32,6-1.32,8.3,0l0,0C321.82,402.76,321.82,404.9,319.53,406.23z"/>
			<path class="st1" d="M374.01,374.76l-37.27,21.53c-2.29,1.32-6,1.32-8.3,0l0,0c-2.29-1.32-2.29-3.47,0-4.79l37.27-21.53
				c2.29-1.32,6-1.32,8.3,0h0C376.3,371.29,376.3,373.43,374.01,374.76z"/>
		</g>
		<path class="st1" d="M340.44,372.77l-70.52,40.74c-2.29,1.32-6,1.32-8.3,0l0,0c-2.29-1.32-2.29-3.47,0-4.79l70.52-40.74
			c2.29-1.32,6-1.32,8.3,0l0,0C342.73,369.31,342.73,371.45,340.44,372.77z"/>
		<path class="st1" d="M430.62,320.68l-70.52,40.74c-2.29,1.32-6,1.32-8.3,0l0,0c-2.29-1.32-2.29-3.47,0-4.79l70.52-40.74
			c2.29-1.32,6-1.32,8.3,0l0,0C432.91,317.21,432.91,319.36,430.62,320.68z"/>
		<path class="st1" d="M471.12,340.04l-70.52,40.74c-2.29,1.32-6,1.32-8.3,0l0,0c-2.29-1.32-2.29-3.47,0-4.79l70.52-40.74
			c2.29-1.32,6-1.32,8.3,0l0,0C473.41,336.57,473.41,338.71,471.12,340.04z"/>
		<path class="st1" d="M338.03,416.92l-20.64,11.92c-2.29,1.32-6,1.32-8.3,0l0,0c-2.29-1.32-2.29-3.47,0-4.79l20.64-11.92
			c2.29-1.32,6-1.32,8.3,0l0,0C340.32,413.45,340.32,415.59,338.03,416.92z"/>
		<path class="st1" d="M515.02,314.68l-20.64,11.92c-2.29,1.32-6,1.32-8.3,0l0,0c-2.29-1.32-2.29-3.47,0-4.79l20.64-11.92
			c2.29-1.32,6-1.32,8.3,0l0,0C517.31,311.21,517.31,313.35,515.02,314.68z"/>
		<path class="st1" d="M354.47,343.29l-70.52,40.74c-2.29,1.32-6,1.32-8.3,0l0,0c-2.29-1.32-2.29-3.47,0-4.79l70.52-40.74
			c2.29-1.32,6-1.32,8.3,0l0,0C356.76,339.82,356.76,341.97,354.47,343.29z"/>
		<path class="st1" d="M398.36,317.93l-20.64,11.92c-2.29,1.32-6,1.32-8.3,0l0,0c-2.29-1.32-2.29-3.47,0-4.79l20.64-11.92
			c2.29-1.32,6-1.32,8.3,0l0,0C400.66,314.47,400.66,316.61,398.36,317.93z"/>
	</g>
	<g>
		<g>
			<path class="st1" d="M427.73,386.02l-70.52,40.74c-2.29,1.32-6,1.32-8.3,0l0,0c-2.29-1.32-2.29-3.47,0-4.79l70.52-40.74
				c2.29-1.32,6-1.32,8.3,0l0,0C430.02,382.55,430.02,384.69,427.73,386.02z"/>
			<path class="st1" d="M482.21,354.54l-37.27,21.53c-2.29,1.32-6,1.32-8.3,0l0,0c-2.29-1.32-2.29-3.47,0-4.79l37.27-21.53
				c2.29-1.32,6-1.32,8.3,0l0,0C484.5,351.08,484.5,353.22,482.21,354.54z"/>
		</g>
		<path class="st1" d="M448.63,352.56l-70.52,40.74c-2.29,1.32-6,1.32-8.3,0l0,0c-2.29-1.32-2.29-3.47,0-4.79l70.52-40.74
			c2.29-1.32,6-1.32,8.3,0l0,0C450.92,349.09,450.92,351.24,448.63,352.56z"/>
		<path class="st1" d="M538.81,300.47l-70.52,40.74c-2.29,1.32-6,1.32-8.3,0h0c-2.29-1.32-2.29-3.47,0-4.79l70.52-40.74
			c2.29-1.32,6-1.32,8.3,0l0,0C541.1,297,541.1,299.15,538.81,300.47z"/>
		<path class="st1" d="M579.31,319.82l-70.52,40.74c-2.29,1.32-6,1.32-8.3,0l0,0c-2.29-1.32-2.29-3.47,0-4.79l70.52-40.74
			c2.29-1.32,6-1.32,8.3,0l0,0C581.6,316.36,581.6,318.5,579.31,319.82z"/>
		<path class="st1" d="M446.23,396.71l-20.64,11.92c-2.29,1.32-6,1.32-8.3,0l0,0c-2.29-1.32-2.29-3.47,0-4.79l20.64-11.92
			c2.29-1.32,6-1.32,8.3,0l0,0C448.52,393.24,448.52,395.38,446.23,396.71z"/>
		<path class="st1" d="M623.21,294.47l-20.64,11.92c-2.29,1.32-6,1.32-8.3,0l0,0c-2.29-1.32-2.29-3.47,0-4.79l20.64-11.92
			c2.29-1.32,6-1.32,8.3,0l0,0C625.5,291,625.5,293.14,623.21,294.47z"/>
		<path class="st1" d="M462.66,323.08l-70.52,40.74c-2.29,1.32-6,1.32-8.3,0l0,0c-2.29-1.32-2.29-3.47,0-4.79l70.52-40.74
			c2.29-1.32,6-1.32,8.3,0l0,0C464.95,319.61,464.95,321.76,462.66,323.08z"/>
		<path class="st1" d="M506.56,297.72l-20.64,11.92c-2.29,1.32-6,1.32-8.3,0l0,0c-2.29-1.32-2.29-3.47,0-4.79l20.64-11.92
			c2.29-1.32,6-1.32,8.3,0l0,0C508.85,294.25,508.85,296.4,506.56,297.72z"/>
	</g>
	<g>
		<path class="st1" d="M575.77,230.63l-70.52,40.74c-2.29,1.32-6,1.32-8.3,0h0c-2.29-1.32-2.29-3.47,0-4.79l70.52-40.74
			c2.29-1.32,6-1.32,8.3,0l0,0C578.06,227.16,578.06,229.31,575.77,230.63z"/>
		<path class="st1" d="M616.27,249.99l-70.52,40.74c-2.29,1.32-6,1.32-8.3,0v0c-2.29-1.32-2.29-3.47,0-4.79l70.52-40.74
			c2.29-1.32,6-1.32,8.3,0l0,0C618.56,246.52,618.56,248.66,616.27,249.99z"/>
		<path class="st1" d="M660.17,224.63l-20.64,11.92c-2.29,1.32-6,1.32-8.3,0l0,0c-2.29-1.32-2.29-3.47,0-4.79l20.64-11.92
			c2.29-1.32,6-1.32,8.3,0l0,0C662.46,221.16,662.46,223.3,660.17,224.63z"/>
		<path class="st1" d="M499.62,253.24l-70.52,40.74c-2.29,1.32-6,1.32-8.3,0l0,0c-2.29-1.32-2.29-3.47,0-4.79l70.52-40.74
			c2.29-1.32,6-1.32,8.3,0l0,0C501.91,249.78,501.91,251.92,499.62,253.24z"/>
		<path class="st1" d="M543.52,227.88l-20.64,11.92c-2.29,1.32-6,1.32-8.3,0l0,0c-2.29-1.32-2.29-3.47,0-4.79l20.64-11.92
			c2.29-1.32,6-1.32,8.3,0l0,0C545.81,224.42,545.81,226.56,543.52,227.88z"/>
	</g>
</g>
<path class="st1" d="M287.27,255.15c3.19,1.84,3.19,4.82,0,6.66c-3.19,1.84-8.35,1.84-11.53,0c-3.19-1.84-3.19-4.82,0-6.66
	C278.92,253.31,284.09,253.31,287.27,255.15z"/>
<g>
	<polygon class="st2" points="462.02,220.98 462.02,224.8 354.78,266.56 354.78,262.74 	"/>
	<path class="st2" d="M462.02,200.32v3.82c-14.42,5.6,29.76-11.59-71.37,27.8l20.34-11.75L462.02,200.32z"/>
	<polygon class="st3" points="462.02,200.32 410.99,220.2 455.33,194.6 	"/>
	<path class="st4" d="M369.85,243.95v-3.82l91.47-52.81v3.82C441.44,202.61,410.9,220.26,369.85,243.95z"/>
	<path class="st5" d="M457,220.92l-100.44,39.11v-14.81l9.24-3.6v-0.01l4.05,2.34l20.8-12.01L457,206.11
		C457,209.54,457,217.47,457,220.92z"/>
	<path class="st5" d="M456.36,187.81l-85.66,49.46v-14.46l85.66-49.46C456.36,178.79,456.36,182.45,456.36,187.81z"/>
	<path class="st4" d="M369.85,223.3v-3.82l91.47-52.81v3.82C454.4,174.48,371.22,222.51,369.85,223.3z"/>
	<path class="st2" d="M365.8,241.61L365.8,241.61c-10.81,4.22-8.67,3.38-11.02,4.3v-3.82l7.08-2.75L365.8,241.61z"/>
	<polygon class="st3" points="361.85,239.34 354.78,242.09 330.24,221.09 	"/>
	<path class="st3" d="M356.56,260.02L457,220.92v-4.24l5.03,4.3l-107.25,41.76l-20.44-17.51c0.35-1.01,0.93-1.93,1.73-2.75
		L356.56,260.02z"/>
	<path class="st6" d="M356.56,245.22v14.81l-20.49-17.54c0.91-0.95,2.11-1.78,3.56-2.5c0-0.17,0-0.34,0-0.51
		c-3.24-2.77-6.47-5.54-9.71-8.31c-1.59,0.77-2.9,1.69-3.87,2.74c-0.21-0.21,0.13,0.11-18.32-15.68c-1.61-1.38-2.79-4.29-2.79-6.47
		v-5.28l11.6,6.7l38.24,32.74L356.56,245.22z"/>
	<path class="st7" d="M354.78,262.74v3.82l-20.84-17.84c-0.12-1.27,0.02-2.43,0.4-3.49L354.78,262.74z"/>
	<path class="st7" d="M354.78,242.09v3.82l-38.24-32.74l13.68,7.91C330.3,221.12,329.57,220.51,354.78,242.09z"/>
	<path class="st8" d="M339.62,239.47c-5.33,2.61-7.47,6.74-5.54,12.51l-9.71-8.31c-1.89-5.72,0.17-9.9,5.54-12.51
		C333.15,233.93,336.39,236.71,339.62,239.47z"/>
	<path class="st9" d="M334.08,251.99c-1.93-5.78,0.21-9.9,5.54-12.51c0,0.17,0,0.34,0,0.51c-5.2,2.57-6.82,6.49-5.03,11.72
		L334.08,251.99z"/>
	<path class="st6" d="M305.47,186.19c0.46,0.19-3.94-2.33,64.38,37.12l0.85-0.49v14.46l-61.75-35.65c-1.96-1.14-3.53-3.86-3.53-6.12
		C305.42,186.19,305.4,186.6,305.47,186.19z"/>
	<path class="st10" d="M305.47,186.19c-0.08,0.45-0.05,0-0.05,9.32c0,2.25,1.57,4.98,3.53,6.12l61.75,35.65l85.66-49.46v-3.35
		l4.95,2.86l-91.47,52.81l-63.8-36.83c-1.95-1.12-3.53-3.84-3.53-6.12v-8.67c0-0.7,0.19-1.57,0.7-2.05
		C303.69,186.02,304.5,185.82,305.47,186.19z"/>
	<path class="st3" d="M304.94,206.47v5.28c0,2.18,1.19,5.09,2.79,6.47c21.22,18.16,18.04,15.4,18.32,15.68
		c-0.8,0.82-1.39,1.73-1.78,2.71c-0.08,0,0.01,0.01-19.95-17.07c-1.57-1.35-2.79-4.24-2.79-6.47c0-9.63-0.03-8.64,0.07-8.75
		C302.35,205.06,302.81,205.24,304.94,206.47z"/>
	<path class="st10" d="M300.24,180.49c98.19-56.69,91.54-52.94,92.09-53.02c0.57-0.07,1.13,0.02,1.88,0.45l67.11,38.75l-91.47,52.81
		c-71.53-41.3-67.45-39.08-68.33-39.2C301.09,180.23,300.62,180.29,300.24,180.49z"/>
	<path class="st11" d="M388.13,150.13l29.1,16.8c1.19,0.69,3.13,0.69,4.32,0l1.43-0.83c1.19-0.69,1.19-1.8,0-2.49l-29.1-16.8
		c-1.19-0.69-3.13-0.69-4.32,0l-1.43,0.83C386.94,148.32,386.94,149.44,388.13,150.13z"/>
	<path class="st7" d="M299.21,199.09c0,1.8,0.99,3.9,2.4,5.24c-0.11,0.11-0.07-0.6-0.07,8.75c0,2.24,1.22,5.12,2.79,6.47
		c20.28,17.36,19.86,17.07,19.95,17.07c-0.41,1.02-0.61,2.12-0.59,3.32c-0.08,0,0.29,0.26-21.97-18.8
		c-1.57-1.35-2.79-4.24-2.79-6.47v-16.31c0-0.52,0.06-1.09,0.29-1.56V199.09z"/>
	<path class="st12" d="M379.11,263.85c-2.14,0.83-4.15,1.6-6.16,2.39c-1.91,0.75-3.66,0.74-5.13-0.92
		c-1.46-1.64-3.15-1.76-5.08-0.85c-1.44,0.68-2.94,1.26-4.46,1.74c-1.03,0.32-3.5,0.35-3.5,0.35v-3.82c0,0,4.33-1.68,5.82-2.67
		c-1.28-0.1-4.04-0.05-4.04-0.05v-8.04c0,0-0.58-2.24-1.47-3c-8.16-6.92-16.3-13.86-24.39-20.86c-1.16-1-2.46-1.27-3.84-1.51
		c-2.95-0.51-5.89-1.15-8.87-1.5c-2.38-0.28-3.43-1.69-3.94-3.77c-0.41-1.64-0.86-3.27-1.14-4.94c-0.42-2.52-2.17-6.16-4.42-7.89
		c6.39,3.11,13.99,8.08,20.68,11.95c-1.57,0-2.58,0-4.11,0c9.98,8.63,29.7,25.44,29.7,25.44l0-3.82l7.08-2.76l1.3,0.81
		c0,0,4.19,2.39,6.53,3.72c0.11-1.45,0.2-2.54,0.29-3.67c1.25-0.83,2.8-1.66,4.39-2.71c-1.28-0.15-3.66-0.21-3.66-0.21
		s-0.05-4.57,0.08-6.6c0.12-1.77-0.64-2.41-2.07-3.23c-13.51-7.76-27-15.57-40.5-23.35c-5.2-3-10.41-6.01-15.63-8.98
		c-3.28-1.87-4.41-1.22-4.48,2.47c-0.02,1.01,0,2.03,0,3.26c-2.16,0.04-3.97-0.66-5.29-1.85c0,0-0.74-1.59-0.29-2.98
		c0,0-0.81-8.2-0.37-9.26c0.73-1.74,2.86-0.72,2.86-0.72c0.94,0.41,1.84,0.93,2.73,1.45c19.43,11.21,38.86,22.43,58.3,33.65
		c1.12,0.64,3.81,2.18,3.81,2.18v-3.82l91.47-52.81v3.82l-4.95,2.86v11.11l4.95,2.86v3.82l-3.77,2.2
		c12.68,7.57,25.65,14.52,38.4,22.15c-1.28,0.82-2.2,1.45-3.16,2c-26.51,15.29-53.03,30.56-79.55,45.85
		c-2.44,1.41-4.89,2.79-7.3,4.26c-1.89,1.15-3.74,1.02-5.6,0.06c-0.83-0.43-1.67-0.87-2.44-1.41c-1.42-0.99-2.81-0.84-4.23-0.04
		c-0.73,0.42-1.48,0.83-2.18,1.29c-2.04,1.32-4.07,1.17-6.1,0C383.29,266.28,381.18,265.06,379.11,263.85z"/>
	<path class="st13" d="M337.13,251.62c-1.13,0-2.13,0.36-3.05,0.36c-1.93-6.08,0.45-10.21,5.54-12.51c1.12,1.88,0.37,4.6,1.08,6.87
		c-1.21,0.47-2.31,0.89-3.58,1.38C337.13,248.9,337.13,250.15,337.13,251.62z"/>
	<path class="st13" d="M308.5,208.53c-2.95,1.95-1.89,5.05-1.43,9.02c-1.41-0.59-4.1-3.34-5.52-3.92c0-3.3,0.05-6.22,0.05-9.29
		C303.5,204.57,306.12,206.57,308.5,208.53z"/>
	<path class="st14" d="M299.91,180.73c0.42-0.39,1.05-0.52,1.61-0.44c0.89,0.11-3.18-2.09,68.33,39.2v3.82
		c-68.14-39.34-64.18-37.17-65.02-37.29c-0.55-0.07-1.18,0.05-1.61,0.44c-0.51,0.48-0.7,1.35-0.7,2.05v8.67
		c0,2.28,1.58,4.99,3.53,6.12l63.8,36.83v3.82c-1.84-1.06-60.54-34.96-67.11-38.75c-1.92-1.1-3.53-3.81-3.53-6.12
		c0-4.17,0-12.13,0-16.31C299.21,182.07,299.4,181.2,299.91,180.73z"/>
</g>
<path class="st1" d="M627.62,343.45c3.19,1.84,3.19,4.82,0,6.66c-3.19,1.84-8.35,1.84-11.53,0c-3.19-1.84-3.19-4.82,0-6.66
	C619.27,341.61,624.43,341.61,627.62,343.45z"/>
<g>
	<g>
		<linearGradient id="SVGID_1_" gradientUnits="userSpaceOnUse" x1="448.4719" y1="192.6475" x2="554.1058" y2="192.6475">
			<stop  offset="0" style="stop-color:#C4B8E9"/>
			<stop  offset="0.4166" style="stop-color:#B2CFDE"/>
			<stop  offset="1" style="stop-color:#FFCADE"/>
		</linearGradient>
		<path class="st15" d="M448.49,263.81c0.32,3.33,0.97,5.82,2.49,8.87c1.23,2.47,3.44,5.56,5.53,7.38c2.34,2.04,5.18,3.44,7.93,4.94
			c4.14,2.24,7.98,4.64,11.96,7.03c1.02,0.61,66.6,38.48,67.7,38.93c5.43,2.29,9.47-1,9.47-7.18c0.43-180.92,0.2-146.95,0.35-157.73
			c0.05-7.88,0.25-15.8,0.15-23.68c-0.05-5.23-0.2-10.42-0.1-15.7c0.05-2.19,0.15-4.44-0.1-6.58c-0.93-6.53-4.74-12.41-8.87-15.65
			c-1.69-1.35-3.64-2.39-5.58-3.44c-3.09-1.74-6.08-3.54-9.07-5.28c-10.3-6.02-20.55-11.63-34.2-19.64
			c-24.92-14.83-23.13-12.82-29.61-17c-4.48-2.9-10.47-7.58-14.86-4.39c-3.12,2.23-2.84,6.92-2.74,10.37
			c0.16,5.01-0.26,3.98-0.05,22.33C448.93,95.92,448.36,261.11,448.49,263.81z M512.2,91.82c0,0.1,0,0.25-0.05,0.35
			c-0.05,0.15-0.05,0.25-0.15,0.3c-0.05,0.1-0.1,0.15-0.2,0.2c-0.66,0.33,0.48,0.78-19.69-10.87c-0.15-0.1-0.25-0.2-0.35-0.3
			c-0.24-0.16-0.52-0.52-0.6-0.75c-0.51-0.77-0.4-1.25-0.4-2.79c0-0.4,0.07-0.73,0.4-0.9c0.14-0.14,0.41-0.11,0.6-0.05
			c0.1,0,0.25,0.05,0.35,0.15c2.94,1.76,18.72,10.69,19.09,11.07c0.32,0.32,0.55,0.45,0.8,1.2C512.29,89.85,512.2,90.68,512.2,91.82
			z"/>
		<g>
			<g>
				<path class="st16" d="M476.32,106.6l-14.75-8.52c-1.81-1.04-3.27-3.36-3.27-5.17l0,0c0-1.81,1.47-2.43,3.27-1.38l14.75,8.52
					c1.81,1.04,3.27,3.36,3.27,5.16l0,0C479.6,107.03,478.13,107.65,476.32,106.6z"/>
				<path class="st16" d="M476.32,115.8l-14.75-8.52c-1.81-1.04-3.27-3.36-3.27-5.17l0,0c0-1.81,1.47-2.43,3.27-1.38l14.75,8.52
					c1.81,1.04,3.27,3.36,3.27,5.17l0,0C479.6,116.23,478.13,116.85,476.32,115.8z"/>
			</g>
			<path class="st16" d="M536.46,126.45L464.85,85.1c-3.72-2.15-6.74-6.91-6.74-10.64l0,0c0-3.72,3.02-5,6.74-2.85l71.61,41.35
				c3.72,2.15,6.74,6.91,6.74,10.64l0,0C543.21,127.32,540.19,128.6,536.46,126.45z"/>
		</g>
		<path class="st17" d="M492.36,77.31c20.01,11.54,19.18,10.74,19.64,12.11c0.1,0.15,0.15,0.3,0.15,0.45
			c0.05,0.15,0.05,0.3,0.05,0.45v1.2c-20.4-11.8-18.55-10.67-18.99-11.12c-0.46-0.47-0.85-1.21-0.85-1.94V77.31z"/>
		<path class="st18" d="M491.76,77.01c0.1,0,0.25,0.05,0.35,0.15l0.25,0.15c0,1.39-0.02,1.36,0.1,1.84c0.27,0.8,0.79,1.39,1.3,1.69
			l18.45,10.67v0.3c0,0.1,0,0.25-0.05,0.35c-0.05,0.15-0.05,0.25-0.15,0.3c-0.05,0.1-0.1,0.15-0.2,0.2c-0.25,0.13-0.16,0.1-0.6,0.1
			c-0.1-0.05-0.25-0.1-0.35-0.15c-19.15-11.05-19.4-10.98-19.69-11.86c-0.53-0.79-0.4-1.38-0.4-2.79c0-0.25,0.02-0.43,0.15-0.7
			C491.19,76.99,491.38,76.89,491.76,77.01z"/>
		<path class="st19" d="M460.01,52.14c-3.77-2.21-7.14-2.25-9.57-1c14.75-8.32,14.46-8.64,16.45-8.87c2.94-0.34,4.84,0.45,7.28,1.74
			l82.95,47.91c6.94,3.89,13.61,14.37,13.61,23.63c-0.48,215.52-0.37,202.09-0.6,204.14c-0.36,2.35-1.77,5.1-3.84,6.28
			c-17.81,10.15-13.7,8.06-12.86,7.23c1.94-1.89,2.69-5.23,2.74-7.93l0.4-201.6c0-8.46-5.74-19.02-13.61-23.63L460.01,52.14z"/>
		<path class="st20" d="M542.96,100.04l-82.95-47.91c-3.78-2.21-7.15-2.25-9.57-1c0,0.05-0.05,0.05-0.05,0.05
			c-2.88,1.28-4.04,5.53-4.04,8.82l-0.39,189.79l-0.01-0.01v11.82c0,8.38,5.54,18.82,13.56,23.63l83,47.91
			c7.03,4.12,13.49,1.34,13.66-7.88l0.4-201.6C556.57,115.26,550.88,104.68,542.96,100.04z M553.93,166.05
			c-0.15,10.25,0.08-22.37-0.35,157.73c0,6.17-4.04,9.47-9.47,7.18c-1.06-0.44-66.71-38.35-67.7-38.93
			c-3.99-2.39-7.83-4.79-11.96-7.03c-2.74-1.5-5.58-2.89-7.93-4.94c-2.09-1.81-4.3-4.9-5.53-7.38c-1.53-3.05-2.17-5.54-2.49-8.87
			c-0.12-2.51,0.03-1.43,0.05-10.3l0,0c0-117.62,0.39-157.55,0.35-166.12c-0.21-18.35,0.21-17.32,0.05-22.33
			c-0.08-2.8-0.28-5.85,1.05-8.38c0.94-1.67,2.22-2.55,3.49-2.84c3.93-1.31,9.59,3,13.06,5.23c3.64,2.34,7.58,4.34,11.42,6.43
			c9.11,4.92,15.35,9.13,36.39,21.04c22.26,12.69,19.53,11.33,25.08,14.46c3.88,2.09,6.43,3.57,9.27,7.18
			c1.87,2.46,2.97,4.54,3.89,6.83c1.66,4.58,1.5,6.95,1.4,11.67c-0.1,5.28,0.05,10.47,0.1,15.7
			C554.18,150.25,553.98,158.17,553.93,166.05z"/>
		<g>
			<path class="st16" d="M543.21,256.93c0,2.96-2.4,3.98-5.36,2.27l-74.05-42.75c-2.96-1.71-5.36-5.5-5.36-8.46v-41.4
				c0-2.96,2.4-3.98,5.36-2.27l74.05,42.75c2.96,1.71,5.36,5.5,5.36,8.46V256.93z"/>
			
				<ellipse transform="matrix(0.7992 -0.6011 0.6011 0.7992 -26.7104 343.5674)" class="st21" cx="500.82" cy="211.76" rx="8.96" ry="15.83"/>
			<path class="st16" d="M506.85,214.3c0.43,0.5,0.69,1.11,0.69,1.6c0,0.5-0.26,0.8-0.69,0.8h-7.95c-0.43,0-0.96-0.31-1.39-0.8
				c-0.43-0.5-0.69-1.11-0.69-1.6v-9.18c0-0.5,0.26-0.8,0.69-0.8c0.43,0,0.96,0.31,1.39,0.8L506.85,214.3z"/>
		</g>
		<g>
			<path class="st16" d="M543.21,313.55c0,2.96-2.4,3.98-5.36,2.27l-74.05-42.75c-2.96-1.71-5.36-5.5-5.36-8.46v-41.4
				c0-2.96,2.4-3.98,5.36-2.27l74.05,42.75c2.96,1.71,5.36,5.5,5.36,8.46V313.55z"/>
			<path class="st21" d="M512.72,275.25c0,6.58-5.33,8.83-11.91,5.03s-11.91-12.21-11.91-18.78c0-6.58,5.33-8.83,11.91-5.03
				C507.39,260.26,512.72,268.67,512.72,275.25z"/>
			<path class="st16" d="M506.85,270.92c0.43,0.5,0.69,1.11,0.69,1.6c0,0.5-0.26,0.8-0.69,0.8h-7.95c-0.43,0-0.96-0.31-1.39-0.8
				c-0.43-0.5-0.69-1.11-0.69-1.6v-9.18c0-0.5,0.26-0.8,0.69-0.8c0.43,0,0.96,0.31,1.39,0.8L506.85,270.92z"/>
		</g>
		<g>
			<path class="st16" d="M543.21,200.46c0,2.96-2.4,3.98-5.36,2.27l-74.05-42.75c-2.96-1.71-5.36-5.5-5.36-8.46v-35.4
				c0-2.96,2.4-3.98,5.36-2.27l74.05,42.75c2.96,1.71,5.36,5.5,5.36,8.46V200.46z"/>
		</g>
		<path class="st21" d="M512.72,165.17c0,6.58-5.33,8.83-11.91,5.03s-11.91-12.21-11.91-18.78c0-6.58,5.33-8.83,11.91-5.03
			C507.39,150.18,512.72,158.59,512.72,165.17z"/>
		<path class="st16" d="M506.85,160.84c0.43,0.5,0.69,1.11,0.69,1.6s-0.26,0.8-0.69,0.8h-7.95c-0.43,0-0.96-0.31-1.39-0.8
			c-0.43-0.5-0.69-1.11-0.69-1.6v-9.18c0-0.5,0.26-0.8,0.69-0.8c0.43,0,0.96,0.31,1.39,0.8L506.85,160.84z"/>
	</g>
	<path class="st12" d="M556.31,257.71l0.27-134.04c0,0,10.26,1.7,12.75-15.95c1.96,2.84,1.4,21.11,1.4,21.11l-0.31,129.42
		c0,0,18.66,0.39,28.48,0.22c8.92-0.15,16.92,2.13,24.5,6.54c0.1,0.06,31.41,17.86,58.32,33.66c3.56,2.09,7.75,3.57,10.16,8.09
		c-5.77,4.99-11.49,8.35-19.46,8.23c-24.12-0.36-48.25,0.05-72.38-0.26c-5.92-0.07-10.93,1.45-15.86,4.36
		c-9.09,5.37-18.33,10.51-27.4,15.91c-3.74,2.22-7.34,1.83-11.27-0.52c13.5,4.18,10.69-17.53,10.69-17.53L556.31,257.71z"/>
</g>
<g>
	<g>
		<path class="st22" d="M596.77,356.62v-11.24c0-1.56-1.09-3.44-2.43-4.22l63.06-36.41c1.35,0.78,2.43,2.66,2.43,4.21v11.25
			c0,0.86-0.34,1.36-0.71,1.58c-21.02,12.13-42.03,24.27-63.04,36.4C596.6,357.84,596.77,357.24,596.77,356.62z"/>
		<path class="st23" d="M657.4,304.75l-63.06,36.41l-5.22-3.02c-1.53-14.91-3.05-29.83-4.57-44.75l26.59-15.35L657.4,304.75z"/>
		<path class="st23" d="M595.81,358.32c-0.46,0.14-1.05-0.05-1.47-0.29l-3.39-1.96c-0.1-0.93-0.19-1.87-0.29-2.8
			c1.43,0.83,1.72,1.05,2.24,1.12c0.44,0.06,0.85-0.1,0.91-0.17c0.4-0.23,0.57-0.66,0.64-1.11c0.06-0.3,0.04,0.17,0.04-6.42
			c0-1.55-1.08-3.44-2.43-4.22l-2.66-1.54c-0.1-0.93-0.19-1.86-0.29-2.8l5.22,3.02c1.34,0.78,2.43,2.65,2.43,4.22v11.24
			c0,0.62-0.17,1.22-0.69,1.57C596.07,358.2,595.93,358.28,595.81,358.32z"/>
		<path class="st24" d="M594.45,353.12c-0.25-0.09-0.12-0.04-4.04-2.3c-0.34-3.29-0.68-6.58-1.01-9.88l2.66,1.54
			c1.35,0.78,2.43,2.67,2.43,4.22C594.49,353.16,594.51,352.82,594.45,353.12z"/>
		<path class="st25" d="M593.78,354.25c-0.56,0.29-1.17,0.15-1.72-0.17l-1.4-0.81h-0.01c-0.08-0.82-0.17-1.63-0.25-2.45
			c3.89,2.25,3.8,2.21,4.04,2.3c-0.07,0.45-0.24,0.88-0.64,1.11C593.8,354.24,593.79,354.25,593.78,354.25z"/>
		<path class="st26" d="M590.95,356.07c0.13,1.26,0.26,2.51,0.38,3.77c0.05,0.53-0.21,1.2-0.99,1.76l-9.68,6.83
			c-1.37,0.96-3.54,1.06-4.86,0.3l-6.35-62.16c0-1.67,0-3.34,0-5.01c0.03-0.46-0.29-0.87-0.65-1.15l0.02-0.02
			c1.32,0.77,3.49,0.66,4.86-0.3l9.68-6.83c0.75-0.53,1.06-1.16,0.99-1.75C584.4,291.5,587.02,318.41,590.95,356.07z"/>
		<path class="st27" d="M579.46,292.92c-0.13-0.13-0.29-0.23-0.44-0.33h-0.01l-0.22-2.16C579.79,291,580.13,292.02,579.46,292.92z"
			/>
		<path class="st24" d="M579.46,292.92c-0.34,0.47-0.37,0.43-5.79,4.26c-1.35,0.95-3.52,1.07-4.85,0.3l-40.76-23.53
			c8.3-5.86,6.75-4.77,8.39-5.93C582.25,294.46,579.24,292.71,579.46,292.92z"/>
		<polygon class="st27" points="579.01,292.59 536.44,268.02 535.2,268.89 534.81,265.03 578.79,290.43 		"/>
		<path class="st26" d="M569.45,306.57l6.35,62.16l-6.35-3.67C569.45,345.57,569.45,326.08,569.45,306.57z"/>
		<path class="st28" d="M569.45,374.38c0,0.43-0.26,0.98-1.01,1.41l-9.73,5.62c-0.96,0.55-2.48,0.77-3.87,0.4
			c0-23.93,0-47.85,0-71.77c0-0.32-0.13-0.63-0.31-0.88c-0.19-0.24-0.43-0.42-0.69-0.57c1.34,0.78,3.52,0.78,4.87,0
			c10.57-6.11,10.08-5.75,10.43-6.19c0.18-0.24,0.3-0.54,0.31-0.83C569.45,322.95,569.45,336.84,569.45,374.38z"/>
		<path class="st29" d="M564.87,301.29c0.1,0.39-0.06,0.98-0.62,1.43c-0.22-0.19,2.72,1.53-42.94-24.83l-1.41,0.82v-3.95
			l43.98,25.39C564.3,300.4,564.75,300.82,564.87,301.29z"/>
		<path class="st24" d="M558.71,305.96c-1.35,0.78-3.53,0.78-4.87,0l-40.56-23.42c7.55-4.36,6.18-3.57,8.04-4.65
			c45.64,26.35,42.72,24.64,42.94,24.83C564.01,302.92,564.14,302.83,558.71,305.96z"/>
		<path class="st30" d="M554.84,310.04c0,21.25,0,46.43,0,72.78c0,0.43-0.26,0.98-1,1.4l-9.74,5.62c-1.34,0.77-3.51,0.79-4.87,0
			v-72.82c1.36,0.79,3.53,0.77,4.87,0l9.74-5.62C554.33,311.12,554.84,310.62,554.84,310.04z"/>
		<path class="st4" d="M550.26,309.72c0.1,0.4-0.09,1.03-0.62,1.43c-0.22-0.19,2.72,1.53-42.94-24.83l-1.41,0.82v-3.95l43.98,25.39
			C549.69,308.84,550.14,309.26,550.26,309.72z"/>
		<path class="st24" d="M549.64,311.16c-0.23,0.19-0.05,0.07-5.54,3.24c-1.34,0.77-3.52,0.78-4.87,0l-40.57-23.42
			c7.56-4.36,6.18-3.57,8.04-4.65C552.34,312.68,549.42,310.97,549.64,311.16z"/>
		<polygon class="st4" points="539.23,317.03 539.23,389.85 492.96,363.14 492.96,290.32 		"/>
		<path class="st12" d="M541.12,390.59c0-24.43,0-48.61,0-72.91c3.01-0.31,5.29-2.25,7.82-3.64c2.11-1.16,2.79-4.25,4.89-5.44
			c0.64-0.36,1.9,0.24,3.06,0.38c0.67,0.08,1.45-0.42,2.13-0.75c0.75-0.36,1.45-0.84,2.17-1.25c0.66-0.38,1.34-0.74,2-1.13
			c1.96-1.19,3.91-2.41,5.88-3.58c0.31-0.18-0.66-1.76-0.28-1.84c0.04-0.34,1.47,0.91,1.51,0.57c0.13-0.07,0.24-0.2,0.36-0.2
			c1.78-0.01,3.16-0.94,4.53-1.93c2.94-2.11,5.92-4.76,9.14-7.05c0.23,1.95,0.42,4.26,0.6,6.01c0.83,7.95,1.66,15.9,2.48,23.85
			c0.11,1.04,0.22,2.38,0.3,3.42c0.09,1.33,0.54,1.96,1.81,2.65c3.98,2.16,7.9,4.44,11.79,6.75c1.78,1.06,3.46,2.29,5.46,3.63
			c17.47-9.99,34.76-20.08,52.9-30.45c0,2.43,0.35,4.4,0.21,6.33c-0.12,1.67,0.52,2.4,2.04,3.18c2.54,1.3,4.97,2.82,7.43,4.26
			c0.46,0.27,0.87,0.62,1.6,1.14c-17.95,10.37-35.65,20.59-53.57,30.94c0.53,0.42,0.85,0.74,1.23,0.97
			c5.42,3.15,10.86,6.28,16.28,9.43c0.82,0.47,1.96,0.79,1.87,2c-0.07,1.04-1.09,1.36-1.88,1.78c-2.84,1.49-5.72,2.9-8.5,4.49
			c-1.71,0.98-3.44,1.47-5.43,1.1c-0.12,0.7-0.06,1.43-0.38,1.91c-0.36,0.54-1.03,0.92-1.63,1.27c-2.34,1.38-4.71,2.71-7.05,4.09
			c-1.64,0.97-3.28,1.89-5.54,1.4c0.08,1.59-0.84,2.29-1.98,2.93c-2.86,1.6-5.68,3.26-8.5,4.93c-1.2,0.72-2.5,0.77-3.83,0.77
			c-16.19-0.01-32.37-0.01-48.56-0.01C542.75,390.59,542,390.59,541.12,390.59z"/>
		<path class="st31" d="M578.79,290.43l-43.98-25.39l2.27-1.6l46.26,26.71c1.25,0.71,1.45,2.1,0.02,3.11l-9.68,6.83
			c-1.37,0.96-3.54,1.07-4.86,0.3l-0.02,0.02c-0.25-0.21,2.98,1.68-46.23-26.74l2.26-1.59c4.68,2.7-2.02-1.17,43.98,25.39
			c1.33,0.77,3.5,0.65,4.85-0.3l5.15-3.64C580.22,292.54,580.06,291.15,578.79,290.43z"/>
		<path class="st14" d="M550.28,310c0.04-0.58-0.5-1.11-1-1.41l-43.98-25.39l2.28-1.31c49.43,28.54,46.59,26.81,46.96,27.28
			c0.65,0.87,0.23,1.7-0.69,2.24l-9.74,5.62c-1.34,0.77-3.51,0.79-4.87,0l-46.27-26.71l2.28-1.31c4.07,2.35-4.8-2.78,43.98,25.39
			c1.35,0.78,3.53,0.77,4.87,0c5.46-3.16,5.5-3.11,5.87-3.56C550.14,310.6,550.27,310.3,550.28,310z"/>
		<path class="st32" d="M568.8,300.41c0.36,0.29,0.68,0.7,0.65,1.15c-0.02,0.64-0.46,1.09-1.01,1.4l-9.73,5.62
			c-1.35,0.78-3.53,0.78-4.87,0l-46.27-26.71l2.28-1.32c28.2,16.32,43.89,25.34,43.98,25.39c1.34,0.78,3.52,0.78,4.87,0
			c5.12-2.96,5.3-3.04,5.54-3.24c0.37-0.3,0.62-0.7,0.64-1.16c0.04-0.58-0.51-1.12-1-1.4l-43.98-25.39l2.28-1.32
			C522.24,273.48,568.52,300.17,568.8,300.41z"/>
	</g>
	<path class="st22" d="M604.2,292.92l29.1,16.8c1.19,0.69,3.13,0.69,4.32,0l1.43-0.83c1.19-0.69,1.19-1.8,0-2.49l-29.1-16.8
		c-1.19-0.69-3.13-0.69-4.32,0l-1.43,0.83C603.01,291.12,603.01,292.24,604.2,292.92z"/>
	<path class="st33" d="M530.63,328.44l-29.1-16.8c-1.19-0.69-2.16-0.28-2.16,0.91v1.43c0,1.19,0.97,2.72,2.16,3.41l29.1,16.8
		c1.19,0.69,2.16,0.28,2.16-0.91v-1.43C532.79,330.65,531.83,329.12,530.63,328.44z"/>
	<path class="st33" d="M530.63,338.61l-29.1-16.8c-1.19-0.69-2.16-0.28-2.16,0.91v1.43c0,1.19,0.97,2.72,2.16,3.41l29.1,16.8
		c1.19,0.69,2.16,0.28,2.16-0.91v-1.43C532.79,340.82,531.83,339.3,530.63,338.61z"/>
</g>
<g>
	<g>
		<path class="st34" d="M435.46,135.28v6.59c-32.06,18.51-19.63,11.33-56.7,32.74v-6.59L435.46,135.28z"/>
		<path class="st35" d="M435.46,135.28l-56.7,32.73l-27.09-15.64c0.42-0.62,1.06-1.33,1.7-1.7c0.06-0.02,24.47-14.12,24.49-14.14
			c0.4-0.22,0.79-0.69,0.96-1.27c0.29-1.06-0.24-2.18-1.26-2.61c-0.72-0.3-1.53-0.16-1.97,0.13c-26,15.01-24.31,14.09-24.41,14.09
			c-1.38,0.82-2.48,1.99-3.32,3.31c-0.1-0.1,1.93,1.11-25.81-14.9l56.7-32.74L435.46,135.28z"/>
		<path class="st19" d="M409.2,176.23c0.06,1.65-0.3,3.31-0.95,4.74c0,0.01-0.01,0.01-0.01,0.02c-0.67,1.57-2.07,3.57-4.21,5.41
			c-12,10.46-39.32,10.38-51.09-0.49c0.03-0.47-0.04-0.65-0.04-0.75c-0.69-4.46-1.4-8.41-1.4-8.61c-0.1-0.63-0.42-1.21-0.95-1.64
			c0-5.53,0-11.07,0-16.6l28.2,16.28l30.45-17.58c0,6.52,0,13.03,0,19.55C409.21,176.46,409.21,176.34,409.2,176.23z"/>
		<path class="st20" d="M378.76,168.01v6.59l-28.2-16.28c0-2.9-0.05-3.04,0.15-3.81c0.2-0.77,0.54-1.49,0.97-2.13L378.76,168.01z"/>
		<path class="st36" d="M346.17,175.42c0-32.78,0,12.43,0-19.86c-0.03-3.04,1.98-6.89,5.01-8.69c0.1,0-1.46,0.84,24.41-14.09
			c-0.16,0.11,0.43-0.34,1.21-0.3c2.09,0.09,2.87,2.8,1.16,3.98c-0.56,0.4-24.47,14.05-25.09,14.55c-1.36,1.12-2.33,3.11-2.33,4.54
			c0,7.11,0,12.28,0,19.89c0,0.37-0.29,0.69-0.64,0.89C348.59,177.1,346.17,176.62,346.17,175.42z"/>
		<path class="st37" d="M346.17,175.46c0.02,0.41,0.32,0.71,0.68,0.9c1.5,0.81,3.7,0.12,3.7-0.91c0-0.13,0-0.4,0-0.53
			c0.27,0.22,0.5,0.49,0.66,0.79c0.17,0.33,0.29,0.75,0.29,0.87c0.33,1.71-3.45,2.69-5.5,1.38c-0.7-0.46-0.86-1.03-0.78-1.37
			c0-0.2,0.21-1.06,0.95-1.66C346.17,175.15,346.17,174.98,346.17,175.46z"/>
		<path class="st20" d="M346.17,155.79l-24.11-13.92v-6.59c27.67,15.97,25.71,14.8,25.81,14.9c-0.37,0.57-0.74,1.29-1.03,2.03
			C346.3,153.61,346.17,154.66,346.17,155.79z"/>
		<path class="st38" d="M345.48,177.48c1.37,1.77,6,1.23,6.04-0.72c0.01-0.16-0.25-1.7,1.37,8.33c0.01,0.03,0.01,0.05,0.01,0.08v0
			c0.4,2.16-1.53,4.37-4.97,4.14c-2.9-0.19-4.44-2.08-4.1-4.14c0-0.1,1.38-8.49,1.4-8.59C345.17,176.79,345.23,177.14,345.48,177.48
			z"/>
	</g>
	<path class="st12" d="M378.76,174.6c0,0,6.57,19.71,16.34,16.73l6.78,0.62l3.01-0.7l9.68-6.83c1.49-1.12,1.19-2.39-0.02-3.11
		l-4.07-2.39c-0.83-0.49-1.32-1.39-1.27-2.35l0,0v-19.55L378.76,174.6z"/>
</g>
<g>
	<path class="st39" d="M496.77,235.17c0,0.03,0,0.05,0,0.08c0,2.11-3.64,2.45-3.64,4.11c0,0.95,2.32,2.78,2.32,4.75
		c0,4.48-5.01,5.42-9.48,5.42c-0.74,0-1.45-0.02-2.14-0.04h0c-0.23-1.91-0.96-3.98-2.29-5.21c3.68-1.95,5.58-9.21,14.67-9.21
		C496.41,235.07,496.6,235.1,496.77,235.17z"/>
	<path class="st40" d="M413.92,239.74c1.4-1.11,3.05-1.96,4.85-2.57c0.14,1.05,0.43,2.05,0.85,2.83c0.98,0.27,1.99,0.39,3.01,0.39
		c2.59,0,5.24-0.76,7.64-1.63c0.17-0.68,0.3-1.38,0.39-2.08c3.15,0.94,5.61,2.25,7.44,3.5c2.99,2.05,6.54,3.18,10.17,3.15
		c9.3-0.07,19.45,3.71,25.86,2.08c2.01-0.51,3.91-1.4,5.89-2.04c0.57,0.19,1.07,0.51,1.51,0.91c1.33,1.23,2.06,3.3,2.29,5.21
		c0.05,0.39,0.08,0.77,0.09,1.14c-12.35,7.76-25.7,5.21-36.83,8.62c-2.62,0.8-4.25,3.43-3.89,6.15c1.7,12.61,5.3,27.01,0.89,31.25
		c-0.01,0.01-0.03,0.02-0.04,0.03c-3.92,3.09-9.5,4.9-17.41,4.9c-7.36,0-12.41-5.48-14.56-12.34v0c-0.22-0.7-0.41-1.42-0.57-2.15
		c0.51-1.95,1.25-5.53,1.65-9.46c0.17-1.65,0.27-3.37,0.27-5.04c0-10.66-2.74-18.98-2.74-24.72c0-1.96,0.25-3.95,1.01-5.56
		C412.19,241.25,412.91,240.35,413.92,239.74z"/>
	<path class="st20" d="M450.82,367.34c2.75,0,5.12,2.21,5.12,4.86c0,5.88-13.43,12.49-19.09,12.49c-4.01,0-4.86-3.5-4.86-7.51
		c0-1.18,0.08-2.36,0.15-3.54c-0.15-2.96,2.37-3.36,2.48-4.02c0.82,0.54-0.46,2.76,0.43,2.76c2.73,0,4.69-2.29,6.47-4.75
		c1.23,1.59,1.44,3.08,1.32,4.99C445.1,370.12,448.43,367.34,450.82,367.34z"/>
	<path class="st37" d="M416.88,353.93c-0.33,1.33-0.62,2.53-0.88,3.57c-0.23,0.94-0.71,1.79-1.39,2.48c-0.6,0.61-1.28,1.3-1.41,1.3
		c-2.34,0-4.36,2.31-4.36-5.63h0c0.61-4.3,1.67-62.76,3.23-66.4c2.15,6.86,7.2,12.34,14.56,12.34c7.9,0,13.49-1.8,17.41-4.9l0,0
		c0.5,2.96,0.68,5.89,0.68,8.83c0,0.17-2.37,53.82-2.92,63.33c-0.5,2.06-1.53,3.43-4.4,4.42c-1.34,0.47-2.17,0.34-2.78,0.02
		c-0.89-0.46-1.54-1.38-1.5-2.39c0.41-9.69-3.72-51.37-7.76-58.35C422.67,321.18,419.7,342.49,416.88,353.93z"/>
	<path class="st19" d="M430.79,235.31c-0.03,0.46-0.07,0.91-0.13,1.37c-0.09,0.7-0.22,1.4-0.39,2.08c-2.4,0.88-5.05,1.63-7.64,1.63
		c-1.02,0-2.03-0.12-3.01-0.39c-0.41-0.78-0.7-1.78-0.85-2.83c-0.07-0.48-0.1-0.97-0.1-1.46c0-1.8,0.45-3.57,1.45-4.57
		c0.29,0.61,0.65,1.14,1.08,1.6v0c1.88,2.02,4.92,2.66,7.8,2.66c0.1,0,0.2,0,0.3,0C429.81,235.38,430.31,235.36,430.79,235.31z"/>
	<path class="st39" d="M429.63,233.69c-0.14,0.56-0.24,1.13-0.33,1.7c-0.1,0-0.2,0-0.3,0c-2.88,0-5.92-0.64-7.8-2.66v0
		c0.03-0.83,0.05-1.66,0.05-2.5c1.27,0.32,2.54,0.17,3.88,0.6c0.87,0.71,1.98,1.21,3.14,1.46
		C428.73,232.76,429.18,233.23,429.63,233.69z"/>
	<path class="st20" d="M416.27,356.41c0.19-0.76,0.39-1.59,0.61-2.47c1.78-1.34,3.86-2.31,5.84-2.31c2.43,0,4.46,1.37,4.46,3.98
		c0,8.62-13.25,15.31-17.02,15.31c-0.03,0-0.07,0-0.1,0c-1.54-0.36-2.73-1.56-2.73-3.43c0-3.97,0.79-6.76,1.51-11.84h0
		C409.34,360.97,415.84,358.14,416.27,356.41z"/>
	<path class="st41" d="M413.42,272.59c0,1.67-0.1,3.39-0.27,5.04h0c-3.58-5.29-5.85-13.14-5.85-20.53c0-5.64,1.32-11.02,4.39-14.8
		c-0.76,1.61-1.01,3.6-1.01,5.56C410.68,253.61,413.42,261.93,413.42,272.59z"/>
	<path class="st42" d="M440.22,206.07c0.57,1.85,0.4,3.7-1.81,4.37c-0.01,0-0.02,0.01-0.02,0.01c-0.05,0.01-0.09,0.03-0.14,0.04
		c-2.2,0.6-2.67,3.23-4.07,3.66c-7.12,2.17,3.23,15.08-6.24,17.98c-0.5,0.15-1.02,0.25-1.54,0.3c-1.18,0.1-2.39-0.06-3.43-0.48
		c-1.4-0.02-2.58,0.49-3.88,0.55c-0.51,0.02-1.04-0.02-1.61-0.19c-4.59-1.38-7.46-5.09-8.82-9.56c-1.52-4.96-1.61-11.7,1.59-17.16
		c1.3-2.23,3.15-4.24,5.67-5.84c1.5-0.95,3.24-1.76,5.25-2.37C428.73,195.07,438.04,198.92,440.22,206.07z"/>
	<path class="st39" d="M438.26,210.49c0.24,0.58,0.44,1.17,0.63,1.77c1.77,5.79,1.79,19.24-4.75,21.24
		c-1.6,0.49-3.58,0.42-6.02-0.27c0,0.04,0,0.09,0.01,0.13c-0.57-0.31-1.14-0.63-1.71-0.94c0.52-0.05,1.04-0.15,1.54-0.3
		c9.47-2.89-0.88-15.8,6.24-17.98C435.58,213.72,436.05,211.1,438.26,210.49z"/>
</g>
<g>
	<path class="st13" d="M615.86,301.62c5.01,2.89,5.01,7.58,0,10.47c-5.01,2.89-13.13,2.89-18.13,0c-5.01-2.89-5.01-7.58,0-10.47
		S610.85,298.73,615.86,301.62z"/>
	<g>
		<g>
			<path d="M618.06,190.29C618.06,190.29,618.05,190.29,618.06,190.29c-0.21-0.12-0.42-0.23-0.64-0.35c-0.01,0-0.01-0.01-0.01-0.02
				c0-0.01,0.01-0.01,0.02-0.01l0,0c0.09,0.05,0.16,0.08,0.64,0.35c0,0,0,0,0,0c0.01,0,0.01,0.01,0,0.02
				C618.07,190.29,618.06,190.29,618.06,190.29z"/>
		</g>
		<path class="st43" d="M597.79,248.93c-1.11-0.89-1.98-2.11-1.98-3.53c0-1.61,0-3.22,0-4.83c0,0.84,0.3,1.63,0.82,2.35
			c2.9,3.98,11.85,4.93,17.06,1.93c1.63-0.94,3.06-2.41,3.07-4.28h0c0,1.61,0,3.22,0,4.83c0,1.87-1.46,3.35-3.07,4.28
			C609.04,252.35,601.48,251.89,597.79,248.93z"/>
		<path class="st44" d="M596.8,241.87L596.8,241.87c0.21,0.49,0.52,0.93,0.88,1.32c3.1,3.33,10.94,4.01,15.59,1.32
			c1.05-0.6,2.05-1.46,2.55-2.56c0.06-0.12,0.31-0.79,0.9-1.83l0,0c0.26,2.04-1.26,3.69-3.04,4.72c-5.21,3-14.16,2.05-17.06-1.93
			c-0.63-0.87-0.95-1.88-0.77-2.95l0,0C596.23,240.6,596.54,241.23,596.8,241.87z"/>
		<path class="st44" d="M612.4,258.79c-4.54,3.3-12.12,2.74-14.29,0.03c-0.89-1.11-0.66-2.32,0.38-3.27
			c2.6,2.38,9.66,2.66,13.91-0.43c0.89-0.65,1.67-1.47,2.12-2.43C615.62,255.02,614.49,257.27,612.4,258.79z"/>
		<path class="st44" d="M598.05,261.75c0.14-0.24,0.34-0.49,0.39-0.54c2.59,2.46,9.73,2.7,13.96-0.38c0.9-0.65,1.67-1.48,2.12-2.43
			c1.1,2.34-0.05,4.6-2.12,6.1c-2.85,2.07-7.26,2.73-10.66,1.95c-1.79-0.41-4.07-1.49-4.17-3.24c0,0,0,0,0,0
			C597.53,262.71,597.7,262.21,598.05,261.75z"/>
		<g>
			<path d="M614.63,264.77C614.63,264.77,614.62,264.77,614.63,264.77c-0.01,0-0.02-0.01-0.01-0.02l0,0
				c0.23-0.46,0.32-0.91,0.32-1.42c0-0.01,0.01-0.01,0.01-0.01c0,0,0,0,0,0c0.01,0,0.01,0.01,0.01,0.01c0.02,0.51-0.1,1-0.32,1.43
				c0,0,0,0,0,0l0,0C614.64,264.76,614.63,264.77,614.63,264.77z"/>
		</g>
		<g>
			<path d="M614.94,263.42C614.94,263.42,614.94,263.42,614.94,263.42c-0.01,0-0.01,0-0.01-0.01h0c0-0.06,0-0.1,0-0.15
				c0-0.01,0.01-0.01,0.01-0.01c0.02,0,0.01,0.01,0.01,0.01c0.01,0.07,0,0.09,0,0.15l0,0C614.96,263.41,614.95,263.42,614.94,263.42
				C614.95,263.42,614.95,263.42,614.94,263.42z"/>
		</g>
		<path class="st43" d="M597.56,259.43L597.56,259.43c0-0.68,0-1.36,0-2.04c0,3.55,9.26,5.45,14.84,1.4
			c1.49-1.08,2.49-2.53,2.55-4.11c0,0.63,0,1.26,0,1.89h0c0,1.75-1.12,3.23-2.54,4.27c-4.25,3.09-11.39,2.83-13.96,0.38
			C597.93,260.73,597.56,260.13,597.56,259.43z"/>
		<path class="st43" d="M597.56,253.72c0-0.68,0-1.36,0-2.04c0,0.8,0.5,1.6,1.44,2.24c3.01,2.06,9.49,2,13.4-0.84
			c1.43-1.04,2.54-2.52,2.54-4.26h0c0,0.68,0,1.36,0,2.04c0,1.76-1.12,3.23-2.55,4.27c-4.23,3.07-11.29,2.84-13.91,0.43
			C597.96,255.07,597.56,254.44,597.56,253.72z"/>
		<path class="st44" d="M612.4,253.08c-3.9,2.83-10.38,2.9-13.4,0.84c-1.64-1.12-1.98-2.73-0.51-4.07c2.07,1.89,6.13,2.13,9.08,1.56
			c2.55-0.18,5.43-0.96,7.36-2.6l0.01,0.01C614.94,250.57,613.82,252.05,612.4,253.08z"/>
		<g>
			<path d="M614.42,265.13C614.42,265.13,614.42,265.13,614.42,265.13c-0.01-0.01-0.02-0.01-0.01-0.02c0,0,0,0,0,0
				c0.04-0.06,0.09-0.14,0.13-0.23c0,0,0,0,0,0c0-0.01,0.01-0.01,0.02-0.01c0,0,0.01,0.01,0.01,0.01c0,0,0,0,0,0.01
				c-0.02,0.04-0.1,0.18-0.14,0.23C614.43,265.13,614.43,265.13,614.42,265.13z"/>
		</g>
		<g>
			<path d="M613.8,265.91C613.8,265.91,613.79,265.9,613.8,265.91c-0.02-0.01-0.02-0.02-0.01-0.02c0.03-0.03,0.06-0.06,0.09-0.1
				c0.01-0.01,0.01-0.01,0.02,0c0.01,0.01,0.01,0.01,0,0.02l0,0c0,0,0,0,0,0c-0.02,0.02-0.04,0.04-0.09,0.1
				C613.81,265.9,613.81,265.9,613.8,265.91L613.8,265.91C613.81,265.9,613.8,265.91,613.8,265.91z"/>
		</g>
		<g>
			<path d="M613.7,266.01C613.69,266.01,613.69,266.01,613.7,266.01c-0.01-0.01-0.01-0.02-0.01-0.02c0.03-0.03,0.07-0.06,0.1-0.09h0
				c0,0,0,0,0,0c0,0,0,0,0,0c0,0,0,0,0,0c0.01-0.01,0.01-0.01,0.02,0c0,0,0,0.01,0,0.01s0,0.01,0,0.01
				C613.67,266.04,613.72,265.99,613.7,266.01L613.7,266.01C613.71,266,613.71,266,613.7,266.01
				C613.7,266.01,613.7,266.01,613.7,266.01z"/>
		</g>
		<g>
			<path d="M613.25,266.39c0,0-0.01,0-0.01-0.01c0,0,0-0.01,0-0.01c0,0,0-0.01,0.01-0.01c0.12-0.09,0.23-0.19,0.33-0.28
				c0.01-0.01,0.01,0,0.02,0c0,0,0,0.01,0,0.01c0,0,0,0.01,0,0.01C613.49,266.2,613.38,266.3,613.25,266.39
				C613.26,266.39,613.26,266.39,613.25,266.39z"/>
		</g>
		<g>
			<path d="M612.4,266.97c0,0-0.01,0-0.01-0.01c0,0,0,0,0-0.01c0,0,0-0.01,0.01-0.01c0.03-0.02,0.13-0.08,0.25-0.15
				c0.01,0,0.01,0,0.02,0c0,0.01,0,0.01,0,0.02C612.58,266.86,612.5,266.91,612.4,266.97C612.4,266.97,612.4,266.97,612.4,266.97z"
				/>
		</g>
		<linearGradient id="XMLID_3_" gradientUnits="userSpaceOnUse" x1="605.9633" y1="204.8258" x2="606.4373" y2="249.025">
			<stop  offset="0" style="stop-color:#EDE582"/>
			<stop  offset="1" style="stop-color:#ECC057"/>
		</linearGradient>
		<path id="XMLID_1_" class="st45" d="M631.35,211.36c-0.41-15.84-18.77-30.75-36.4-21.37c-7.28,3.87-12.92,11.13-14.03,19.07
			c-0.69,4.91,0.44,9.59,2.75,14.04c4.14,7.98,10.84,13.11,13.13,18.77l0,0c0.21,0.49,0.52,0.93,0.88,1.32
			c3.1,3.33,10.94,4.01,15.59,1.32c1.05-0.6,2.05-1.46,2.55-2.56c0.06-0.12,0.31-0.79,0.9-1.83
			C620.63,233.14,631.69,224.22,631.35,211.36z"/>
		<path class="st44" d="M607.57,251.4c-2.59,0.5-5.78,0.37-8.02-0.82c-0.71-0.38-1.41-0.92-1.77-1.64
			C600.3,250.95,604.28,251.63,607.57,251.4z"/>
		<path class="st44" d="M613.46,266.2c0.09-0.06,0.17-0.14,0.25-0.23c-0.43,0.46-2.24,2.32-3.01,3.11c-1.95,2.01-6.97,2.01-8.91,0
			c-0.12-0.13-0.25-0.26-0.38-0.39c-0.84-0.87-1.69-1.74-2.53-2.62c-0.04-0.04-0.08-0.09-0.12-0.12c0.43,0.42,0.94,0.78,1.52,1.1
			c0.37,0.21,0.78,0.39,1.2,0.54c0.11,0.04,0.22,0.08,0.33,0.12c0.07,0.03,0.13,0.05,0.2,0.08c0.02,0.01,0.05,0.02,0.07,0.02
			c0.02,0.01,0.04,0.02,0.05,0.02c0.14,0.05,0.27,0.09,0.4,0.12c0.09,0.02,0.17,0.05,0.26,0.06c0.09,0.02,0.17,0.05,0.26,0.07
			c0.3,0.07,0.61,0.12,0.93,0.17c0.11,0.02,0.23,0.04,0.34,0.05c0.2,0.02,0.4,0.05,0.61,0.06c0.15,0.02,0.3,0.03,0.46,0.04
			c0.06,0,0.12,0.01,0.18,0.01h0.04c0.23,0.01,0.44,0.02,0.67,0.02c0.9,0,1.81-0.08,2.68-0.24c0.18-0.03,0.35-0.07,0.52-0.11
			c0.03,0,0.05-0.01,0.08-0.02c0.32-0.07,0.63-0.16,0.92-0.26c0.98-0.32,1.87-0.75,2.62-1.31
			C613.23,266.39,613.35,266.3,613.46,266.2z"/>
		<path class="st43" d="M614.95,260.34v3.07c0,0.91-0.42,1.72-1.06,2.39l-0.09,0.09c-0.02,0.03-0.05,0.06-0.09,0.09
			c-0.08,0.08-0.16,0.15-0.25,0.23c-0.12,0.1-0.23,0.19-0.36,0.29c-0.74,0.57-1.63,1-2.62,1.31c-0.3,0.1-0.61,0.19-0.92,0.26
			c-0.02,0.01-0.05,0.02-0.08,0.02c-0.17,0.04-0.34,0.08-0.52,0.11c-0.87,0.16-1.78,0.24-2.68,0.24c-0.23,0-0.45-0.01-0.67-0.02
			h-0.04c-0.09-0.01-0.19-0.01-0.27-0.02c-0.12,0-0.25-0.01-0.37-0.02c-0.21-0.02-0.41-0.04-0.61-0.06
			c-0.12-0.02-0.23-0.03-0.34-0.05c-0.32-0.05-0.63-0.1-0.93-0.17c-0.17-0.04-0.34-0.08-0.51-0.13c-0.13-0.03-0.26-0.07-0.4-0.12
			c-0.02,0-0.04-0.01-0.05-0.02c-0.02,0-0.05-0.01-0.07-0.02c-0.61-0.19-1.19-0.43-1.71-0.71c-0.54-0.29-1.02-0.62-1.42-0.99
			c-0.04-0.04-0.08-0.09-0.12-0.12c0,0,0.01,0.01,0.02,0.01c-0.37-0.37-0.68-0.76-0.9-1.21c-0.26-0.54-0.34-1.03-0.32-1.54
			c0.01,0.07,0.01,0.13,0.02,0.2c0.01,0.06,0.02,0.12,0.04,0.18c0.02,0.07,0.03,0.13,0.05,0.19c0.02,0.06,0.05,0.12,0.08,0.19
			c0.02,0.06,0.05,0.12,0.09,0.18c0.03,0.05,0.07,0.12,0.11,0.17c0.04,0.05,0.08,0.12,0.12,0.17c0.09,0.11,0.18,0.22,0.29,0.32
			c0.05,0.05,0.11,0.11,0.17,0.16c0.12,0.11,0.24,0.2,0.37,0.3c0.19,0.14,0.42,0.27,0.65,0.4c0.08,0.04,0.16,0.08,0.24,0.12
			c0.09,0.05,0.17,0.09,0.26,0.12c1.03,0.44,2.31,0.74,3.69,0.84c0.1,0.01,0.19,0.02,0.3,0.02c0.37,0.02,0.75,0.02,1.14,0.01
			c0.13,0,0.26-0.01,0.4-0.02c0.53-0.02,1.06-0.08,1.59-0.17c0.06,0,0.12-0.01,0.17-0.02c0.13-0.02,0.26-0.05,0.39-0.08
			c0.01,0,0.02,0,0.02,0c1.17-0.24,2.33-0.63,3.39-1.2c0.28-0.14,0.56-0.3,0.83-0.48c0.14-0.09,0.28-0.19,0.42-0.29
			c0.67-0.49,1.23-1.05,1.67-1.66c0.1-0.15,0.2-0.3,0.29-0.46c0.07-0.12,0.13-0.24,0.19-0.37c0.05-0.09,0.09-0.19,0.12-0.28
			c0.04-0.09,0.08-0.19,0.1-0.3c0.03-0.1,0.06-0.2,0.09-0.31c0.02-0.09,0.04-0.19,0.05-0.28c0.01-0.04,0.02-0.07,0.02-0.11
			C614.93,260.62,614.95,260.48,614.95,260.34z"/>
		<path class="st46" d="M612.12,218.27c-0.15,0.37-0.77,0.35-1.1,0.04c-0.19-0.18-0.21-0.37-0.16-0.49c0.13-0.38,0.77-0.37,1.1-0.06
			C612.14,217.93,612.18,218.12,612.12,218.27z"/>
		<path class="st47" d="M608.07,230.02c-0.14,0.35-0.99,0.39-1.28,0.05c-0.07-0.08-0.09-0.17-0.06-0.25
			c0.01-0.03,4.12-11.95,4.13-11.97c-0.11,0.4,0.47,0.8,0.94,0.68c0.16-0.04,0.27-0.13,0.32-0.25
			C611.18,220.95,608.1,230.02,608.07,230.02z"/>
		<path class="st48" d="M608.07,230.02c0.22-0.64,0.44-1.28,0.66-1.92c1.05,0.74,0.93,1.81-0.21,2.46
			c-1.42,0.82-3.78,0.67-4.88-0.27c-0.97-0.83-0.58-1.86,0.58-2.43c0.2,0.8,0.17,0.84,0.36,0.97c0.44,0.29,1.25,0.11,1.19-0.27
			c-0.09-0.36-0.18-0.72-0.27-1.08c0.67-0.1,1.37-0.06,1.99,0.09c-0.01,0.03-0.76,2.21-0.77,2.24c-0.13,0.38,0.69,0.65,1.16,0.39
			C607.97,230.16,608.04,230.1,608.07,230.02L608.07,230.02z"/>
		<path class="st49" d="M609.12,230.08c0.19-0.23,0.33-0.5,0.33-0.8h0c0,0.66,0,4.74,0,5.57c0,0.55-0.43,1-0.93,1.29
			c-2,1.15-5.42,0.33-5.42-1.3c0-0.64,0-4.86,0-5.57h0c0,0.42,0.23,0.75,0.54,1.02C605,231.46,608.07,231.33,609.12,230.08z"/>
		<path class="st50" d="M609.46,230.15c0,1.57,0,3.13,0,4.7c0,0.55-0.43,1-0.93,1.29c-1.95,1.12-5.42,0.37-5.42-1.3
			c0-1.57,0-3.14,0-4.71c-5.85,1.31-7.46,5.68-3.01,8.25c3.37,1.95,8.89,1.98,12.32,0C616.86,235.81,615.24,231.47,609.46,230.15z"
			/>
		<path class="st46" d="M601.64,211.88c-0.01,0.04-0.04,0.07-0.08,0.1c-0.36,0.31-1.3,0.4-1.21,0.09c0.01-0.04,0.04-0.07,0.08-0.1
			C600.81,211.66,601.74,211.58,601.64,211.88z"/>
		<path class="st47" d="M601.65,211.81L601.65,211.81c1.27,5.16,3.9,15.78,4.13,16.75c0.06,0.38-0.76,0.56-1.19,0.27
			c-0.08-0.05-0.15-0.13-0.17-0.22c-0.01-0.03-4.09-16.47-4.06-16.47c0.05,0.22,0.87,0.13,1.21-0.16
			C601.62,211.93,601.66,211.88,601.65,211.81z"/>
		<path class="st51" d="M614.97,234.82c0,5.29,0,4.7,0,4.8c-0.05,1.25-0.9,2.49-2.55,3.44c-3.41,1.97-8.93,1.96-12.33,0
			c-1.7-0.98-2.55-2.27-2.55-3.56v-4.68c0,1.29,0.85,2.58,2.55,3.56c3.4,1.96,8.93,1.97,12.33,0
			C614.11,237.4,614.97,236.11,614.97,234.82z"/>
		<path class="st52" d="M600.69,206.62c-0.7,1.32-2.15,3.93-3.32,4.8c-1.53,1.14-2.3-0.88-2.49-2.79
			c-0.57-5.75,3.2-12.11,7.35-14.28c0.91-0.48,2.15-0.84,2.6,0.1C605.85,196.61,601.79,204.56,600.69,206.62z"/>
		<g>
			<path class="st53" d="M611.42,218.51C611.43,218.49,611.41,218.49,611.42,218.51L611.42,218.51z"/>
			<path class="st53" d="M605.22,230.38c0.01-0.01-0.08-0.21-0.2-0.44c-0.51-0.99-0.85-2.05-0.88-2.05c-0.01,0-0.07,0.07-0.14,0.15
				c-0.56,0.7-0.3,1.43,0.42,1.95C604.6,230.12,605.19,230.41,605.22,230.38z"/>
			<path class="st53" d="M616.65,241.42c0,0.83-0.01,2.21-0.01,4.53c-0.33,1.27-0.57,1.66-1.35,2.52c0,0.01-0.02,0.02-0.02,0.02
				c-0.1,0.12-0.21,0.23-0.33,0.37c-0.01,0.01-0.02,0.02-0.02,0.02c0,0.13,0,0.26-0.01,0.37c-0.01,1.58-0.01,2.14-0.09,2.56
				c-0.02,0.1-0.05,0.19-0.08,0.29c-0.01,0.04-0.02,0.09-0.05,0.13c-0.03,0.09-0.07,0.19-0.12,0.32c-0.01,0.05-0.03,0.1-0.05,0.16
				c0,0.01-0.01,0.02-0.01,0.02c0.33,0.89,0.37,0.88,0.39,2.37v0.29c0.02,2.03-0.03,2.03-0.39,3.02v0.01
				c0.32,0.87,0.39,0.97,0.4,2.29c0.01,0.02,0.01,0.03,0,0.05c0.01,0.46,0.01,1.06,0.01,1.9h0.02v0.76c0,0.91-0.42,1.72-1.06,2.39
				l-0.09,0.09c-0.02,0.03-0.05,0.06-0.09,0.09c-0.43,0.46-2.24,2.32-3.01,3.11c-1.95,2.01-6.97,2.01-8.91,0
				c-0.12-0.13-0.25-0.26-0.38-0.39c-0.03-0.11-0.05-0.19-0.05-0.26c-0.01-0.23-0.04-0.24-0.63-0.89c-0.18-0.19-0.33-0.37-0.43-0.48
				c-0.01-0.01-0.02-0.02-0.02-0.02c-0.07-0.08-0.11-0.12-0.11-0.12c0.44,0.27,0.87,0.49,1.3,0.67c0.11,0.04,0.22,0.08,0.33,0.12
				c0.09,0.04,0.18,0.06,0.27,0.09c0.02,0.01,0.04,0.02,0.05,0.02c0.14,0.05,0.27,0.09,0.4,0.12c0.09,0.02,0.17,0.05,0.26,0.06
				c0.8,0.19,1.62,0.29,2.51,0.38c0.03,0.01,0.06,0.01,0.09,0.02c0.05,0,0.12,0.01,0.18,0.02v-0.01c0-0.56,0.01-1.1,0.01-1.65v-0.02
				c0.02,0,0.51-0.04,1.02-0.09c0.06-0.01,0.13-0.02,0.21-0.02c0.12-0.02,0.25-0.03,0.36-0.05c0.06,0,0.12-0.01,0.17-0.02
				c0.19-0.02,0.33-0.05,0.39-0.08c0.01,0,0.02,0,0.02,0c0.01-0.01,0.01-0.01,0.01-0.01c0.01-0.01,0.02-0.01,0-0.02c0,0,0,0-0.01,0
				c-0.03-0.01-0.11-0.02-0.21-0.02c-1.06,0-2.49-0.26-3.48-0.64c-1.86-0.71-3.36-1.61-3.77-2.74c-0.09-0.23-0.14-0.64-0.09-0.75
				c0-0.01,0-0.02,0.01-0.02c0.01-0.02,0.12,0.02,0.26,0.09c0.13,0.07,0.27,0.13,0.43,0.19c0.43,0.16,0.93,0.27,1.46,0.35
				c0.09,0.02,0.17,0.03,0.26,0.04c0.82,0.1,1.67,0.14,2.39,0.15c0.07,0,0.14,0.01,0.2,0c0.13,0.01,0.26,0.01,0.39,0.01v-2.05
				c1.65-0.09,1.96-0.22,2.14-0.22c0.02,0,0.03-0.02,0.03-0.03c0-0.01-0.02-0.02-0.07-0.02c-0.02-0.01-0.04-0.01-0.06-0.01
				c-0.11-0.02-0.29-0.03-0.49-0.04c-1.4-0.06-2.84-0.43-4.07-1.06c-1.62-0.82-2.8-1.74-2.97-2.79c-0.03-0.2-0.03-0.3,0.02-0.33
				c0,0,0,0,0.01,0c0.06-0.02,0.19,0.03,0.39,0.13c0.07,0.03,0.13,0.06,0.2,0.09c0.01,0,0.01,0,0.01,0
				c1.42,0.59,3.42,0.63,4.86,0.63v-0.05c0-0.19-0.01-0.23-0.33-0.64c-0.34-0.42-1.13-1.3-1.25-1.4c-0.03-0.02-0.21-0.11-0.4-0.19
				c-1.35-0.63-2.56-1.82-3.04-3.02c-0.17-0.42-0.36-0.76-0.33-0.98c0.01-0.1,0.01-0.18-0.02-0.18c-0.03,0-0.17-0.09-0.33-0.2
				c-0.23-0.16-0.52-0.39-0.66-0.53c-0.22-0.21-0.5-0.56-0.54-0.67c-0.02-0.04,0-0.05,0.05-0.01c0.1,0.07,0.21,0.14,0.32,0.22
				c0.16,0.09,0.33,0.18,0.5,0.26c0.15,0.08,0.3,0.15,0.47,0.21c0.45,0.2,0.94,0.37,1.45,0.52c0,0,0,0,0.01,0
				c0.74,0.21,1.5,0.37,2.24,0.49c0.13,0.02,0.26,0.04,0.4,0.05c0.02,0.01,0.03,0.01,0.04,0.01c0.43,0.06,0.85,0.11,1.23,0.14v-0.03
				c0-0.87,0.02-3.58,0.02-4.84v-0.41c2.67,0.04,3.88,0.08,6.76-1.09c0.23-0.09,0.69-0.28,0.5-0.23c-0.02,0.01-0.05,0.02-0.09,0.03
				c-0.02,0.01-0.05,0.02-0.08,0.03c-0.16,0.05-0.38,0.12-0.59,0.14c-0.92,0.1-6.24-0.49-6.28-0.51c-0.05-0.04-0.05-3.18-0.05-4.69
				c0.27,0,0.54,0.02,0.8,0.02c3.11-0.01,5.98-1.09,7.47-2.57c0.26-0.26,0.61-0.71,0.61-0.77c-0.01-0.01-0.08,0.01-0.23,0.05
				c-0.16,0.04-0.46,0.09-0.67,0.12c-0.3,0.03-6.93,0.09-7.26-0.01c0-3.3-0.03-4.65-0.03-7.95c-0.14-0.02-0.66,0.23-0.71,0.18
				c-0.04-0.05-4.1-16.45-4.1-16.71c0.1-0.06,0.27-0.23,0.28-0.19c0.01,0.03,3.79,15.42,3.8,15.42c0,0,1.55-0.08,1.96,0.13
				c0.04,0,0.12-0.36,0.14-0.4c0,0.06,0.19,0.54,0.36,0.89c0.4,0.85-0.05-2.02,0.17-1.34c-0.02,0.05,0.15,0.38,0.19,0.55
				c0.05,0.2,0.11,0.29,0.16,0.23c0.04-0.05,2.91-8.99,2.91-9.02c0.01,0.02,0.05,0.02,0.12,0.03c0.37,0.05,0.55-0.2,0.58-0.25
				c-0.15,0.47-3.36,9.83-3.36,9.83s0.67,0.4,0.68,0.89c0.02,1.26,0.03,2.56,0.03,4.05c0.42,0,1,0.1,1.41,0.1
				c0.07-0.02,2.59-1.07,2.63-1.1c0.05,0,0.63,0.58,0.63,0.63c0,0.05-0.87,0.38-0.87,0.43c0,0.02,0.05,0.04,0.13,0.04
				c0.19,0,0.85,0.12,1,0.19c0.1,0.05,0.26,0.11,0.34,0.33c0.23,0.61,0.2,0.57,0.23,3.67c0.09,0.09,0.12,0.16,0.2,0.24
				c0.7,0.69,1.13,1.4,1.37,2.26c0.05,0.19,0.08,0.19,0.09,0.44C616.65,240.48,616.65,240.8,616.65,241.42z"/>
		</g>
		<g>
			<path class="st54" d="M610.35,218.82c-0.67-0.12-0.93-0.83-0.91-1.51c0.5-0.38,1.06-1.07,1.08-1.64c0.02-0.59-0.71-0.89-1.3,0.31
				c-0.16,0.33-0.26,0.68-0.31,1.03c-1.13,0.72-2.15,0.19-2.1-1.22c0.5-0.38,1.06-1.07,1.08-1.64c0.03-0.62-0.72-0.85-1.3,0.31
				c-0.16,0.33-0.26,0.68-0.3,1.03c-1.1,0.7-2.15,0.23-2.1-1.21c0.5-0.38,1.06-1.07,1.08-1.64c0.02-0.59-0.71-0.88-1.3,0.31
				c-0.16,0.33-0.26,0.68-0.3,1.03c-0.35,0.22-0.75,0.36-1.14,0.31c-1.03-0.14-1.16-1.54-0.74-2.52l0,0
				c0.26,0.19,0.62,0.08,0.75-0.21c0.41-1-0.53-1.45-1.19-0.12c-0.65,1.34-0.35,3.19,1.11,3.39c0.41,0.06,0.82-0.04,1.2-0.22
				c0.11,1.49,1.33,2.14,2.62,1.52c0.12,1.52,1.35,2.12,2.62,1.52c0.07,0.84,0.52,1.57,1.36,1.72c0.16,0.03,0.31-0.1,0.31-0.26
				C610.58,218.99,610.51,218.85,610.35,218.82z M609.92,215.89c-0.06,0.13-0.14,0.28-0.25,0.43
				C609.73,216.18,609.83,216,609.92,215.89z M607.29,214.38c-0.06,0.13-0.14,0.28-0.24,0.42
				C607.1,214.67,607.19,214.51,607.29,214.38z M604.67,212.86c-0.06,0.13-0.14,0.28-0.25,0.43
				C604.47,213.17,604.58,212.97,604.67,212.86z M602.04,211.35c-0.06,0.13-0.14,0.28-0.24,0.42
				C601.85,211.64,601.94,211.48,602.04,211.35z"/>
			<path class="st55" d="M609.92,215.89c-0.06,0.13-0.14,0.28-0.25,0.43C609.73,216.18,609.83,216,609.92,215.89z"/>
			<path class="st55" d="M607.29,214.38c-0.06,0.13-0.14,0.28-0.24,0.42C607.1,214.67,607.19,214.51,607.29,214.38z"/>
			<path class="st55" d="M604.67,212.86c-0.06,0.13-0.14,0.28-0.25,0.43C604.47,213.17,604.58,212.97,604.67,212.86z"/>
		</g>
	</g>
</g>
<g>
	<g>
		<path class="st38" d="M421.84,455c0,2.02-0.96,4.05-2.89,6.07v-8.59c1.93-2.02,2.89-4.05,2.89-6.07
			C421.84,449.27,421.84,452.13,421.84,455z"/>
		<polygon class="st37" points="418.95,452.48 418.95,461.07 412.97,458.93 412.97,450.34 		"/>
		<path class="st38" d="M415.12,444.76c0.07,0.3,0.11,0.61,0.11,0.92c0,1.4-0.73,2.93-2.2,4.59c-0.62-0.54-1.37-1.06-2.24-1.56
			c-2.86-1.65-5.93-2.63-9.22-2.95c-3.29-0.32-6.48-0.03-9.56,0.85c-3.09,0.88-5.86,2.03-8.31,3.45c-2.77,1.6-4.87,3.22-6.32,4.87
			c-0.68-0.73-1.2-1.51-1.57-2.34c-0.27-0.63-0.41-1.27-0.41-1.91c0-1.19,0.47-2.4,1.4-3.63c1.44-1.89,3.74-3.75,6.9-5.58
			c2.45-1.42,5.22-2.56,8.31-3.45c3.09-0.88,6.27-1.17,9.56-0.85c3.29,0.32,6.36,1.3,9.22,2.95
			C413.27,441.55,414.72,443.1,415.12,444.76z"/>
		<path class="st19" d="M405.6,394.42c0-1.43-0.4-2.62-1.21-3.58c-0.43-0.51-0.96-0.91-1.59-1.2c-0.55-0.25-1.17-0.42-1.87-0.49
			c-1.5-0.17-4.08,0.03-7.73,0.6c-3.38,0.52-6.77,1.05-10.15,1.57v6.69v6.29c3.66-0.57,7.32-1.13,10.98-1.7
			c2.98-0.46,5.12-0.96,6.41-1.49C403.51,399.84,405.6,397.71,405.6,394.42z M407.71,412.92c0-1.6-0.48-2.92-1.45-3.95
			c-0.38-0.41-0.82-0.75-1.32-1.02v0c-0.77-0.43-1.68-0.71-2.72-0.84c-1.72-0.21-4.2-0.07-7.43,0.43
			c-3.92,0.61-7.83,1.21-11.75,1.82v8.48v6.29c12.88-1.99,15.48-2.33,17.22-2.87c1.55-0.48,2.84-1.07,3.88-1.78
			c1.04-0.7,1.9-1.63,2.57-2.78C407.38,415.55,407.71,414.29,407.71,412.92z M414.68,411.85c0,2.01-0.5,3.96-1.51,5.84
			c-1.01,1.88-2.25,3.41-3.73,4.57c-3.73,2.94-9.07,4.24-13.76,4.97c-6.46,1-12.91,2-19.37,3v-42.94c6.35-0.98,12.7-1.96,19.06-2.95
			c3.88-0.6,6.99-0.65,9.34-0.14c2.34,0.51,4.18,1.56,5.51,3.16c0.51,0.62,0.92,1.26,1.23,1.92c1.34,2.85,0.87,6.03-1,8.9
			c-0.34,0.52-0.73,1.02-1.17,1.5c-1.09,1.19-2.47,2.28-4.17,3.25c3.07,0.29,5.43,1.22,7.08,2.8c0.72,0.69,1.29,1.47,1.69,2.34
			c0,0.01,0.01,0.02,0.01,0.03C414.42,409.2,414.68,410.45,414.68,411.85z"/>
		<path class="st19" d="M411.23,402.33c0.89,1.91,1.77,3.82,2.66,5.74c-0.41-0.87-0.97-1.65-1.69-2.34
			c-1.65-1.58-4.01-2.51-7.08-2.8c1.69-0.97,3.08-2.05,4.17-3.25c0.8,0.72,1.45,1.57,1.9,2.54
			C411.2,402.26,411.21,402.29,411.23,402.33z"/>
		<path class="st56" d="M375.4,450.67c0,0.64,0.14,1.28,0.41,1.91c0.36,0.83,0.88,1.61,1.57,2.34v0c0.79,0.84,1.79,1.61,3,2.31
			c2.76,1.59,5.88,2.48,9.39,2.66c3.5,0.19,7.15-0.43,10.96-1.84l3.68,3.56c-5.07,1.74-10.01,2.45-14.81,2.12
			c-4.8-0.32-9.14-1.6-13.01-3.84c-4.01-2.31-6.45-4.67-7.33-7.06c-0.29-0.79-0.44-1.59-0.44-2.39c0-1.64,0.6-3.31,1.79-5.01
			c1.79-2.54,4.45-4.84,8-6.89c7.85-4.53,16.88-6.12,25.24-4.71c4.23,0.71,7.98,2.02,11.26,3.91c3.72,2.15,5.9,4.5,6.54,7.06
			c0.13,0.54,0.2,1.07,0.2,1.6v0c0,2.02-0.96,4.05-2.89,6.07l-5.99-2.14c0.02-0.02,0.04-0.05,0.06-0.07c1.47-1.66,2.2-3.19,2.2-4.59
			c0-0.31-0.04-0.62-0.11-0.92c-0.41-1.66-1.85-3.21-4.34-4.64c-2.86-1.65-5.93-2.63-9.22-2.95c-3.29-0.32-6.48-0.03-9.56,0.85
			c-3.09,0.88-5.86,2.03-8.31,3.45c-3.16,1.83-5.46,3.69-6.9,5.58C375.86,448.27,375.4,449.48,375.4,450.67z"/>
		<path class="st20" d="M408.75,383.45c0.9,1.94,1.8,3.88,2.7,5.82l0,0c-0.31-0.66-0.72-1.3-1.23-1.92
			c-1.33-1.6-3.16-2.65-5.51-3.16c-2.34-0.51-5.46-0.46-9.34,0.14c-6.35,0.98-12.71,1.97-19.06,2.95l-2.72-5.87
			c6.35-0.98,12.71-1.97,19.06-2.95c3.88-0.6,6.99-0.65,9.34-0.14c2.34,0.51,4.18,1.56,5.51,3.16
			C408.02,382.12,408.44,382.77,408.75,383.45z"/>
		<path class="st20" d="M407.71,412.92c0,1.37-0.33,2.63-1,3.77c-0.67,1.15-1.53,2.07-2.57,2.78c-1.04,0.7-2.33,1.3-3.88,1.78
			c-1.74,0.54-4.34,0.88-17.22,2.87v-6.29c10.07-1.56,12.8-1.92,14.5-2.45c1.55-0.48,2.84-1.07,3.88-1.78
			c1.04-0.71,1.9-1.63,2.56-2.78c0.52-0.89,0.84-1.85,0.96-2.88c0.5,0.28,0.94,0.62,1.32,1.02
			C407.23,410.01,407.71,411.32,407.71,412.92z"/>
		<path class="st20" d="M404.39,390.84c0.81,0.96,1.21,2.15,1.21,3.58c0,3.3-2.09,5.42-5.16,6.69c-1.29,0.53-3.43,1.03-6.41,1.49
			c-3.66,0.57-7.32,1.13-10.98,1.7v-6.29c2.75-0.43,5.51-0.85,8.26-1.28c2.98-0.46,5.12-0.96,6.41-1.49
			c2.6-1.07,4.65-2.83,5.08-5.59C403.42,389.93,403.96,390.33,404.39,390.84z"/>
		<path class="st37" d="M368.8,459.04L368.8,459.04c0-2.86,0-5.73,0-8.59c0,0.81,0.15,1.6,0.44,2.39c0.88,2.39,3.32,4.74,7.33,7.06
			c3.87,2.24,8.21,3.52,13.01,3.84c4.8,0.32,9.74-0.39,14.81-2.12v8.59c-5.07,1.74-10.01,2.45-14.81,2.12
			c-4.8-0.32-9.14-1.6-13.01-3.84c-4.01-2.31-6.45-4.67-7.33-7.06C368.95,460.64,368.8,459.85,368.8,459.04z"/>
		<polygon class="st35" points="373.6,392.44 373.6,381.42 376.32,387.29 376.32,430.23 373.6,424.36 373.6,414.61 		"/>
		<polygon class="st38" points="373.6,392.44 373.6,414.61 371.74,415.69 356.52,363.96 363.95,359.67 		"/>
		<path class="st37" d="M357.46,381.23c-0.43-1.56-0.82-2.98-1.17-4.29c-1.15-4.26-1.94-7.31-2.54-10.06
			c-0.47,2.48-1.14,4.83-2,7.04c-1.34,3.44-2.7,6.85-4.08,10.24l12.61,7.28C359.18,387.45,358.25,384.1,357.46,381.23z
			 M356.52,363.96l15.22,51.73l-5.61-3.24l-4.34-15.51l-10.81-6.24l-4.74-2.74l-4.08,10.65l-5.23-3.02l14.28-34.69L356.52,363.96z"
			/>
		<polygon class="st56" points="363.95,359.67 356.52,363.96 351.21,360.9 358.65,356.61 		"/>
		<path class="st56" d="M360.27,391.44l-12.61-7.28l7.44-4.29l2.36,1.36C358.25,384.1,359.18,387.45,360.27,391.44z"/>
		<path class="st38" d="M353.75,366.88c0.6,2.75,1.38,5.8,2.54,10.06c-0.39,0.98-0.79,1.95-1.19,2.93l-7.44,4.29
			c1.38-3.39,2.75-6.8,4.08-10.24C352.61,371.7,353.28,369.36,353.75,366.88z"/>
		<polygon class="st38" points="350.98,390.7 349.6,394.32 342.16,398.61 346.24,387.97 		"/>
	</g>
	<g>
		<path class="st12" d="M409.28,399.68c1.64,1.3,2.28,3.32,3.07,5.03c0.48,1.04,0.81,1.85,1.32,2.88c1.42,2.91,1.2,5.77,0.23,8.51
			c-0.72,1.59-1.43,2.79-1.43,2.79c0.71-0.07,1.26-0.14,1.81-0.17c2.25-0.11,4.5-0.21,6.76-0.28c0.78-0.02,1.58-0.09,2.13,0.74
			c0.14,0.21,0.73,0.17,1.11,0.15c2.78-0.14,5.56-0.28,8.33-0.48c1.01-0.07,1.54,0.35,1.91,1.24c0.69,1.62,1.45,3.21,2.26,4.98
			c-0.54,0.2-0.96,0.42-1.41,0.5c-2.91,0.55-5.81,1.12-8.73,1.6c-4.84,0.79-9.69,1.49-14.53,2.25c-3.23,0.51-6.45,0.94-9.75,0.91
			c-8.15-0.09-26.05-0.09-26.05-0.09v-42.94l7.24-1.12c0,0,8.4-1.4,14.05-2.19c3.08-0.12,5.57-0.45,8.25,0.56
			c1.06,0.4,2.13,0.74,3.04,1.58c2.16,1.73,3.11,3.65,3.31,6.11c0.1,1.88-0.22,3.31-1.76,5.96
			C410.12,398.64,409.69,399.12,409.28,399.68z M383.04,417.84c0,0,6.39,0.72,9.56,0.14c2.43-0.45,4.9-0.72,7.19-1.74
			c3.01-1.34,4.88-3.58,5.33-6.9c0.16-1.2,0.08-1.36-1.04-1.78c-1.74-0.66-4.44-0.63-6.23-0.41c-4.46,0.56-14.81,2.21-14.81,2.21
			V417.84z M383.04,398.01c0,0,8.08,0.35,11.85-0.57c1.9-0.47,3.77-0.96,5.36-2.18c1.48-1.13,2.37-2.59,2.68-4.42
			c0.16-0.96-0.02-1.27-0.97-1.55c-0.38-0.11-0.78-0.17-1.18-0.17c-1.2-0.01-2.41-0.1-3.58,0.05c-4.03,0.52-14.16,2.16-14.16,2.16
			V398.01z"/>
		<path class="st12" d="M356.52,363.96c2.5-1.44,4.9-2.83,7.44-4.29c0.6,1.99,9.64,32.78,9.64,32.78s0.11,14.42,0.1,20.96
			c0,1.69,0,1.69-1.88,2.38C366.74,398.5,361.63,381.32,356.52,363.96z"/>
		<path class="st12" d="M381.52,457.83c-2.4-1.16-4.38-2.54-5.62-5.03c-0.89-1.69-0.57-3.07,0.22-4.77c0.81-1.45,1.97-2.6,3.23-3.61
			c4.86-3.91,10.4-6.34,16.58-7.2c1.54-0.22,3.26-0.16,4.94-0.16c0.01,1.38,0.04,3.03-0.08,4.46c-0.13,1.51,1,2.92,1.17,4.3
			c-1.68,0.43-3.44,0.59-4.99,1.04c-3.96,1.15-7.59,2.99-10.88,5.48C384.25,453.73,382.45,455.4,381.52,457.83z"/>
		<path class="st12" d="M346.24,387.97c1.61,0.92,3.21,1.86,4.74,2.74c-0.13,0.53-0.44,1.09-0.6,1.74c0.37,0.11,0.72,0.26,1.09,0.3
			c2.8,0.28,5.24,1.42,7.69,2.75c1.96,1.07,2.75,2.44,3.52,4.57c0,0,0.52,1.87,0.95,3.45c0.1,0.37,0.7,2.32,0.82,2.94
			c-1.21-0.68-2.4-1.51-3.39-2.08c-1.43-0.82-2.88-1.59-4.26-2.48c-1.01-0.64-2.09-0.9-3.24-1.09c-3.67-0.63-7.34-1.3-11-1.96
			c-0.08-0.02-0.16-0.08-0.41-0.2C343.42,395.16,344.8,391.52,346.24,387.97z"/>
		<path class="st12" d="M389.43,463.71c5.17,0.29,10.04-0.37,14.97-2.06c0,1.77,0,3.29,0,4.85c0.44,0.07,0.74,0.18,1.03,0.14
			c1.01-0.12,1.76,0.26,2.42,1.02c0.74,0.85,1.56,1.62,2.41,2.5c-6.75,2.65-13.71,2.28-20.79,2.17
			C389.32,469.47,389.39,466.72,389.43,463.71z"/>
		<path class="st12" d="M418.95,461.07v-8.59c0,0,2.71-2.32,2.89-6.07c0.31,0.13,0.44,0.7,0.67,0.85c1.32,0.88,2.56,1.86,3.54,3.13
			c1.84,2.39,2.34,5.33,0.57,8.23c-0.18,0.3-0.39,0.59-0.58,0.88c-0.68,1.06-1.51,1.68-2.91,1.52
			C421.79,460.87,418.95,461.07,418.95,461.07z"/>
		<path class="st12" d="M355.09,379.85c0.64,0.39,1.88,1,2.37,1.37c0,0,0.03,0.26,0.15,0.63c0.42,1.35,0.74,2.73,1.15,4.31
			c-3.78-0.58-7.36-1.28-11.07-1.99c1.92-5.62,5.09-11.38,6.06-17.3c0.21,0.79,0.52,2.32,0.72,3.11c0.46,1.81,1.28,5.17,1.82,6.95
			c0,0-0.09,0.36-0.56,1.29C355.49,378.7,355.34,379.22,355.09,379.85z"/>
	</g>
</g>
<g>
	<g>
		<path class="st57" d="M352.48,315.65l-56.7,32.73l-41.54-23.99c13.53-7.81,48.95-28.26,56.7-32.73
			C317.14,295.25,328.13,301.6,352.48,315.65z"/>
		<polygon class="st58" points="326.86,331.3 308.75,349.41 300.34,346.62 		"/>
		<polygon class="st59" points="308.75,349.41 326.86,331.3 328.89,330.13 308.75,350.27 		"/>
		<polygon class="st59" points="308.75,349.41 308.75,350.27 299.4,347.15 300.34,346.62 		"/>
		<polygon class="st58" points="305.42,294.85 281.89,308.43 297.95,292.36 		"/>
		<path class="st59" d="M295.78,348.39l56.7-32.73v0.86c-6.29,3.63-56.51,32.63-56.7,32.73V348.39z"/>
		<polygon class="st58" points="278.75,339.41 257.86,332.45 261.09,329.22 		"/>
		<polygon class="st59" points="257.86,332.45 278.75,339.41 282.27,341.45 257.86,333.31 		"/>
		<path class="st60" d="M254.23,324.4l41.54,23.99v0.86c-3.94-2.27-39.54-22.83-41.54-23.99V324.4z"/>
		<g>
			<path class="st61" d="M360.52,310.68l-9.23,5.33l-44.55-25.72l9.23-5.33C316.04,285,356.46,308.33,360.52,310.68z"/>
			<polygon class="st7" points="360.52,311.92 351.29,317.24 351.29,316.01 360.52,310.68 			"/>
			<polygon class="st62" points="351.29,317.24 306.74,291.53 306.74,290.29 351.29,316.01 			"/>
			<g>
				<path class="st2" d="M319.63,287.07c-6.57,3.79-6.15,3.58-6.29,3.58c-0.36,0-0.46-0.47-0.17-0.64l5.78-3.34L319.63,287.07z"/>
			</g>
			<g>
				<path class="st2" d="M323.81,289.48c-6.52,3.76-6.16,3.58-6.29,3.58c-0.34,0-0.48-0.47-0.17-0.64l5.78-3.34L323.81,289.48z"/>
			</g>
			<g>
				<path class="st2" d="M327.98,291.89c-6.57,3.79-6.16,3.58-6.29,3.58c-0.34,0-0.48-0.46-0.17-0.64l5.78-3.34L327.98,291.89z"/>
			</g>
			<g>
				<path class="st2" d="M332.15,294.3c-6.58,3.8-6.16,3.58-6.29,3.58c-0.35,0-0.47-0.46-0.17-0.64l5.78-3.34L332.15,294.3z"/>
			</g>
			<g>
				<path class="st2" d="M336.33,296.71c-6.57,3.79-6.15,3.58-6.29,3.58c-0.36,0-0.46-0.47-0.17-0.63l5.78-3.34L336.33,296.71z"/>
			</g>
			<g>
				<path class="st2" d="M340.5,299.12c-6.58,3.8-6.16,3.58-6.29,3.58c-0.34,0-0.48-0.45-0.17-0.64c5.85-3.38,5.74-3.34,5.79-3.34
					L340.5,299.12z"/>
			</g>
			<g>
				<path class="st2" d="M344.67,301.52c-6.58,3.8-6.16,3.58-6.29,3.58c-0.35,0-0.47-0.46-0.17-0.64l5.78-3.34L344.67,301.52z"/>
			</g>
			<g>
				<path class="st2" d="M348.84,303.94c-6.58,3.8-6.16,3.58-6.29,3.58c-0.35,0-0.47-0.46-0.17-0.64l5.78-3.34L348.84,303.94z"/>
			</g>
			<g>
				<path class="st2" d="M353.02,306.34c-6.52,3.76-6.16,3.58-6.3,3.58c-0.35,0-0.47-0.47-0.17-0.64l5.78-3.34L353.02,306.34z"/>
			</g>
			<g>
				<path class="st2" d="M357.19,308.75c-6.58,3.8-6.16,3.58-6.29,3.58c-0.34,0-0.48-0.45-0.17-0.64l5.79-3.34L357.19,308.75z"/>
			</g>
		</g>
	</g>
	<g>
		<path class="st63" d="M304.98,301.84c-1.22,1.51-1.21,1.58-1.24,1.61c-0.03,0.04,0,0.15,0.31,0.58c-0.56,0.97-1.01,2.33-0.81,3.37
			l-0.02,0c-0.5-0.29-0.68-0.92-0.68-1.5c0-1.58,1.18-3.45,2.43-4.08L304.98,301.84z"/>
		<path class="st64" d="M352.25,330.63c0.56,0.67,1.12,1.34,1.68,2c0.14,0.17,0,0.43-0.22,0.39c-0.87-0.15-1.75-0.31-2.62-0.46
			c-0.2-0.04-0.33-0.23-0.36-0.49c-0.05-0.6,0.45-1.4,0.98-1.58C351.96,330.42,352.14,330.49,352.25,330.63z"/>
		<path class="st63" d="M313.91,306.01c39.12,22.59,34.02,19.54,33.61,19.54c-0.22-0.02-0.47,0.02-0.74,0.12c0,0,0,0,0,0
			c-0.61,0.22-1.22,0.77-1.57,1.24c-0.01,0-0.01,0.01-0.01,0.01c-0.59,0.73-0.98,1.67-1.08,2.36c-0.08,0.45-0.05,0.92-0.01,1.1
			c0.03,0.24,0.19,0.57,0.22,0.58c0.07,0.13,0.25,0.32,0.36,0.38c-36.08-20.82-35.29-20.35-35.28-20.37
			c-0.18-0.13-0.31-0.3-0.41-0.51c-0.28-0.61-0.19-1.4-0.01-2.04c0.15-0.5,0.39-1.02,0.71-1.49c2.96,1.71,5.92,3.42,8.88,5.13
			l1.29-1.61l-0.1-0.14c-2.82-1.63-5.64-3.26-8.46-4.88c0.48-0.23,1.05-0.33,1.5-0.05C313.18,305.59,313.54,305.8,313.91,306.01z"/>
		<path class="st65" d="M348.42,326.08C348.42,326.08,348.42,326.08,348.42,326.08C348.41,326.08,348.42,326.08,348.42,326.08
			C348.49,326.19,348.47,326.17,348.42,326.08z M345.35,331.53c-0.04,0-0.08,0-0.11-0.01C345.27,331.53,345.31,331.53,345.35,331.53
			z M351.09,332.56c-1.97-0.35-3.94-0.7-5.91-1.04v0c0.03,0,0.04,0.01-0.01,0c-0.09-0.01-0.15-0.02-0.27-0.07
			c-0.02-0.01-0.03-0.01-0.05-0.02c-0.17-0.07-0.32-0.19-0.42-0.32c-0.05-0.06-0.06-0.08-0.11-0.15c-0.01,0-0.01,0-0.01-0.01
			c-0.06-0.11-0.12-0.23-0.16-0.36c-0.01-0.01-0.06-0.24-0.06-0.27c-0.1-0.73,0.06-1.44,0.34-2.11c0,0,0-0.01,0.01-0.01
			c0.12-0.3,0.31-0.65,0.58-1.03c0.03-0.06,0.19-0.25,0.19-0.25c0.41-0.51,1.02-1.06,1.63-1.26c0.3-0.11,0.63-0.12,0.75-0.1
			c0.01,0,0.1,0.02,0.1,0.02c0.08,0.02,0.19,0.06,0.23,0.08c0.21,0.11,0.26,0.16,0.4,0.3c0.03,0.04-0.3-0.35,3.88,4.62
			c-0.12-0.12-0.3-0.15-0.5-0.08c-0.53,0.18-1.03,0.98-0.98,1.58C350.75,332.34,350.88,332.52,351.09,332.56z"/>
		<polygon class="st66" points="318.49,311.92 319.78,310.31 319.88,310.45 318.59,312.05 		"/>
		<path class="st67" d="M307.99,301.78c5.39,3.12,5.16,2.96,5.14,2.98c-0.72-0.43-1.61-0.09-2.29,0.39
			c-1.71-0.99-3.43-1.98-5.15-2.97c0.17-0.12,0.34-0.23,0.53-0.32C306.73,301.59,307.48,301.49,307.99,301.78z"/>
		<path class="st68" d="M310.84,305.15c0.69-0.48,1.57-0.81,2.29-0.39c0.47,0.27,0.68,0.71,0.78,1.24
			c-0.03-0.02-1.15-0.66-1.17-0.68c-0.42-0.22-0.94-0.13-1.41,0.1C311.16,305.33,311,305.24,310.84,305.15z"/>
		<path class="st68" d="M308.34,309.93c-0.04-1.09,0.42-2.28,1.02-3.2v0c0.12,0.07,0.23,0.14,0.35,0.2
			c-0.32,0.47-0.56,0.99-0.71,1.49c-0.19,0.64-0.27,1.43,0.01,2.04c0.1,0.21,0.23,0.38,0.41,0.51l0,0.01
			c0.41,0.24,0.81,0.47,1.22,0.7c-0.53,0.19-1.05,0.21-1.53-0.09C308.53,311.25,308.36,310.59,308.34,309.93z"/>
		<path class="st63" d="M304.99,301.81c0.48-0.24,1.04-0.36,1.5-0.09l0,0.01c-0.27,0.09-0.58,0.28-0.81,0.44
			c-0.43-0.25-0.62-0.37-0.7-0.35L304.99,301.81z"/>
		<path class="st67" d="M304.01,308.67c-0.39-0.22-0.63-0.67-0.75-1.11c-0.29-1.21,0.28-2.78,0.94-3.8
			c1.72,0.99,3.43,1.98,5.15,2.97c0,0.03-1.07,1.52-1.02,3.2c0.02,0.66,0.19,1.32,0.76,1.67
			C309.09,311.62,309.24,311.68,304.01,308.67z"/>
		<path class="st66" d="M304.21,303.75c-0.04,0.06-0.08,0.12-0.12,0.18c-0.1-0.14-0.2-0.28-0.29-0.42
			C303.94,303.6,304.07,303.68,304.21,303.75z"/>
		<path class="st69" d="M303.73,303.58c-0.13-0.19,0.01-0.18,0.21-0.06c4.85,2.8,9.7,5.6,14.54,8.4l0.1,0.14
			c-7.09-4.09-13.81-7.98-14.78-8.53c0.1,0.14,0.19,0.28,0.29,0.42c-0.02,0.03-0.03,0.06-0.05,0.09
			C303.94,303.88,303.83,303.73,303.73,303.58z"/>
		<g>
			<path class="st12" d="M356.28,336.16c-0.37-0.11-0.74-0.22-1.11-0.33c-2.71-0.83-5.42-1.69-8.14-2.49
				c-1.28-0.38-2.38-1.1-3.51-1.75c-10.5-6.05-20.99-12.12-31.48-18.18c-0.48-0.28-0.94-0.53-1.54-0.5
				c-0.31,0.02-0.65-0.15-0.93-0.31c-1.41-0.79-2.81-1.61-4.2-2.43c-0.32-0.19-0.72-0.27-0.67-0.85c0.02-0.22-0.41-0.48-0.7-0.65
				c-0.21-0.13-0.58-0.5-0.64-0.81c1.74,0.94,3.39,1.93,5.06,2.77c-0.25-1.26,0.06-2.44,0.76-3.64c-1.78-1.04-3.41-1.95-5.15-2.97
				c0,0-0.21-0.29-0.32-0.46c-0.06-0.09-0.07-0.15,0.01-0.13c1.63,0.84,3.46,1.97,5.05,2.88c1.59,0.91,3.06,1.78,4.65,2.69
				c1.61,0.93,3.39,1.95,5.04,2.91c0.31-0.35,0.56-0.73,0.9-1.12c0.38,0.21,0.8,0.44,1.2,0.67c-0.41,0.53-0.8,1.03-1.24,1.6
				c-3.2-1.84-6.42-3.69-9.69-5.58c-0.53,0.89-0.68,1.77-0.33,2.66c0.12,0.32,0.5,0.59,0.83,0.78c2.37,1.39,4.76,2.75,7.13,4.12
				c8.62,4.97,17.24,9.94,25.85,14.93c0.58,0.34,1.18,0.43,1.79,0.58c1.33,0.34,2.65,0.71,3.98,1.07c1.44,0.39,2.89,0.78,4.33,1.18
				c0.17,0.05,0.39,0.07,0.5,0.19c0.9,0.99,1.77,1.99,2.66,2.99C356.35,336.05,356.32,336.1,356.28,336.16z"/>
			<path class="st13" d="M311.07,305.19c1.32-1,2.28-0.78,2.65,0.49c-0.21-0.07-0.37-0.11-0.52-0.19c-0.42-0.21-0.83-0.31-1.31-0.17
				C311.65,305.39,311.35,305.24,311.07,305.19z"/>
		</g>
		<path class="st68" d="M303.69,303.44c0.43-0.53,0.86-1.07,1.29-1.6l-0.01-0.02c0.01-0.01,0.01-0.01,0.02-0.01l0.01,0.02
			c0.09-0.03-0.53-0.36,14.79,8.48l-1.29,1.61C303.26,303.12,303.76,303.38,303.69,303.44z"/>
	</g>
</g>
<g>
	<path class="st70" d="M621.65,104.32l-26.29-15.18c-1.01-0.58-1.92-0.71-2.61-0.46l-0.01-0.01l-0.02,0.01
		c-0.16,0.06-0.3,0.15-0.44,0.25l-3.88,2.24l3.13,6.73v37.13c0,2.11,1.71,4.81,3.82,6.03l22.22,12.83l2.45,5.27l3.47-2.17l0.24-0.16
		c0.9-0.63,1.72-1.12,1.72-2.2v-44.28C625.47,108.24,623.76,105.54,621.65,104.32z"/>
	<g>
		<path class="st71" d="M617.21,158.79l-26.29-15.18c-2.11-1.22-3.82-3.92-3.82-6.03V93.3c0-2.11,1.71-2.83,3.82-1.62l26.29,15.18
			c2.11,1.22,3.82,3.92,3.82,6.03v44.28C621.03,159.29,619.32,160.01,617.21,158.79z"/>
		<path class="st70" d="M615.2,122.39l-22.28-12.86c-1.1-0.64-1.99-2.04-1.99-3.14v-7.87c0-1.1,0.89-1.48,1.99-0.84l22.28,12.86
			c1.1,0.64,1.99,2.04,1.99,3.14v7.87C617.19,122.65,616.3,123.02,615.2,122.39z"/>
		<polygon class="st72" points="598.31,121.91 590.93,117.66 590.93,113.07 598.31,117.33 		"/>
		<polygon class="st72" points="607.75,127.37 600.37,123.11 600.37,118.52 607.75,122.78 		"/>
		<polygon class="st72" points="617.19,132.82 609.82,128.56 609.82,123.98 617.19,128.24 		"/>
		<polygon class="st70" points="598.31,128.36 590.93,124.1 590.93,119.52 598.31,123.78 		"/>
		<polygon class="st70" points="607.75,133.81 600.37,129.55 600.37,124.97 607.75,129.23 		"/>
		<polygon class="st70" points="617.19,139.26 609.82,135.01 609.82,130.42 617.19,134.68 		"/>
		<polygon class="st70" points="598.31,134.81 590.93,130.55 590.93,125.97 598.31,130.22 		"/>
		<polygon class="st70" points="607.75,140.26 600.37,136 600.37,131.42 607.75,135.68 		"/>
		<polygon class="st70" points="617.19,145.71 609.82,141.45 609.82,136.87 617.19,141.13 		"/>
		<polygon class="st70" points="598.31,141.25 590.93,136.99 590.93,132.41 598.31,136.67 		"/>
		<polygon class="st70" points="607.75,146.71 600.37,142.45 600.37,137.86 607.75,142.12 		"/>
		<polygon class="st70" points="617.19,152.16 609.82,147.9 609.82,143.32 617.19,147.57 		"/>
	</g>
</g>
<path class="st73" d="M651.91,72.61l1.03,2.68c0.08,0.22,0.25,0.43,0.44,0.57l2.3,1.66c0.48,0.34,0.66,1.04,0.32,1.17l-1.67,0.66
	c-0.14,0.05-0.2,0.21-0.17,0.42l0.39,2.52c0.08,0.52-0.42,0.59-0.84,0.13l-2.06-2.27c-0.17-0.19-0.37-0.3-0.54-0.31l-2.06-0.11
	c-0.42-0.02-0.92-0.67-0.84-1.1l0.39-2.06c0.03-0.17-0.03-0.4-0.17-0.61l-1.67-2.58c-0.34-0.53-0.15-1.01,0.32-0.8l2.3,0.99
	c0.19,0.08,0.35,0.06,0.44-0.07l1.03-1.49C651.09,71.7,651.7,72.06,651.91,72.61z"/>
<g>
	<polygon class="st74" points="661.21,267.83 661.21,278.02 659.18,285.4 659.18,275.21 	"/>
	<polygon class="st75" points="658.81,268.53 658.81,267.12 661.21,267.83 659.18,275.21 646.4,276.38 640.52,269.72 643.17,268.18 
		643.17,269.96 647.61,275 657.28,274.11 	"/>
	<polygon class="st76" points="659.18,275.21 659.18,285.4 658.64,285.45 657.28,285.57 647.61,286.46 646.4,286.57 646.4,276.38 	
		"/>
	<polygon class="st77" points="658.81,268.53 657.28,274.11 657.28,131.37 658.81,125.79 658.81,267.12 	"/>
	<path class="st78" d="M654.17,108.86l4.64,16.93l-1.53,5.58l-3.68-20.42C653.79,110.25,653.98,109.55,654.17,108.86z"/>
	<polygon class="st79" points="658.64,285.45 657.28,290.4 657.28,285.57 657.28,285.57 	"/>
	<polygon class="st80" points="657.28,285.57 657.28,290.4 647.61,291.28 647.61,286.46 657.28,285.57 	"/>
	<polygon class="st41" points="657.28,131.37 657.28,274.11 647.61,275 647.61,132.25 	"/>
	<path class="st81" d="M653.6,110.95l3.68,20.42l-9.67,0.88l2.36-20.97C651.18,111.17,652.39,111.06,653.6,110.95L653.6,110.95z"/>
	<path class="st17" d="M654.17,108.86c-0.19,0.7-0.38,1.39-0.57,2.09h0l-2.21-12.25L654.17,108.86z"/>
	<path class="st17" d="M651.39,98.69l2.21,12.25c-1.21,0.11-2.41,0.22-3.62,0.33L651.39,98.69z"/>
	<path class="st18" d="M648.31,109.39l3.08-10.69l-1.42,12.58C649.42,110.65,648.87,110.02,648.31,109.39z"/>
	<polygon class="st40" points="643.17,269.96 643.17,268.18 643.17,127.22 647.61,132.25 647.61,275 	"/>
	<polygon class="st82" points="646.4,276.38 646.4,286.57 643.17,282.92 640.52,279.91 640.52,269.72 	"/>
	<path class="st83" d="M643.17,127.22l5.14-17.83c0.55,0.63,1.11,1.26,1.67,1.89l-2.36,20.97L643.17,127.22z"/>
	<polygon class="st84" points="643.17,286.24 643.17,282.92 643.17,282.92 646.4,286.57 647.61,286.46 647.61,291.28 	"/>
</g>
<g>
	<path class="st85" d="M379.59,67.26l1.03,1.49c0.08,0.12,0.25,0.15,0.44,0.07l2.3-0.99c0.48-0.21,0.66,0.27,0.32,0.8l-1.67,2.58
		c-0.14,0.21-0.2,0.44-0.17,0.61l0.39,2.06c0.08,0.43-0.42,1.07-0.84,1.1l-2.06,0.11c-0.17,0.01-0.37,0.13-0.54,0.31l-2.06,2.27
		c-0.42,0.47-0.92,0.39-0.84-0.13l0.39-2.52c0.03-0.21-0.03-0.36-0.17-0.42l-1.67-0.66c-0.34-0.14-0.15-0.83,0.32-1.17l2.3-1.66
		c0.19-0.14,0.35-0.35,0.44-0.57l1.03-2.68C378.76,67.31,379.38,66.95,379.59,67.26z"/>
	<g>
		<path class="st37" d="M400.44,111.55l-1.81,1.05l-2.32,1.34c0.33-0.19,0.62-0.56,0.74-1.16c0.21-1.07-0.19-2.35-0.74-3.31
			L384.26,88.6l4.59-2.65l12.04,20.86c0.55,0.96,0.96,2.24,0.74,3.31c-0.12,0.6-0.41,0.97-0.74,1.16l-0.43,0.25L400.44,111.55z"/>
		<path class="st86" d="M396.3,109.46L384.26,88.6c1.3-1.69,1.85-3.92,1.94-6.07c0.16-3.33-0.68-6.83-1.95-9.92
			c-1.39-3.39-3.43-6.65-5.92-9.35c-2.26-2.45-5.18-4.72-8.33-5.68c-2.42-0.73-4.58-0.56-6.29,0.42c-1.69,0.97-2.93,2.75-3.51,5.23
			c-0.75,3.2-0.23,6.88,0.76,10.04c1.09,3.51,2.9,6.91,5.13,9.8c2.05,2.65,4.66,5.12,7.62,6.66c1.91,1,4.12,1.64,6.24,1.36
			L392,111.95c0.41,0.69,0.95,1.36,1.6,1.82c0.67,0.49,1.57,0.82,2.28,0.42l0.42-0.25c0.34-0.19,0.63-0.56,0.75-1.16
			C397.26,111.7,396.87,110.42,396.3,109.46z M381.36,83.25c-0.11,0.24-0.25,0.46-0.4,0.67c-0.81,1.18-1.98,1.85-3.41,1.98
			c-1.98,0.17-4.04-0.81-5.65-1.97c-4.15-2.99-7.4-8.64-7.92-13.72c-0.2-1.98-0.01-4.26,1.13-5.88c0.81-1.17,1.98-1.85,3.41-1.97
			c0.26-0.02,0.52-0.02,0.78-0.01c1.73,0.1,3.47,0.97,4.87,1.98c4.15,2.98,7.4,8.64,7.92,13.72
			C382.27,79.77,382.15,81.71,381.36,83.25z"/>
		<path class="st37" d="M368.26,55.37c0.02-0.01,0.03-0.02,0.05-0.03c1.52-0.88,3.56-1.2,6.09-0.48c3.18,0.91,6.14,3.18,8.42,5.63
			c2.52,2.71,4.58,5.98,5.98,9.37c1.28,3.11,2.13,6.63,1.99,9.97c-0.09,2.17-0.63,4.42-1.94,6.12l-4.59,2.65
			c1.31-1.69,1.85-3.93,1.94-6.08c0.15-3.33-0.69-6.83-1.96-9.92c-1.39-3.39-3.42-6.64-5.91-9.34c-2.26-2.45-5.18-4.72-8.33-5.68
			c-2.42-0.73-4.58-0.56-6.29,0.42v0C365.23,57.12,366.75,56.24,368.26,55.37z"/>
		<path class="st37" d="M381.36,83.25c-0.11,0.24-0.25,0.46-0.4,0.67c-0.81,1.18-1.98,1.85-3.41,1.98
			c-1.98,0.17-4.04-0.81-5.65-1.97c-4.15-2.99-7.4-8.64-7.92-13.72c-0.2-1.98-0.01-4.26,1.13-5.88c0.81-1.17,1.98-1.85,3.41-1.97
			c0.26-0.02,0.52-0.02,0.78-0.01c-0.54,1.09-0.8,2.4-0.8,3.84c0,4.31,2.31,9.71,6.08,13.45c1.06,1.05,2.24,1.98,3.58,2.66
			C379.16,82.82,380.26,83.19,381.36,83.25z"/>
		<path class="st87" d="M381.36,83.25c-1.11-0.06-2.21-0.43-3.2-0.94c-1.34-0.68-2.52-1.61-3.58-2.66
			c-3.77-3.74-6.08-9.14-6.08-13.45c0-1.44,0.26-2.75,0.8-3.84c1.73,0.1,3.47,0.97,4.87,1.98c4.15,2.98,7.4,8.64,7.92,13.72
			C382.27,79.77,382.15,81.71,381.36,83.25z"/>
	</g>
</g>
</svg>
